<?xml version='1.0' encoding='UTF-8' standalone='no'?>
<svg viewBox="0 0 50 50" baseProfile="tiny" xmlns="http://www.w3.org/2000/svg" width="4.23333mm" height="4.23333mm" xmlns:xlink="http://www.w3.org/1999/xlink" version="1.2">
 <title>Qt SVG Document</title>
 <desc>Generated with Qt</desc>
 <defs/>
 <g fill="none" stroke-linejoin="bevel" stroke="black" fill-rule="evenodd" stroke-linecap="square" stroke-width="1">
  <g fill="none" font-weight="400" transform="matrix(1,0,0,1,0,0)" stroke-linejoin="bevel" font-size="45.8333" stroke="#000000" font-family="Lato" font-style="normal" stroke-linecap="square" stroke-opacity="1" stroke-width="1"/>
  <g fill="none" font-weight="400" transform="matrix(1,0,0,1,0,0)" stroke-linejoin="bevel" font-size="45.8333" stroke="#000000" font-family="Lato" font-style="normal" stroke-linecap="square" stroke-opacity="1" stroke-width="1"/>
  <g fill="none" font-weight="400" transform="matrix(11.811,0,0,11.811,0,0)" stroke-linejoin="bevel" font-size="45.8333" stroke="#000000" font-family="Lato" font-style="normal" stroke-linecap="square" stroke-opacity="1" stroke-width="1"/>
  <g fill="none" font-weight="400" transform="matrix(11.811,0,0,11.811,0,0)" stroke-linejoin="bevel" font-size="45.8333" stroke="#000000" font-family="Lato" font-style="normal" stroke-linecap="square" stroke-opacity="1" stroke-width="1"/>
  <g fill="none" font-weight="400" transform="matrix(11.811,0,0,11.811,0,0)" stroke-linejoin="bevel" font-size="45.8333" stroke="#000000" font-family="Lato" font-style="normal" stroke-linecap="square" stroke-opacity="1" stroke-width="1"/>
  <g fill="none" font-weight="400" transform="matrix(1,0,0,1,0,0)" stroke-linejoin="bevel" font-size="45.8333" stroke="#000000" font-family="Lato" font-style="normal" stroke-linecap="square" stroke-opacity="1" stroke-width="1"/>
  <g fill="#ffffff" font-weight="400" transform="matrix(1,0,0,1,0,0)" font-size="45.8333" fill-opacity="0" stroke="none" font-family="Lato" font-style="normal">
   <path d="M-2,-2 L52,-2 L52,52 L-2,52 L-2,-2" fill-rule="evenodd" vector-effect="none"/>
  </g>
  <g fill="none" font-weight="400" transform="matrix(1,0,0,1,0,0)" stroke-linejoin="bevel" font-size="45.8333" stroke="#000000" font-family="Lato" font-style="normal" stroke-linecap="square" stroke-opacity="1" stroke-width="1"/>
  <g fill="none" font-weight="400" transform="matrix(11.811,0,0,11.811,0,0)" stroke-linejoin="bevel" font-size="45.8333" stroke="#000000" font-family="Lato" font-style="normal" stroke-linecap="square" stroke-opacity="1" stroke-width="1"/>
  <g fill="none" font-weight="400" transform="matrix(11.811,0,0,11.811,0,0)" stroke-linejoin="bevel" font-size="45.8333" stroke="#000000" font-family="Lato" font-style="normal" stroke-linecap="square" stroke-opacity="1" stroke-width="1"/>
  <g fill="none" font-weight="400" transform="matrix(11.811,0,0,11.811,0,0)" stroke-linejoin="bevel" font-size="45.8333" stroke="#000000" font-family="Lato" font-style="normal" stroke-linecap="square" stroke-opacity="1" stroke-width="1"/>
  <g fill="none" font-weight="400" transform="matrix(11.811,0,0,11.811,0,0)" stroke-linejoin="bevel" font-size="45.8333" stroke="#000000" font-family="Lato" font-style="normal" stroke-linecap="square" stroke-opacity="1" stroke-width="1"/>
  <g fill="none" font-weight="400" transform="matrix(11.811,0,0,11.811,0,0)" stroke-linejoin="bevel" font-size="45.8333" stroke="#000000" font-family="Lato" font-style="normal" stroke-linecap="square" stroke-opacity="1" stroke-width="1"/>
  <g fill="none" font-weight="400" transform="matrix(11.811,0,0,11.811,0,0)" stroke-linejoin="bevel" font-size="45.8333" stroke="#000000" font-family="Lato" font-style="normal" stroke-linecap="square" stroke-opacity="1" stroke-width="1"/>
  <g fill="#000000" font-weight="400" transform="matrix(1,0,0,1,0,0)" font-size="45.8333" fill-opacity="0" stroke="none" font-family="Lato" font-style="normal">
   <rect x="0" y="0" width="50" height="50"/>
  </g>
  <g fill="none" font-weight="400" transform="matrix(1,0,0,1,0,0)" stroke-linejoin="bevel" font-size="45.8333" stroke="#000000" font-family="Lato" font-style="normal" stroke-linecap="square" stroke-opacity="1" stroke-width="1"/>
  <g fill="none" font-weight="400" transform="matrix(1,0,0,1,0,0)" font-size="45.8333" stroke="none" font-family="Lato" font-style="normal">
   <path d="M37.8704,8.66764 L39.0162,7.44485 L38.7375,7.28356 L39.5967,5.9115 L40.474,2.6996 L40.9031,2.53505 L41.0403,1.68139 L42.4573,1.68215 L42.7155,0.961122 L42.918,1.11353 L43.7269,0.493038 L43.5314,0.992103 L43.9763,2.21258 L43.4904,2.95954 L42.7567,3.34474 L42.7582,4.29871 L41.3797,3.71411 L40.8359,4.11474 L40.5257,4.98067 L40.8146,6.0715 L40.5853,6.35179 L41.3626,6.44349 L41.4961,6.1812 L41.648,6.66734 L40.5711,7.10769 L40.2182,8.10389 L41.2835,8.10601 L42.3769,7.62436 L42.1429,8.49549 L42.3022,9.06873 L41.1907,11.5769 L41.2103,12.7193 L40.3373,15.0781 L37.8704,8.66764" fill-rule="evenodd" vector-effect="none"/>
   <path d="M40.6613,5.81031 L40.5138,5.03699 L40.909,4.0067 L41.4463,3.71064 L42.7582,4.29871 L42.7525,6.60506 L42.3776,7.62455 L41.2835,8.10601 L40.2182,8.10389 L40.5711,7.10769 L41.648,6.66734 L41.4961,6.1812 L41.3626,6.44349 L40.5853,6.35179 L40.7972,6.24846 L40.6613,5.81031" fill-rule="evenodd" vector-effect="none"/>
   <path d="M38.8825,7.37596 L39.0162,7.44485 L37.8704,8.66764 L37.6914,8.28477 L38.8825,7.37596" fill-rule="evenodd" vector-effect="none"/>
   <path d="M41.0612,1.67609 L42.4213,-1.35156 L43.0558,-1.714 L43.1465,-2.87554 L44.3304,-3.72192 L44.281,-4.13603 L45.3672,-4.05185 L45.5435,-4.27641 L46.0322,-4.05974 L45.5843,-3.63062 L46.3486,-3.29108 L46.6426,-2.45757 L45.4676,-1.51698 L45.7694,-1.10922 L44.5809,-1.03263 L44.101,-0.376741 L44.5244,-0.106763 L42.918,1.11353 L42.7155,0.961122 L42.4573,1.68215 L41.0612,1.67609" fill-rule="evenodd" vector-effect="none"/>
   <path d="M43.4904,2.95954 L43.9763,2.21258 L43.5137,0.762343 L44.5244,-0.106763 L44.101,-0.376741 L44.2011,-0.633345 L44.9081,-1.15993 L45.7243,-1.05996 L45.4676,-1.51698 L46.6426,-2.45757 L46.3486,-3.29108 L45.5843,-3.63062 L46.0322,-4.05974 L45.5435,-4.27641 L45.3672,-4.05185 L44.281,-4.13603 L43.9566,-5 L55,-5 L55,0.48556 L54.7246,0.623505 L47.4443,4.55165 L45.8375,4.31882 L43.4904,2.95954" fill-rule="evenodd" vector-effect="none"/>
   <path d="M55,39.4475 L54.818,39.2497 L54.8134,38.6878 L53.5261,36.3254 L51.5997,35.0035 L51.6467,34.7501 L51.3402,34.963 L49.7158,34.1534 L49.8173,33.878 L48.6702,32.3521 L49.0724,32.2768 L49.0187,31.1447 L47.8796,29.3913 L47.0084,28.893 L46.985,27.9907 L46.3023,27.6604 L44.5122,24.697 L41.2785,20.5914 L41.4749,20.4237 L40.8628,20.1809 L39.9427,20.3611 L39.5867,20.1046 L39.3555,20.2572 L39.4342,20.3611 L39.2285,20.5137 L39.0785,20.2062 L39.9387,18.6633 L40.4809,15.5929 L44.6517,16.1576 L46.1696,15.0607 L47.1068,13.7242 L49.8677,13.199 L50.5281,11.9467 L51.7712,11.3213 L47.9661,7.62667 L55,5.85995 L55,39.4475" fill-rule="evenodd" vector-effect="none"/>
   <path d="M46.8544,29.7389 L46.3647,29.5862 L46.2538,29.3303 L46.4174,29.1801 L46.8544,29.7389" fill-rule="evenodd" vector-effect="none"/>
   <path d="M47.2653,29.9092 L46.9305,29.7365 L47.095,29.6928 L47.6669,30.1465 L47.2653,29.9092" fill-rule="evenodd" vector-effect="none"/>
   <path d="M47.9051,30.2874 L47.7435,30.453 L47.2847,29.9489 L47.7605,30.3298 L47.9051,30.2874" fill-rule="evenodd" vector-effect="none"/>
   <path d="M46.4132,28.8112 L46.4726,28.683 L46.5932,28.593 L46.6484,29.1866 L46.4132,28.8112" fill-rule="evenodd" vector-effect="none"/>
   <path d="M48.2496,30.2774 L47.9178,30.1519 L47.9375,30.0565 L48.1823,30.093 L48.2496,30.2774" fill-rule="evenodd" vector-effect="none"/>
   <path d="M47.7617,29.5513 L47.8478,29.5889 L47.8308,29.8631 L47.7472,29.7519 L47.7617,29.5513" fill-rule="evenodd" vector-effect="none"/>
   <path d="M47.4799,29.7071 L47.5793,29.6812 L47.6181,29.7647 L47.5205,29.8021 L47.4799,29.7071" fill-rule="evenodd" vector-effect="none"/>
   <path d="M42.9474,3.19208 L44.0048,3.07524 L44.6398,3.80493 L47.3966,4.56561 L54.7246,0.623505 L55,1.47597 L55,5.85995 L47.9661,7.62667 L51.7712,11.3213 L50.5281,11.9467 L49.8677,13.199 L47.1068,13.7242 L46.1696,15.0607 L44.4543,16.1951 L40.4809,15.5929 L41.2103,12.7193 L41.1907,11.5769 L42.3022,9.06873 L42.1429,8.49549 L42.7525,6.60506 L42.6162,5.51592 L42.9474,3.19208" fill-rule="evenodd" vector-effect="none"/>
  </g>
  <g fill="none" font-weight="400" transform="matrix(1,0,0,1,0,0)" stroke-linejoin="bevel" font-size="45.8333" stroke="#ffffff" font-family="Lato" font-style="normal" stroke-linecap="square" stroke-opacity="1" stroke-width="0.11811">
   <path d="M38.3154,9.79977 L40.2476,15.0776 L39.6885,15.7434 L39.2712,17.8856 L38.473,19.4346 L38.5651,20.7172 L37.743,21.4026 L37.9039,21.6369 L36.0645,20.5369 L34.0735,18.5059 L33.8844,16.9413 L32.1607,15.2046 L31.6498,13.1362 L30.7555,14.6963 L31.6625,15.5279 L31.8274,17.004 L32.5029,17.7286 L32.7338,18.4704 L35.2863,21.0117 L35.4266,21.4035 L34.985,21.2846 L35.4266,21.942 L35.0702,21.942 L36.3439,23.4466 L36.3378,23.9003 L36.9311,24.7351 L36.753,24.9792 L36.7275,25.6402 L38.9809,29.0975 L41.2077,33.6585 L42.5083,35.1156 L43.4196,35.5832 L43.6206,35.885 L42.5831,35.6063 L42.4712,35.8273 L42.4919,37.3941 L42.7083,37.7777 L43.2585,39.4976 L43.9685,40.229 L45.235,40.6024 L46.0309,41.6413 L47.7273,42.7223 L47.6835,42.9845 L27.3961,42.9859 L27.6058,42.3235 L27.3507,42.1234 L26.6995,42.9895 L3.36226,42.9859 L3.36226,16.2271 L2.27273,12.4982 L3.08824,11.3219 L3.41306,10.2552 L2.86964,8.15681 L3.76136,7.17042 L3.99397,7.01046 L4.14307,7.47593 L4.92854,7.58139 L7.03223,7.15895 L12.0736,8.03624 L12.5415,8.62384 L13.3384,8.78384 L14.0554,8.5602 L14.3312,9.08627 L16.1834,9.1443 L18.4316,10.099 L20.201,9.61628 L22.3099,8.21322 L22.6659,8.64778 L23.126,8.56899 L22.719,8.41883 L23.2157,8.14958 L23.3314,7.60063 L23.4084,7.74169 L23.5351,7.80412 L23.3993,7.56063 L24.046,7.72775 L25.6772,7.27017 L24.0714,7.95655 L24.7854,8.00973 L26.2182,7.61881 L25.6927,7.27926 L26.1372,7.19138 L27.8479,7.80412 L29.0303,7.46062 L29.174,7.4632 L29.2928,7.51517 L30.2413,8.35625 L29.0867,7.47381 L28.971,8.13685 L28.6303,8.39504 L29.2243,8.75869 L29.6364,8.64778 L29.5582,8.97809 L29.8946,9.25628 L30.5537,8.94657 L30.5519,8.46716 L30.2692,8.35625 L30.7322,8.44429 L31.7383,9.22794 L32.951,8.87627 L31.9801,9.26021 L32.2213,9.31067 L32.9504,9.03869 L33.2589,9.24537 L33.4614,8.95263 L33.3347,9.07976 L33.0523,9.05688 L33.6292,8.72353 L33.7183,9.28537 L34.7353,8.87627 L35.082,8.97809 L35.6348,9.01839 L37.6914,8.28477 L38.3154,9.79977 M42.2676,39.3255 L41.4591,40.0407 L42.9821,38.7262 L42.2676,39.3255 M38.1413,42.1259 L38.8138,41.9925 L39.4856,41.8592 L37.4948,42.2542 L38.1413,42.1259 M40.1553,40.4358 L39.8411,41.1076 L40.0297,40.7087 L40.1553,40.4358" fill-rule="evenodd" vector-effect="none"/>
   <path d="M34.1756,8.63838 L33.6038,8.61065 L32.9789,8.90415 L33.612,8.5602 L34.1756,8.63838" fill-rule="evenodd" vector-effect="none"/>
   <path d="M34.9941,8.92718 L34.3341,8.66262 L34.2265,8.64778 L34.3432,8.65111 L34.7338,8.76808 L34.9941,8.92718" fill-rule="evenodd" vector-effect="none"/>
   <path d="M37.0887,22.6124 L37.1366,22.6793 L36.6239,22.3996 L36.8121,22.361 L37.0887,22.6124" fill-rule="evenodd" vector-effect="none"/>
   <path d="M39.2561,20.895 L38.8748,20.8853 L38.7685,20.6409 L38.9373,20.5955 L39.2561,20.895" fill-rule="evenodd" vector-effect="none"/>
   <path d="M36.8548,25.1318 L36.9566,25.3492 L36.959,25.4365 L36.7784,25.1318 L36.8548,25.1318" fill-rule="evenodd" vector-effect="none"/>
   <path d="M39.4817,20.9421 L39.4844,20.78 L39.671,20.7858 L39.672,20.928 L39.4817,20.9421" fill-rule="evenodd" vector-effect="none"/>
   <path d="M33.1365,9.11521 L33.1589,9.12021 L33.182,9.18158 L33.1092,9.13264 L33.1365,9.11521" fill-rule="evenodd" vector-effect="none"/>
  </g>
  <g fill="none" font-weight="400" transform="matrix(1,0,0,1,0,0)" stroke-linejoin="bevel" font-size="45.8333" stroke="#000000" font-family="Lato" font-style="normal" stroke-linecap="square" stroke-opacity="1" stroke-width="1"/>
  <g fill="none" font-weight="400" transform="matrix(11.811,0,0,11.811,0,0)" stroke-linejoin="bevel" font-size="45.8333" stroke="#000000" font-family="Lato" font-style="normal" stroke-linecap="square" stroke-opacity="1" stroke-width="1"/>
  <g fill="none" font-weight="400" transform="matrix(11.811,0,0,11.811,0,0)" stroke-linejoin="bevel" font-size="45.8333" stroke="#000000" font-family="Lato" font-style="normal" stroke-linecap="square" stroke-opacity="1" stroke-width="1"/>
  <g fill="none" font-weight="400" transform="matrix(11.811,0,0,11.811,0,0)" stroke-linejoin="bevel" font-size="45.8333" stroke="#000000" font-family="Lato" font-style="normal" stroke-linecap="square" stroke-opacity="1" stroke-width="1"/>
  <g fill="none" font-weight="400" transform="matrix(1,0,0,1,0,0)" stroke-linejoin="bevel" font-size="45.8333" stroke="#000000" font-family="Lato" font-style="normal" stroke-linecap="square" stroke-opacity="1" stroke-width="1"/>
  <g fill="none" font-weight="400" transform="matrix(11.811,0,0,11.811,0,0)" stroke-linejoin="bevel" font-size="45.8333" stroke="#000000" font-family="Lato" font-style="normal" stroke-linecap="square" stroke-opacity="1" stroke-width="1"/>
  <g fill="none" font-weight="400" transform="matrix(11.811,0,0,11.811,0,0)" stroke-linejoin="bevel" font-size="45.8333" stroke="#000000" font-family="Lato" font-style="normal" stroke-linecap="square" stroke-opacity="1" stroke-width="1"/>
  <g fill="none" font-weight="400" transform="matrix(11.811,0,0,11.811,0,0)" stroke-linejoin="bevel" font-size="45.8333" stroke="#000000" font-family="Lato" font-style="normal" stroke-linecap="square" stroke-opacity="1" stroke-width="1"/>
  <g fill="none" font-weight="400" transform="matrix(11.811,0,0,11.811,0,0)" stroke-linejoin="bevel" font-size="45.8333" stroke="#000000" font-family="Lato" font-style="normal" stroke-linecap="square" stroke-opacity="1" stroke-width="1"/>
  <g fill="none" font-weight="400" transform="matrix(1,0,0,1,0,0)" stroke-linejoin="bevel" font-size="45.8333" stroke="#000000" font-family="Lato" font-style="normal" stroke-linecap="square" stroke-opacity="1" stroke-width="1"/>
 </g>
</svg>
