<?xml version='1.0' encoding='UTF-8' standalone='no'?>
<svg viewBox="0 0 50 50" baseProfile="tiny" xmlns="http://www.w3.org/2000/svg" width="4.23333mm" height="4.23333mm" xmlns:xlink="http://www.w3.org/1999/xlink" version="1.2">
 <title>Qt SVG Document</title>
 <desc>Generated with Qt</desc>
 <defs/>
 <g fill="none" stroke-linejoin="bevel" stroke="black" fill-rule="evenodd" stroke-linecap="square" stroke-width="1">
  <g fill="none" font-weight="400" transform="matrix(1,0,0,1,0,0)" stroke-linejoin="bevel" font-size="45.8333" stroke="#000000" font-family="Lato" font-style="normal" stroke-linecap="square" stroke-opacity="1" stroke-width="1"/>
  <g fill="none" font-weight="400" transform="matrix(1,0,0,1,0,0)" stroke-linejoin="bevel" font-size="45.8333" stroke="#000000" font-family="Lato" font-style="normal" stroke-linecap="square" stroke-opacity="1" stroke-width="1"/>
  <g fill="none" font-weight="400" transform="matrix(11.811,0,0,11.811,0,0)" stroke-linejoin="bevel" font-size="45.8333" stroke="#000000" font-family="Lato" font-style="normal" stroke-linecap="square" stroke-opacity="1" stroke-width="1"/>
  <g fill="none" font-weight="400" transform="matrix(11.811,0,0,11.811,0,0)" stroke-linejoin="bevel" font-size="45.8333" stroke="#000000" font-family="Lato" font-style="normal" stroke-linecap="square" stroke-opacity="1" stroke-width="1"/>
  <g fill="none" font-weight="400" transform="matrix(11.811,0,0,11.811,0,0)" stroke-linejoin="bevel" font-size="45.8333" stroke="#000000" font-family="Lato" font-style="normal" stroke-linecap="square" stroke-opacity="1" stroke-width="1"/>
  <g fill="none" font-weight="400" transform="matrix(1,0,0,1,0,0)" stroke-linejoin="bevel" font-size="45.8333" stroke="#000000" font-family="Lato" font-style="normal" stroke-linecap="square" stroke-opacity="1" stroke-width="1"/>
  <g fill="#ffffff" font-weight="400" transform="matrix(1,0,0,1,0,0)" font-size="45.8333" fill-opacity="0" stroke="none" font-family="Lato" font-style="normal">
   <path d="M-2,-2 L52,-2 L52,52 L-2,52 L-2,-2" fill-rule="evenodd" vector-effect="none"/>
  </g>
  <g fill="none" font-weight="400" transform="matrix(1,0,0,1,0,0)" stroke-linejoin="bevel" font-size="45.8333" stroke="#000000" font-family="Lato" font-style="normal" stroke-linecap="square" stroke-opacity="1" stroke-width="1"/>
  <g fill="none" font-weight="400" transform="matrix(11.811,0,0,11.811,0,0)" stroke-linejoin="bevel" font-size="45.8333" stroke="#000000" font-family="Lato" font-style="normal" stroke-linecap="square" stroke-opacity="1" stroke-width="1"/>
  <g fill="none" font-weight="400" transform="matrix(11.811,0,0,11.811,0,0)" stroke-linejoin="bevel" font-size="45.8333" stroke="#000000" font-family="Lato" font-style="normal" stroke-linecap="square" stroke-opacity="1" stroke-width="1"/>
  <g fill="none" font-weight="400" transform="matrix(11.811,0,0,11.811,0,0)" stroke-linejoin="bevel" font-size="45.8333" stroke="#000000" font-family="Lato" font-style="normal" stroke-linecap="square" stroke-opacity="1" stroke-width="1"/>
  <g fill="none" font-weight="400" transform="matrix(11.811,0,0,11.811,0,0)" stroke-linejoin="bevel" font-size="45.8333" stroke="#000000" font-family="Lato" font-style="normal" stroke-linecap="square" stroke-opacity="1" stroke-width="1"/>
  <g fill="none" font-weight="400" transform="matrix(11.811,0,0,11.811,0,0)" stroke-linejoin="bevel" font-size="45.8333" stroke="#000000" font-family="Lato" font-style="normal" stroke-linecap="square" stroke-opacity="1" stroke-width="1"/>
  <g fill="none" font-weight="400" transform="matrix(11.811,0,0,11.811,0,0)" stroke-linejoin="bevel" font-size="45.8333" stroke="#000000" font-family="Lato" font-style="normal" stroke-linecap="square" stroke-opacity="1" stroke-width="1"/>
  <g fill="#000000" font-weight="400" transform="matrix(1,0,0,1,0,0)" font-size="45.8333" fill-opacity="0" stroke="none" font-family="Lato" font-style="normal">
   <rect x="0" y="0" width="50" height="50"/>
  </g>
  <g fill="none" font-weight="400" transform="matrix(1,0,0,1,0,0)" stroke-linejoin="bevel" font-size="45.8333" stroke="#000000" font-family="Lato" font-style="normal" stroke-linecap="square" stroke-opacity="1" stroke-width="1"/>
  <g fill="none" font-weight="400" transform="matrix(1,0,0,1,0,0)" font-size="45.8333" stroke="none" font-family="Lato" font-style="normal">
   <path d="M-5,9.24191 L-3.89826,9.20193 L-0.283435,7.92817 L0.904383,8.17279 L2.04275,8.92442 L4.43327,9.07614 L6.87516,8.70044 L11.2591,7.03587 L14.8399,7.15158 L17.2995,6.68682 L18.2377,5.99328 L18.8671,6.38878 L19.0088,7.21351 L16.5309,9.27779 L14.4015,9.74927 L13.8979,10.4999 L13.7106,11.8678 L14.2997,13.7496 L13.5464,15.6646 L13.5599,17.7546 L12.4498,19.5722 L11.1732,19.899 L2.27273,24.3578 L-5,28.2818 L-5,9.24191" fill-rule="evenodd" vector-effect="none"/>
   <path d="M-5,-5 L30.0048,-5 L30.2963,-4.76091 L29.8385,-5 L28.6737,-5 L28.3498,-3.71379 L26.6165,-3.52607 L26.9084,-2.71766 L27.4145,-2.46248 L27.2534,-1.62395 L27.825,-1.06161 L27.8924,1.08141 L28.6786,1.28546 L27.4863,3.33486 L29.3167,4.17471 L29.1765,5.4253 L30.2712,6.14296 L30.1065,6.84334 L29.3825,6.6741 L27.8706,7.64586 L27.3838,7.09564 L27.6392,6.40271 L26.9564,6.05714 L25.662,6.57495 L22.4354,5.77855 L21.6096,6.01537 L20.8822,5.75827 L19.7894,6.84814 L18.9161,6.9917 L18.8671,6.38878 L18.2377,5.99328 L17.2995,6.68682 L14.8399,7.15158 L11.2591,7.03587 L6.87516,8.70044 L4.43327,9.07614 L2.04275,8.92442 L0.904383,8.17279 L-0.283435,7.92817 L-3.89826,9.20193 L-5,9.24191 L-5,-5" fill-rule="evenodd" vector-effect="none"/>
  </g>
  <g fill="none" font-weight="400" transform="matrix(1,0,0,1,0,0)" stroke-linejoin="bevel" font-size="45.8333" stroke="#ffffff" font-family="Lato" font-style="normal" stroke-linecap="square" stroke-opacity="1" stroke-width="0.11811">
   <path d="M30.1065,6.84334 L30.6697,7.42861 L30.409,8.46927 L31.4062,9.04469 L31.1529,9.66861 L31.5819,10.2303 L32.3026,10.276 L32.6809,12.1758 L33.7014,12.176 L34.6725,13.0261 L36.1191,12.8112 L37.3578,13.0609 L35.856,13.6613 L35.6711,14.4979 L36.3966,15.3139 L36.5401,16.2751 L35.4351,16.3879 L35.1425,17.2264 L34.2903,17.6905 L34.1074,18.0904 L34.4519,18.878 L33.5187,18.6903 L33.5317,19.1433 L33.1303,19.3747 L33.783,19.9898 L33.7225,20.791 L32.9599,21.5618 L33.4496,21.724 L34.6053,23.3756 L35.3086,23.1535 L35.5036,23.5254 L35.1535,23.7879 L35.7196,23.8044 L36.5598,24.8756 L36.615,25.3024 L35.9791,25.5935 L36.3978,25.7979 L36.289,26.2966 L38.065,26.5871 L40.9047,28.5253 L41.7163,28.4783 L42.3923,28.8936 L42.7663,30.0394 L44.3603,31.6324 L43.6378,33.4807 L43.6099,35.4 L45.1861,35.4261 L45.1924,37.8659 L46.5495,38.5675 L47.2343,40.0142 L47.7273,40.2688 L45.6828,39.8118 L44.9853,40.0019 L44.9048,39.6105 L44.8265,39.5233 L44.8878,40.0484 L43.6157,39.5645 L41.3994,39.8617 L39.803,42.601 L38.3118,44.2214 L29.7613,43.7286 L17.6068,35.0043 L9.93593,31.099 L4.0002,30.181 L4.67669,29.594 L4.41551,29.0907 L3.45382,29.2046 L3.21905,28.5234 L3.58586,28.423 L2.27273,24.3578 L11.1732,19.899 L12.4498,19.5722 L13.5599,17.7546 L13.5464,15.6646 L14.2997,13.7496 L13.7106,11.8678 L13.8979,10.4999 L14.4015,9.74927 L16.5309,9.27779 L18.9161,6.9917 L19.8639,6.82149 L20.5812,5.85213 L22.4354,5.77855 L25.662,6.57495 L26.9564,6.05714 L27.6392,6.40271 L27.3838,7.09564 L27.8706,7.64586 L29.3825,6.6741 L30.1065,6.84334" fill-rule="evenodd" vector-effect="none"/>
  </g>
  <g fill="none" font-weight="400" transform="matrix(1,0,0,1,0,0)" font-size="45.8333" stroke="none" font-family="Lato" font-style="normal">
   <path d="M30.4925,-4.69444 L31.9024,-2.7802 L32.6382,-2.71982 L33.2304,-1.80796 L36.4239,-1.15031 L38.4107,-1.27646 L40.9587,-3.22095 L44.8621,-5 L45.0656,-5 L46.7038,-3.54863 L45.6226,-3.03874 L46.4935,-1.80964 L45.4012,-1.54845 L45.0973,-1.09186 L46.5708,0.0691961 L47.0584,-0.0142248 L47.9531,1.01767 L49.1907,0.840728 L49.517,3.30598 L50.3902,4.60684 L51.8268,5.20378 L55,5.64786 L55,39.9726 L54.7612,39.1114 L54.0233,39.0735 L52.2472,39.9142 L52.0037,39.2957 L50.9135,39.2939 L50.8023,38.7918 L50.5244,38.9812 L49.4085,38.252 L50.7173,38.4105 L51.0004,37.9319 L50.7558,37.6686 L49.6886,37.6255 L49.9479,38.0115 L49.472,38.076 L49.1351,38.4153 L49.3812,39.8248 L47.2862,40.0713 L46.9736,38.9941 L45.1924,37.8659 L45.1861,35.4261 L43.6099,35.4 L43.6378,33.4807 L44.3603,31.6324 L42.7663,30.0394 L42.3923,28.8936 L41.7163,28.4783 L40.9047,28.5253 L38.065,26.5871 L36.289,26.2966 L36.3978,25.7979 L35.9791,25.5935 L36.615,25.3024 L36.5598,24.8756 L35.7196,23.8044 L35.1535,23.7879 L35.5036,23.5254 L35.3086,23.1535 L34.6053,23.3756 L33.4496,21.724 L32.9599,21.5618 L33.7225,20.791 L33.783,19.9898 L33.1303,19.3747 L33.5317,19.1433 L33.5187,18.6903 L34.4519,18.878 L34.1074,18.0904 L34.2903,17.6905 L35.1425,17.2264 L35.4351,16.3879 L36.5401,16.2751 L36.3966,15.3139 L35.6711,14.4979 L35.856,13.6613 L37.3578,13.0609 L36.1191,12.8112 L34.6725,13.0261 L33.7014,12.176 L32.6809,12.1758 L32.3026,10.276 L31.5286,10.1811 L31.1529,9.66861 L31.3568,8.94459 L30.3725,8.38837 L30.6697,7.42861 L30.0441,7.02266 L30.2712,6.14296 L29.2053,5.5014 L29.3167,4.17471 L27.4863,3.33486 L28.6786,1.28546 L27.8924,1.08141 L27.825,-1.06161 L27.2534,-1.62395 L27.4145,-2.46248 L26.9084,-2.71766 L26.6165,-3.52607 L28.3498,-3.71379 L28.6737,-5 L29.8751,-5 L30.4925,-4.69444" fill-rule="evenodd" vector-effect="none"/>
   <path d="M-5,55 L-5,40.2769 L-3.7864,40.0461 L-2.96251,38.4838 L-1.41172,37.7036 L-5,34.2195 L-5,32.8034 L3.15039,30.7562 L4.05301,30.1662 L9.68579,31.0157 L17.6068,35.0043 L29.7613,43.7286 L42.4975,44.6908 L43.5876,46.8333 L47.4271,46.9883 L47.3069,47.5134 L47.6169,47.4181 L48.1586,49.0976 L48.8085,49.279 L48.5839,49.4913 L49.2296,50.1166 L49.1918,50.3805 L49.0278,50.5725 L48.9038,50.1079 L48.7472,50.6145 L49.2179,50.7631 L48.9934,51.1118 L50.8885,51.4248 L51.2276,51.873 L50.3313,51.9078 L51.0004,52.0344 L50.8125,52.4182 L51.2276,52.3546 L51.2734,53.0015 L51.6903,53.0094 L51.5161,53.2646 L52.4325,53.0552 L53.0241,54.1511 L54.3522,55 L-5,55" fill-rule="evenodd" vector-effect="none"/>
   <path d="M52.8891,52.5104 L52.2427,52.349 L51.882,52.4873 L52.2427,52.2594 L52.8891,52.5104" fill-rule="evenodd" vector-effect="none"/>
   <path d="M44.969,40.197 L45.1089,40.8212 L45.9504,42.1488 L44.9692,41.9891 L43.7576,42.977 L45.5951,43.0405 L45.8654,44.586 L46.9576,45.8583 L46.7636,46.3361 L47.1397,46.8009 L43.5876,46.8333 L42.5004,44.6914 L38.3118,44.2214 L39.803,42.601 L41.156,40.0053 L43.6157,39.5645 L44.969,40.197" fill-rule="evenodd" vector-effect="none"/>
   <path d="M46.5372,41.6689 L45.9924,41.8606 L45.3433,40.9476 L46.0291,40.4089 L45.7497,40.0687 L46.7296,40.9936 L46.5372,41.6689" fill-rule="evenodd" vector-effect="none"/>
   <path d="M46.8094,42.5683 L46.9752,42.8661 L46.38,42.6701 L46.4351,42.4778 L46.8094,42.5683" fill-rule="evenodd" vector-effect="none"/>
   <path d="M45.4208,40.0791 L45.1724,40.0817 L45.6367,39.8908 L45.6223,39.9388 L45.4208,40.0791" fill-rule="evenodd" vector-effect="none"/>
   <path d="M-5,28.2701 L2.27273,24.3578 L3.58586,28.423 L3.21905,28.5234 L3.45382,29.2046 L4.41551,29.0907 L4.67669,29.594 L3.15039,30.7562 L-5,32.8034 L-5,34.2195 L-1.41172,37.7036 L-2.96251,38.4838 L-3.7864,40.0461 L-5,40.2769 L-5,28.2701" fill-rule="evenodd" vector-effect="none"/>
  </g>
  <g fill="none" font-weight="400" transform="matrix(1,0,0,1,0,0)" stroke-linejoin="bevel" font-size="45.8333" stroke="#000000" font-family="Lato" font-style="normal" stroke-linecap="square" stroke-opacity="1" stroke-width="1"/>
  <g fill="none" font-weight="400" transform="matrix(11.811,0,0,11.811,0,0)" stroke-linejoin="bevel" font-size="45.8333" stroke="#000000" font-family="Lato" font-style="normal" stroke-linecap="square" stroke-opacity="1" stroke-width="1"/>
  <g fill="none" font-weight="400" transform="matrix(11.811,0,0,11.811,0,0)" stroke-linejoin="bevel" font-size="45.8333" stroke="#000000" font-family="Lato" font-style="normal" stroke-linecap="square" stroke-opacity="1" stroke-width="1"/>
  <g fill="none" font-weight="400" transform="matrix(11.811,0,0,11.811,0,0)" stroke-linejoin="bevel" font-size="45.8333" stroke="#000000" font-family="Lato" font-style="normal" stroke-linecap="square" stroke-opacity="1" stroke-width="1"/>
  <g fill="none" font-weight="400" transform="matrix(1,0,0,1,0,0)" stroke-linejoin="bevel" font-size="45.8333" stroke="#000000" font-family="Lato" font-style="normal" stroke-linecap="square" stroke-opacity="1" stroke-width="1"/>
  <g fill="none" font-weight="400" transform="matrix(11.811,0,0,11.811,0,0)" stroke-linejoin="bevel" font-size="45.8333" stroke="#000000" font-family="Lato" font-style="normal" stroke-linecap="square" stroke-opacity="1" stroke-width="1"/>
  <g fill="none" font-weight="400" transform="matrix(11.811,0,0,11.811,0,0)" stroke-linejoin="bevel" font-size="45.8333" stroke="#000000" font-family="Lato" font-style="normal" stroke-linecap="square" stroke-opacity="1" stroke-width="1"/>
  <g fill="none" font-weight="400" transform="matrix(11.811,0,0,11.811,0,0)" stroke-linejoin="bevel" font-size="45.8333" stroke="#000000" font-family="Lato" font-style="normal" stroke-linecap="square" stroke-opacity="1" stroke-width="1"/>
  <g fill="none" font-weight="400" transform="matrix(11.811,0,0,11.811,0,0)" stroke-linejoin="bevel" font-size="45.8333" stroke="#000000" font-family="Lato" font-style="normal" stroke-linecap="square" stroke-opacity="1" stroke-width="1"/>
  <g fill="none" font-weight="400" transform="matrix(1,0,0,1,0,0)" stroke-linejoin="bevel" font-size="45.8333" stroke="#000000" font-family="Lato" font-style="normal" stroke-linecap="square" stroke-opacity="1" stroke-width="1"/>
 </g>
</svg>
