<?xml version='1.0' encoding='UTF-8' standalone='no'?>
<svg viewBox="0 0 50 50" baseProfile="tiny" xmlns="http://www.w3.org/2000/svg" width="4.23333mm" height="4.23333mm" xmlns:xlink="http://www.w3.org/1999/xlink" version="1.2">
 <title>Qt SVG Document</title>
 <desc>Generated with Qt</desc>
 <defs/>
 <g fill="none" stroke-linejoin="bevel" stroke="black" fill-rule="evenodd" stroke-linecap="square" stroke-width="1">
  <g fill="none" font-weight="400" transform="matrix(1,0,0,1,0,0)" stroke-linejoin="bevel" font-size="45.8333" stroke="#000000" font-family="Lato" font-style="normal" stroke-linecap="square" stroke-opacity="1" stroke-width="1"/>
  <g fill="none" font-weight="400" transform="matrix(1,0,0,1,0,0)" stroke-linejoin="bevel" font-size="45.8333" stroke="#000000" font-family="Lato" font-style="normal" stroke-linecap="square" stroke-opacity="1" stroke-width="1"/>
  <g fill="none" font-weight="400" transform="matrix(11.811,0,0,11.811,0,0)" stroke-linejoin="bevel" font-size="45.8333" stroke="#000000" font-family="Lato" font-style="normal" stroke-linecap="square" stroke-opacity="1" stroke-width="1"/>
  <g fill="none" font-weight="400" transform="matrix(11.811,0,0,11.811,0,0)" stroke-linejoin="bevel" font-size="45.8333" stroke="#000000" font-family="Lato" font-style="normal" stroke-linecap="square" stroke-opacity="1" stroke-width="1"/>
  <g fill="none" font-weight="400" transform="matrix(11.811,0,0,11.811,0,0)" stroke-linejoin="bevel" font-size="45.8333" stroke="#000000" font-family="Lato" font-style="normal" stroke-linecap="square" stroke-opacity="1" stroke-width="1"/>
  <g fill="none" font-weight="400" transform="matrix(1,0,0,1,0,0)" stroke-linejoin="bevel" font-size="45.8333" stroke="#000000" font-family="Lato" font-style="normal" stroke-linecap="square" stroke-opacity="1" stroke-width="1"/>
  <g fill="#ffffff" font-weight="400" transform="matrix(1,0,0,1,0,0)" font-size="45.8333" fill-opacity="0" stroke="none" font-family="Lato" font-style="normal">
   <path d="M-2,-2 L52,-2 L52,52 L-2,52 L-2,-2" fill-rule="evenodd" vector-effect="none"/>
  </g>
  <g fill="none" font-weight="400" transform="matrix(1,0,0,1,0,0)" stroke-linejoin="bevel" font-size="45.8333" stroke="#000000" font-family="Lato" font-style="normal" stroke-linecap="square" stroke-opacity="1" stroke-width="1"/>
  <g fill="none" font-weight="400" transform="matrix(11.811,0,0,11.811,0,0)" stroke-linejoin="bevel" font-size="45.8333" stroke="#000000" font-family="Lato" font-style="normal" stroke-linecap="square" stroke-opacity="1" stroke-width="1"/>
  <g fill="none" font-weight="400" transform="matrix(11.811,0,0,11.811,0,0)" stroke-linejoin="bevel" font-size="45.8333" stroke="#000000" font-family="Lato" font-style="normal" stroke-linecap="square" stroke-opacity="1" stroke-width="1"/>
  <g fill="none" font-weight="400" transform="matrix(11.811,0,0,11.811,0,0)" stroke-linejoin="bevel" font-size="45.8333" stroke="#000000" font-family="Lato" font-style="normal" stroke-linecap="square" stroke-opacity="1" stroke-width="1"/>
  <g fill="none" font-weight="400" transform="matrix(11.811,0,0,11.811,0,0)" stroke-linejoin="bevel" font-size="45.8333" stroke="#000000" font-family="Lato" font-style="normal" stroke-linecap="square" stroke-opacity="1" stroke-width="1"/>
  <g fill="none" font-weight="400" transform="matrix(11.811,0,0,11.811,0,0)" stroke-linejoin="bevel" font-size="45.8333" stroke="#000000" font-family="Lato" font-style="normal" stroke-linecap="square" stroke-opacity="1" stroke-width="1"/>
  <g fill="none" font-weight="400" transform="matrix(11.811,0,0,11.811,0,0)" stroke-linejoin="bevel" font-size="45.8333" stroke="#000000" font-family="Lato" font-style="normal" stroke-linecap="square" stroke-opacity="1" stroke-width="1"/>
  <g fill="#000000" font-weight="400" transform="matrix(1,0,0,1,0,0)" font-size="45.8333" fill-opacity="0" stroke="none" font-family="Lato" font-style="normal">
   <rect x="0" y="0" width="50" height="50"/>
  </g>
  <g fill="none" font-weight="400" transform="matrix(1,0,0,1,0,0)" stroke-linejoin="bevel" font-size="45.8333" stroke="#000000" font-family="Lato" font-style="normal" stroke-linecap="square" stroke-opacity="1" stroke-width="1"/>
  <g fill="none" font-weight="400" transform="matrix(1,0,0,1,0,0)" font-size="45.8333" stroke="none" font-family="Lato" font-style="normal">
   <path d="M1.57269,9.96998 L2.23662,9.2614 L2.07515,9.16793 L2.57301,8.37284 L3.08139,6.51159 L3.33005,6.41624 L3.4096,5.92156 L4.2307,5.922 L4.38035,5.50417 L4.49765,5.59249 L4.96644,5.23292 L4.85315,5.52212 L5.11096,6.22937 L4.8294,6.66223 L4.40421,6.88544 L4.4051,7.43825 L3.60624,7.09948 L3.29112,7.33165 L3.11137,7.83344 L3.2788,8.46556 L3.14594,8.62798 L3.59635,8.68112 L3.67373,8.52913 L3.76174,8.81084 L3.13768,9.06601 L2.93317,9.6433 L3.55049,9.64453 L4.18409,9.36542 L4.04849,9.87022 L4.14082,10.2024 L3.49674,11.6558 L3.50812,12.3179 L3.00219,13.6847 L1.57269,9.96998" fill-rule="evenodd" vector-effect="none"/>
   <path d="M3.17011,8.31941 L3.07011,7.81941 L3.37011,7.21941 L3.67011,7.11941 L4.37011,7.41941 L4.37011,8.81941 L4.17011,9.31941 L3.57011,9.61941 L2.97011,9.61941 L3.17011,9.01941 L3.77011,8.81941 L3.67011,8.51941 L3.57011,8.71941 L3.17011,8.61941 L3.27011,8.51941 L3.17011,8.31941" fill-rule="evenodd" vector-effect="none"/>
   <path d="M2.15914,9.22147 L2.23662,9.2614 L1.57269,9.96998 L1.46894,9.74812 L2.15914,9.22147" fill-rule="evenodd" vector-effect="none"/>
   <path d="M3.47011,5.91941 L4.17011,4.11941 L4.57011,3.91941 L4.67011,3.31941 L5.27011,2.81941 L5.27011,2.51941 L5.87011,2.61941 L5.97011,2.41941 L6.27011,2.61941 L6.07011,2.81941 L6.47011,3.01941 L6.67011,3.51941 L5.97011,4.01941 L6.17011,4.31941 L5.47011,4.31941 L5.17011,4.71941 L5.47011,4.91941 L4.47011,5.61941 L4.37011,5.51941 L4.27011,5.91941 L3.47011,5.91941" fill-rule="evenodd" vector-effect="none"/>
   <path d="M4.8294,6.66223 L5.11096,6.22937 L4.84289,5.38898 L5.42854,4.88535 L5.18321,4.7289 L5.2412,4.5802 L5.65089,4.27506 L6.12391,4.33299 L5.97516,4.06815 L6.65603,3.52309 L6.48565,3.04009 L6.04273,2.84333 L6.30233,2.59466 L6.01909,2.4691 L5.91695,2.59923 L5.28753,2.55045 L5.06521,1.9584 L5.27137,1.36775 L5.1776,0.893613 L4.75562,0.538801 L5.00796,0.18197 L4.91788,-0.0385906 L5.30989,-0.205123 L5.69259,0.0199037 L5.77734,-0.258759 L6.12503,-0.349974 L6.15736,-0.854109 L6.78583,-0.85712 L6.49881,-1.3966 L6.7332,-2.14985 L7.43415,-1.98961 L7.62483,-1.70069 L8.47297,-1.73147 L10.1521,-2.32314 L10.7038,-2.20951 L11.2326,-1.86037 L12.343,-1.7899 L13.4773,-1.96441 L15.5137,-2.73762 L17.177,-2.68387 L18.3195,-2.89975 L18.7553,-3.22191 L19.0477,-3.03819 L19.1134,-2.6551 L17.9624,-1.69623 L16.9734,-1.47722 L16.7394,-1.12853 L16.6524,-0.493152 L16.9261,0.380972 L16.5762,1.27048 L16.5824,2.24129 L16.0668,3.08558 L15.4738,3.2374 L11.3394,5.30853 L7.12058,7.58483 L6.18948,7.4499 L4.8294,6.66223" fill-rule="evenodd" vector-effect="none"/>
   <path d="M49.2701,22.1194 L49.3701,23.4194 L48.7701,23.9194 L48.4701,23.7194 L48.5701,23.7194 L48.4701,23.4194 L48.0701,23.6194 L47.9701,25.0194 L48.3701,25.0194 L48.4701,25.3194 L47.3701,25.6194 L47.4701,26.0194 L46.8701,27.4194 L46.5701,28.5194 L41.0701,27.8194 L38.9701,25.3194 L38.9701,24.7194 L39.0701,25.0194 L39.3701,24.9194 L39.4701,25.5194 L39.7701,25.6194 L40.5701,25.5194 L41.1701,25.1194 L41.3701,25.2194 L42.3701,25.1194 L43.2701,25.4194 L43.9701,25.4194 L45.0701,24.9194 L45.2701,24.5194 L45.4701,24.5194 L45.0701,24.4194 L45.4701,24.4194 L45.5701,23.9194 L46.5701,23.3194 L46.9701,22.8194 L47.0701,22.9194 L46.9701,22.7194 L47.5701,22.1194 L47.6701,22.2194 L48.4701,21.6194 L48.3701,21.7194 L48.6701,21.1194 L48.8701,21.2194 L48.8701,21.9194 L49.2701,22.1194 L49.2701,22.1194 M49.0701,22.8194 L48.9701,22.9194 L49.0701,22.9194 L49.2701,22.7194 L49.0701,22.6194 L49.0701,22.8194 L49.0701,22.8194" fill-rule="evenodd" vector-effect="none"/>
   <path d="M43.3905,25.1601 L43.866,24.9376 L44.1178,25.1587 L43.7074,25.2504 L43.3905,25.1601" fill-rule="evenodd" vector-effect="none"/>
   <path d="M42.6101,24.9403 L42.4341,24.9118 L43.0004,24.7115 L42.7323,24.9643 L42.6101,24.9403" fill-rule="evenodd" vector-effect="none"/>
   <path d="M45.0036,24.4445 L45.0487,24.4033 L45.209,24.614 L44.9161,24.5532 L45.0036,24.4445" fill-rule="evenodd" vector-effect="none"/>
   <path d="M41.247,24.7401 L41.2779,24.8633 L41.1558,24.9844 L41.0826,24.8259 L41.247,24.7401" fill-rule="evenodd" vector-effect="none"/>
   <path d="M44.4831,24.9693 L44.4128,24.8886 L44.4892,24.8258 L44.6053,25.0408 L44.4831,24.9693" fill-rule="evenodd" vector-effect="none"/>
   <path d="M44.6863,24.9239 L44.5809,24.8375 L44.6641,24.7587 L44.7837,24.8775 L44.6863,24.9239" fill-rule="evenodd" vector-effect="none"/>
   <path d="M40.556,24.5048 L40.4891,24.4587 L40.5464,24.367 L40.61,24.4489 L40.556,24.5048" fill-rule="evenodd" vector-effect="none"/>
   <path d="M44.8959,24.8379 L44.8013,24.7598 L44.8238,24.7015 L44.9172,24.7457 L44.8959,24.8379" fill-rule="evenodd" vector-effect="none"/>
   <path d="M49.1315,22.7865 L49.12,22.822 L49.0769,22.8355 L49.0813,22.7666 L49.1315,22.7865" fill-rule="evenodd" vector-effect="none"/>
   <path d="M-5,-5 L23.3587,-5 L23.0701,-4.48059 L23.8701,-4.08059 L23.8701,-3.48059 L24.3701,-3.18059 L24.2701,-2.78059 L23.9701,-2.88059 L23.2701,-2.48059 L22.9701,-2.68059 L23.1701,-3.08059 L22.7701,-3.18059 L22.1701,-2.98059 L20.6701,-3.28059 L20.3701,-3.18059 L19.9701,-3.38059 L19.4701,-2.78059 L19.0701,-2.78059 L19.0701,-3.08059 L18.7701,-3.18059 L18.2701,-2.88059 L17.1701,-2.68059 L15.4701,-2.78059 L13.4701,-1.98059 L12.3701,-1.78059 L11.2701,-1.88059 L10.6701,-2.18059 L10.1701,-2.28059 L8.47011,-1.78059 L7.67011,-1.68059 L7.47011,-1.98059 L6.77011,-2.18059 L6.47011,-1.38059 L6.77011,-0.880594 L6.17011,-0.880594 L6.17011,-0.380594 L5.77011,-0.280594 L5.67011,0.0194059 L5.17011,-0.180594 L5.27011,-0.380594 L4.87011,-0.980594 L5.77011,-1.78059 L5.77011,-2.08059 L5.37011,-2.38059 L4.47011,-1.98059 L4.47011,-1.88059 L4.77011,-1.88059 L4.57011,-1.68059 L3.97011,-1.48059 L2.57011,-2.08059 L1.67011,-1.58059 L0.970108,-0.780594 L0.770108,-1.08059 L0.370108,-0.680594 L0.270108,-0.780594 L0.0701079,-0.680594 L-0.829892,-0.680594 L-1.52989,-0.380594 L-2.52989,-0.780594 L-3.22989,-1.58059 L-4.72989,-2.08059 L-5,-2.11918 L-5,-5" fill-rule="evenodd" vector-effect="none"/>
   <path d="M24.2684,-2.82705 L24.53,-2.55519 L24.4089,-2.07179 L24.8721,-1.80451 L24.7545,-1.51469 L24.9538,-1.25376 L25.2885,-1.23257 L25.4643,-0.350085 L25.9383,-0.349974 L26.3893,0.0448819 L27.0613,-0.0549192 L27.6367,0.0610508 L26.9391,0.339936 L26.8532,0.728548 L27.1902,1.10757 L27.2569,1.55405 L26.7436,1.60646 L26.6077,1.99597 L26.2118,2.21151 L26.1268,2.39729 L26.2869,2.76315 L25.8534,2.67595 L25.8594,2.88637 L25.673,2.99387 L25.9762,3.27955 L25.9481,3.65172 L25.5938,4.00978 L25.8213,4.0851 L26.3581,4.85229 L26.6848,4.74914 L26.7754,4.92187 L26.6128,5.0438 L26.8757,5.0515 L27.266,5.54905 L27.2917,5.74732 L26.9963,5.88252 L27.1908,5.97747 L27.1402,6.20914 L27.9652,6.34406 L29.2842,7.24439 L29.6613,7.22254 L29.9753,7.41545 L30.149,7.94768 L30.8894,8.68766 L30.5538,9.54617 L30.5408,10.4377 L31.273,10.4498 L31.2759,11.5831 L31.9063,11.9091 L32.2244,12.581 L32.4534,12.6993 L31.5037,12.487 L31.1797,12.5753 L31.1423,12.3935 L31.106,12.353 L31.1344,12.5969 L30.5435,12.3722 L29.5141,12.5102 L28.7725,13.7826 L28.0798,14.5353 L24.1081,14.3064 L18.4622,10.2539 L14.8991,8.43989 L12.1419,8.01347 L12.4561,7.74078 L12.3348,7.507 L11.8881,7.55991 L11.779,7.2435 L11.9494,7.19683 L11.3394,5.30853 L15.4738,3.2374 L16.0668,3.08558 L16.5824,2.24129 L16.5762,1.27048 L16.9261,0.380972 L16.6524,-0.493152 L16.7394,-1.12853 L16.9734,-1.47722 L17.9624,-1.69623 L19.0704,-2.75814 L19.5106,-2.8372 L19.8438,-3.28747 L20.7051,-3.32165 L22.2039,-2.95172 L22.8052,-3.19224 L23.1223,-3.03173 L23.0037,-2.70985 L23.2298,-2.45427 L23.9321,-2.90566 L24.2684,-2.82705" fill-rule="evenodd" vector-effect="none"/>
   <path d="M33.2229,-5 L33.2701,-4.48059 L33.6701,-3.88059 L34.3701,-3.58059 L35.9701,-3.38059 L36.2701,-2.88059 L37.7701,-1.98059 L39.6701,-1.58059 L44.1701,-2.38059 L43.3701,-2.28059 L44.2701,-2.18059 L44.2701,-2.58059 L43.9701,-3.28059 L44.6701,-3.18059 L45.5701,-3.48059 L45.8701,-3.68059 L45.9701,-4.08059 L46.6701,-4.58059 L47.8701,-4.98059 L49.1701,-4.88059 L49.1701,-5 L51.2304,-5 L51.4701,-4.58059 L53.1701,-4.18059 L53.2701,-3.98059 L53.5701,-3.88059 L54.5701,-3.98059 L55,-3.86335 L55,22.4633 L54.5701,22.1194 L53.7701,22.0194 L52.9701,22.1194 L52.7701,21.9194 L52.3701,22.0194 L52.2701,21.8194 L51.3701,21.7194 L51.0701,21.0194 L51.1701,20.8194 L50.8701,20.3194 L50.7701,19.4194 L50.4701,19.1194 L50.5701,19.0194 L50.3701,19.0194 L50.2701,18.7194 L48.7701,18.7194 L48.3701,19.0194 L47.7701,19.0194 L47.4701,19.5194 L46.9701,19.5194 L45.8701,20.1194 L45.0701,19.9194 L44.8701,19.7194 L43.5701,19.7194 L43.0701,19.4194 L42.9701,19.1194 L42.0701,18.8194 L41.1701,18.3194 L41.3701,18.1194 L40.8701,17.7194 L39.8701,17.2194 L39.1701,17.2194 L38.5701,17.0194 L37.8701,15.7194 L37.8701,15.3194 L37.2701,14.9194 L37.3701,14.7194 L37.4701,14.8194 L37.5701,14.6194 L37.3701,14.4194 L36.9701,14.4194 L36.9701,13.8194 L35.8701,12.7194 L35.7701,12.1194 L35.3701,12.1194 L34.5701,12.5194 L34.4701,12.2194 L33.9701,12.2194 L33.8701,12.0194 L33.7701,12.1194 L33.2701,11.7194 L33.8701,11.8194 L33.9701,11.6194 L33.8701,11.5194 L33.3701,11.5194 L33.4701,11.6194 L33.2701,11.7194 L33.0701,11.8194 L33.2701,12.5194 L32.2701,12.6194 L32.0701,12.1194 L31.2701,11.6194 L31.2701,10.4194 L30.5701,10.4194 L30.5701,9.51941 L30.8701,8.71941 L30.1701,7.91941 L29.9701,7.41941 L29.6701,7.21941 L29.2701,7.21941 L27.9701,6.31941 L27.1701,6.21941 L27.1701,6.01941 L26.9701,5.91941 L27.2701,5.71941 L27.2701,5.51941 L26.8701,5.01941 L26.5701,5.01941 L26.7701,4.91941 L26.6701,4.71941 L26.3701,4.81941 L25.8701,4.11941 L25.5701,4.01941 L25.9701,3.61941 L25.9701,3.31941 L25.6701,3.01941 L25.8701,2.91941 L25.8701,2.71941 L26.2701,2.71941 L26.1701,2.41941 L26.1701,2.21941 L26.5701,2.01941 L26.7701,1.61941 L27.2701,1.51941 L27.1701,1.11941 L26.8701,0.719406 L26.9701,0.319406 L27.6701,0.0194059 L27.0701,-0.0805941 L26.3701,0.0194059 L25.9701,-0.380594 L25.4701,-0.380594 L25.2701,-1.28059 L24.9701,-1.28059 L24.7701,-1.48059 L24.8701,-1.88059 L24.3701,-2.08059 L24.5701,-2.58059 L24.2701,-2.78059 L24.3701,-3.18059 L23.8701,-3.48059 L23.8701,-4.08059 L23.0701,-4.48059 L23.3587,-5 L33.2229,-5" fill-rule="evenodd" vector-effect="none"/>
   <path d="M49.0998,19.1056 L48.3951,19.713 L48.2432,19.6124 L46.9674,20.0072 L46.9658,19.7908 L48.0221,19.4958 L47.9871,19.1568 L48.2886,19.2587 L49.0998,19.1056" fill-rule="evenodd" vector-effect="none"/>
   <path d="M42.5167,19.4902 L42.3583,19.3859 L42.8601,19.4824 L42.6812,19.5092 L42.5167,19.4902" fill-rule="evenodd" vector-effect="none"/>
   <path d="M43.984,20.0584 L44.2343,20.0166 L44.3068,20.124 L44.0975,20.1526 L43.984,20.0584" fill-rule="evenodd" vector-effect="none"/>
   <path d="M49.3814,19.2884 L49.3275,19.4057 L49.2048,19.4149 L49.2455,19.318 L49.3814,19.2884" fill-rule="evenodd" vector-effect="none"/>
   <path d="M49.5994,18.8699 L49.5781,18.9447 L49.4471,18.9393 L49.4921,18.8359 L49.5994,18.8699" fill-rule="evenodd" vector-effect="none"/>
   <path d="M45.3669,20.5738 L45.3295,20.6718 L45.2558,20.6424 L45.2691,20.5306 L45.3669,20.5738" fill-rule="evenodd" vector-effect="none"/>
   <path d="M48.2274,19.8927 L48.1975,19.8256 L48.2813,19.7494 L48.3022,19.8231 L48.2274,19.8927" fill-rule="evenodd" vector-effect="none"/>
   <path d="M36.2809,14.2585 L36.2239,14.277 L36.1735,14.1616 L36.2844,14.1838 L36.2809,14.2585" fill-rule="evenodd" vector-effect="none"/>
   <path d="M43.3924,19.7927 L43.3332,19.749 L43.3504,19.7255 L43.441,19.7399 L43.3924,19.7927" fill-rule="evenodd" vector-effect="none"/>
   <path d="M45.3365,21.4399 L45.2937,21.4016 L45.3731,21.3741 L45.3875,21.4316 L45.3365,21.4399" fill-rule="evenodd" vector-effect="none"/>
   <path d="M46.4518,21.5211 L46.3912,21.5184 L46.3775,21.4709 L46.4458,21.4466 L46.4518,21.5211" fill-rule="evenodd" vector-effect="none"/>
   <path d="M37.2701,23.9194 L37.3701,23.8194 L37.1701,22.3194 L37.3701,22.3194 L37.2701,22.0194 L37.3701,21.9194 L37.4701,22.2194 L37.6701,22.0194 L37.4701,21.9194 L37.6701,21.2194 L38.2701,20.9194 L38.5701,21.3194 L38.9701,21.5194 L38.9701,21.8194 L38.7701,21.9194 L38.8701,22.0194 L38.7701,22.2194 L38.8701,22.7194 L39.0701,22.8194 L39.0701,23.3194 L38.4701,24.3194 L38.3701,24.1194 L37.6701,24.3194 L37.2701,23.9194" fill-rule="evenodd" vector-effect="none"/>
  </g>
  <g fill="none" font-weight="400" transform="matrix(1,0,0,1,0,0)" stroke-linejoin="bevel" font-size="45.8333" stroke="#ffffff" font-family="Lato" font-style="normal" stroke-linecap="square" stroke-opacity="1" stroke-width="0.11811">
   <path d="M37.6746,24.3061 L38.3002,24.1836 L38.3727,24.4152 L38.5731,24.1688 L38.7954,24.2719 L38.3218,24.867 L38.9487,24.9784 L39.0009,25.3621 L41.0831,27.8215 L46.5787,28.5069 L46.7547,28.3286 L47.7273,29.8922 L46.3049,34.1724 L39.8318,36.3298 L33.4818,37.2273 L31.5961,38.1569 L30.3598,39.6364 L30.0114,40.4379 L29.4369,40.7495 L29.0248,40.7292 L28.4632,40.0418 L27.6271,40.1526 L25.7018,39.9628 L25.13,39.7117 L22.9368,39.7625 L22.4321,39.9847 L21.3483,39.5141 L20.8135,39.9328 L21.0015,40.0492 L20.7129,40.45 L20.7005,40.8302 L20.9138,41.0744 L20.8458,41.3598 L20.6407,41.3426 L20.5356,41.6366 L20.0031,41.9934 L19.8368,41.2174 L19.0692,40.2424 L19.0828,40.5825 L18.9502,39.6573 L17.8412,38.8374 L17.2062,37.995 L17.0821,37.4641 L16.5953,36.9722 L16.6791,36.6782 L16.4362,36.4574 L16.5226,36.175 L16.2898,36.0498 L16.0223,35.2292 L15.6247,35.0069 L15.5912,34.6437 L15.4007,34.6815 L15.1373,34.2449 L14.1647,33.56 L13.7747,33.4974 L13.8559,33.6033 L13.4662,33.4055 L12.2022,31.7698 L12.0002,31.325 L12.1952,31.1327 L12.0613,30.3911 L11.6777,29.8337 L11.8383,29.8425 L12.134,28.9768 L11.9776,29.0574 L11.8541,28.1922 L11.3935,27.6918 L11.3909,27.3662 L10.6449,25.9972 L9.5286,25.2312 L9.55585,25.0844 L9.37823,25.2077 L8.43691,24.7386 L8.49574,24.579 L7.831,23.6948 L8.06403,23.6512 L8.03295,22.9951 L7.37285,21.979 L6.86798,21.6903 L6.85446,21.1674 L6.45882,20.976 L5.42151,19.2587 L3.54763,16.8796 L3.66142,16.7824 L3.30669,16.6418 L2.77355,16.7462 L2.56722,16.5975 L2.43323,16.6859 L2.47889,16.7462 L2.35965,16.8346 L2.27273,16.6564 L2.77121,15.7623 L3.08542,13.9831 L5.50236,14.3103 L6.38194,13.6747 L6.925,12.9002 L8.52494,12.5959 L8.90764,11.8701 L9.62799,11.5077 L7.423,9.36676 L11.7471,8.28065 L12.1664,8.00656 L14.7829,8.40119 L18.4622,10.2539 L24.1081,14.3064 L30.0241,14.7533 L30.5305,15.7486 L32.314,15.8205 L32.2581,16.0645 L32.4021,16.0202 L32.6538,16.8003 L32.9556,16.8846 L32.8513,16.9832 L33.1512,17.2737 L33.1337,17.3963 L33.0575,17.4855 L32.9999,17.2696 L32.9272,17.505 L33.1458,17.574 L33.0415,17.736 L33.9218,17.8814 L34.0793,18.0895 L33.663,18.1057 L33.9738,18.1645 L33.8865,18.3428 L34.0793,18.3133 L34.1006,18.6137 L34.2943,18.6174 L34.2133,18.7359 L34.639,18.6387 L34.9138,19.1477 L35.9042,19.7808 L35.5374,19.6523 L35.6283,20.1482 L36.0296,20.5165 L35.8673,21.1379 L35.6322,20.7816 L35.5407,21.2116 L35.8029,21.2672 L36.1179,22.0098 L35.8745,21.7909 L35.8831,21.8631 L36.5798,22.4299 L36.7754,23.255 L37.2035,23.9421 L37.6746,24.3061" fill-rule="evenodd" vector-effect="none"/>
   <path d="M18.6701,41.4194 L18.6701,41.5194 L18.4701,41.3194 L18.1701,41.3194 L17.7701,40.8194 L18.1701,41.2194 L18.5701,41.1194 L18.6701,41.4194 L18.6701,41.4194" fill-rule="evenodd" vector-effect="none"/>
   <path d="M17.9608,40.8943 L18.1452,40.7334 L17.9624,40.632 L18.1294,40.6533 L18.3035,41.1518 L17.9608,40.8943" fill-rule="evenodd" vector-effect="none"/>
   <path d="M6.77877,22.1805 L6.49499,22.092 L6.43072,21.9437 L6.52555,21.8566 L6.77877,22.1805" fill-rule="evenodd" vector-effect="none"/>
   <path d="M7.01689,22.2791 L6.82285,22.1791 L6.9182,22.1538 L7.24957,22.4166 L7.01689,22.2791" fill-rule="evenodd" vector-effect="none"/>
   <path d="M7.3876,22.4983 L7.294,22.5943 L7.02813,22.3022 L7.30383,22.5229 L7.3876,22.4983" fill-rule="evenodd" vector-effect="none"/>
   <path d="M34.8511,18.3856 L34.5508,18.3106 L34.3833,18.3749 L34.5508,18.269 L34.8511,18.3856" fill-rule="evenodd" vector-effect="none"/>
   <path d="M6.52309,21.6428 L6.55751,21.5686 L6.6274,21.5164 L6.65936,21.8604 L6.52309,21.6428" fill-rule="evenodd" vector-effect="none"/>
   <path d="M7.58726,22.4925 L7.39497,22.4198 L7.40639,22.3645 L7.54828,22.3857 L7.58726,22.4925" fill-rule="evenodd" vector-effect="none"/>
   <path d="M7.30453,22.0718 L7.35441,22.0935 L7.34457,22.2525 L7.29611,22.188 L7.30453,22.0718" fill-rule="evenodd" vector-effect="none"/>
   <path d="M7.14122,22.162 L7.19882,22.147 L7.2213,22.1954 L7.16475,22.2171 L7.14122,22.162" fill-rule="evenodd" vector-effect="none"/>
  </g>
  <g fill="none" font-weight="400" transform="matrix(1,0,0,1,0,0)" font-size="45.8333" stroke="none" font-family="Lato" font-style="normal">
   <path d="M31.1722,12.666 L31.2371,12.9559 L31.628,13.5726 L31.1722,13.4984 L30.6094,13.9573 L31.463,13.9868 L31.5885,14.7047 L32.0959,15.2957 L32.0058,15.5176 L32.1805,15.7335 L30.5305,15.7486 L30.0254,14.7536 L28.0798,14.5353 L28.7725,13.7826 L29.401,12.5769 L30.5435,12.3722 L31.1722,12.666" fill-rule="evenodd" vector-effect="none"/>
   <path d="M31.8701,13.3194 L31.6701,13.4194 L31.3701,13.0194 L31.6701,12.7194 L31.5701,12.6194 L31.9701,13.0194 L31.8701,13.3194" fill-rule="evenodd" vector-effect="none"/>
   <path d="M32.027,13.7674 L32.104,13.9058 L31.8276,13.8147 L31.8532,13.7254 L32.027,13.7674" fill-rule="evenodd" vector-effect="none"/>
   <path d="M31.382,12.6112 L31.2666,12.6124 L31.4823,12.5237 L31.4756,12.546 L31.382,12.6112" fill-rule="evenodd" vector-effect="none"/>
   <path d="M4.51471,6.79698 L5.12746,6.72927 L5.49544,7.15212 L7.09293,7.59292 L11.3394,5.30853 L11.9494,7.19683 L11.779,7.2435 L11.8881,7.55991 L12.3348,7.507 L12.4561,7.74078 L11.7471,8.28065 L7.423,9.36676 L9.62799,11.5077 L8.90764,11.8701 L8.52494,12.5959 L6.925,12.9002 L6.38194,13.6747 L5.38795,14.3321 L3.08542,13.9831 L3.50812,12.3179 L3.49674,11.6558 L4.14082,10.2024 L4.04849,9.87022 L4.40175,8.77475 L4.32281,8.14361 L4.51471,6.79698" fill-rule="evenodd" vector-effect="none"/>
   <path d="M1.83057,10.626 L2.95021,13.6845 L2.62622,14.0703 L2.38441,15.3116 L1.92187,16.2092 L1.97525,16.9525 L1.49883,17.3497 L1.59208,17.4855 L0.526152,16.848 L-0.627578,15.6711 L-0.737156,14.7644 L-1.736,13.7581 L-2.03207,12.5595 L-2.55029,13.4635 L-2.0247,13.9454 L-1.92917,14.8008 L-1.53774,15.2207 L-1.40393,15.6506 L0.0751967,17.1232 L0.156502,17.3502 L-0.0993554,17.2813 L0.156502,17.6623 L-0.0500102,17.6623 L0.688061,18.5342 L0.684549,18.7971 L1.02838,19.2809 L0.925129,19.4223 L0.910378,19.8053 L2.21618,21.8088 L3.50656,24.4518 L4.26024,25.2962 L4.78836,25.5672 L4.9048,25.742 L4.30361,25.5805 L4.23875,25.7086 L4.25075,26.6165 L4.37613,26.8388 L4.69499,27.8355 L5.10641,28.2593 L5.84033,28.4757 L6.30155,29.0777 L7.28457,29.7041 L7.25923,29.8561 L-4.49705,29.8569 L-4.37551,29.4731 L-4.52337,29.3571 L-4.90072,29.859 L-5,29.859 L-5,9.19565 L-4.23522,9.46958 L-3.55001,9.27053 L-3.46677,9.27203 L-3.39793,9.30214 L-2.84829,9.78954 L-3.51735,9.27817 L-3.58443,9.6624 L-3.78181,9.81201 L-3.43762,10.0227 L-3.1988,9.95847 L-3.2441,10.1499 L-3.04918,10.3111 L-2.66724,10.1316 L-2.66829,9.85381 L-2.83213,9.78954 L-2.56381,9.84055 L-1.9808,10.2947 L-1.27802,10.0909 L-1.84066,10.3134 L-1.70088,10.3426 L-1.27837,10.185 L-1.09961,10.3048 L-0.982301,10.1351 L-1.0557,10.2088 L-1.21937,10.1955 L-0.885016,10.0024 L-0.833388,10.3279 L-0.244055,10.0909 L-0.0431616,10.1499 L0.277143,10.1732 L1.46894,9.74812 L1.83057,10.626 M4.1208,27.7358 L3.65229,28.1502 L4.53484,27.3884 L4.1208,27.7358 M1.72962,29.3585 L2.11935,29.2812 L2.50863,29.204 L1.35502,29.4329 L1.72962,29.3585 M2.89675,28.3791 L2.71464,28.7684 L2.82397,28.5373 L2.89675,28.3791" fill-rule="evenodd" vector-effect="none"/>
   <path d="M-0.568398,9.95303 L-0.899766,9.93696 L-1.26187,10.107 L-0.895025,9.90772 L-0.568398,9.95303" fill-rule="evenodd" vector-effect="none"/>
   <path d="M-0.0940872,10.1204 L-0.476557,9.96707 L-0.538897,9.95847 L-0.471288,9.9604 L-0.244933,10.0282 L-0.0940872,10.1204" fill-rule="evenodd" vector-effect="none"/>
   <path d="M1.1197,18.0507 L1.14745,18.0895 L0.850321,17.9275 L0.959372,17.9051 L1.1197,18.0507" fill-rule="evenodd" vector-effect="none"/>
   <path d="M2.37563,17.0556 L2.15472,17.05 L2.09308,16.9083 L2.19089,16.882 L2.37563,17.0556" fill-rule="evenodd" vector-effect="none"/>
   <path d="M0.984132,19.5107 L1.04314,19.6367 L1.04454,19.6873 L0.93988,19.5107 L0.984132,19.5107" fill-rule="evenodd" vector-effect="none"/>
   <path d="M2.50637,17.0828 L2.50795,16.9889 L2.61608,16.9923 L2.61668,17.0747 L2.50637,17.0828" fill-rule="evenodd" vector-effect="none"/>
   <path d="M-1.17055,10.2293 L-1.15756,10.2322 L-1.14421,10.2678 L-1.18636,10.2394 L-1.17055,10.2293" fill-rule="evenodd" vector-effect="none"/>
   <path d="M40.0928,36.918 L41.4348,39.9927 L41.6076,40.059 L42.2308,41.4077 L41.0272,41.8288 L40.5097,42.2246 L40.2136,42.8287 L40.3707,43.6223 L38.5139,44.456 L36.7578,44.8469 L35.9497,45.2898 L35.4375,45.2997 L34.208,45.7074 L33.6047,45.9884 L33.4124,46.4088 L32.7481,47.0155 L31.6539,47.1762 L31.283,46.986 L29.948,47.8544 L28.4429,48.3389 L26.2097,48.5295 L25.6427,49.1161 L25.0281,49.35 L24.8995,49.7809 L24.7285,49.7372 L24.8058,49.5723 L24.496,49.6914 L24.5171,49.8503 L23.9328,49.6568 L23.5119,49.9792 L22.4994,50.1348 L21.7534,49.7933 L21.4673,49.9495 L21.4784,49.5984 L20.9458,48.6549 L21.0636,47.7092 L20.3696,46.0016 L20.5038,46.1556 L20.2063,45.2027 L20.3401,45.3587 L20.322,45.0629 L20.164,44.6574 L19.6161,44.4261 L19.7725,44.4199 L19.8368,44.1614 L20.0149,44.5001 L19.7926,43.4367 L20.1009,42.9766 L20.0031,41.9934 L20.5356,41.6366 L20.6407,41.3426 L20.8458,41.3598 L20.9138,41.0744 L20.7005,40.8302 L20.7129,40.45 L20.9938,40.0925 L20.8135,39.9328 L21.1114,39.6455 L21.5436,39.5281 L22.4321,39.9847 L22.9368,39.7625 L25.13,39.7117 L25.7018,39.9628 L27.6271,40.1526 L28.4632,40.0418 L29.0248,40.7292 L29.4369,40.7495 L30.0114,40.4379 L30.3598,39.6364 L31.5961,38.1569 L33.4818,37.2273 L39.8318,36.3298 L40.0928,36.918" fill-rule="evenodd" vector-effect="none"/>
   <path d="M45.3305,50.2229 L44.4968,50.6671 L43.6136,50.777 L42.6981,50.2527 L43.1556,49.8838 L43.8616,50.1336 L44.4513,49.9124 L45.3305,50.2229" fill-rule="evenodd" vector-effect="none"/>
   <path d="M40.7184,50.9996 L40.5913,51.1098 L40.0163,50.9172 L40.5671,51.019 L40.7184,50.9996" fill-rule="evenodd" vector-effect="none"/>
   <path d="M20.0296,47.0597 L20.0012,47.2678 L19.9267,47.2807 L19.7926,47.0812 L19.9559,46.9553 L20.0296,47.0597" fill-rule="evenodd" vector-effect="none"/>
   <path d="M20.0149,47.6061 L19.9267,47.7615 L19.7852,47.8351 L19.8516,47.665 L20.0149,47.6061" fill-rule="evenodd" vector-effect="none"/>
   <path d="M19.6201,44.0529 L19.6247,44.287 L19.526,44.3716 L19.5056,44.1038 L19.6201,44.0529" fill-rule="evenodd" vector-effect="none"/>
   <path d="M42.2237,51.1047 L42.1579,51.1485 L42.004,51.0741 L42.119,51.0362 L42.2237,51.1047" fill-rule="evenodd" vector-effect="none"/>
   <path d="M21.4262,50.0163 L21.3978,50.0612 L21.2993,49.9875 L21.383,49.9714 L21.4262,50.0163" fill-rule="evenodd" vector-effect="none"/>
   <path d="M42.679,51.1623 L42.7053,51.1848 L42.5717,51.1635 L42.6143,51.1473 L42.679,51.1623" fill-rule="evenodd" vector-effect="none"/>
   <path d="M36.8999,20.8153 L36.9555,20.901 L36.7821,21.6696 L36.5324,20.8315 L36.6012,20.692 L36.8999,20.8153" fill-rule="evenodd" vector-effect="none"/>
   <path d="M37.2905,21.7956 L37.2072,21.9322 L37.1949,22.122 L37.1703,21.8899 L37.2905,21.7956" fill-rule="evenodd" vector-effect="none"/>
   <path d="M36.9787,20.6508 L37.0389,20.7365 L37.0157,20.7782 L36.8606,20.6138 L36.9787,20.6508" fill-rule="evenodd" vector-effect="none"/>
   <path d="M36.4668,20.894 L36.4761,20.9566 L36.395,20.9496 L36.4205,20.8384 L36.4668,20.894" fill-rule="evenodd" vector-effect="none"/>
   <path d="M37.3137,21.9718 L37.3137,22.01 L37.2686,22.0128 L37.2604,21.965 L37.3137,21.9718" fill-rule="evenodd" vector-effect="none"/>
   <path d="M37.3069,21.9404 L37.2987,21.9076 L37.3315,21.909 L37.3246,21.9295 L37.3069,21.9404" fill-rule="evenodd" vector-effect="none"/>
   <path d="M37.27,21.7574 L37.2468,21.7656 L37.2359,21.7492 L37.2673,21.7437 L37.27,21.7574" fill-rule="evenodd" vector-effect="none"/>
  </g>
  <g fill="none" font-weight="400" transform="matrix(1,0,0,1,0,0)" stroke-linejoin="bevel" font-size="45.8333" stroke="#000000" font-family="Lato" font-style="normal" stroke-linecap="square" stroke-opacity="1" stroke-width="1"/>
  <g fill="none" font-weight="400" transform="matrix(11.811,0,0,11.811,0,0)" stroke-linejoin="bevel" font-size="45.8333" stroke="#000000" font-family="Lato" font-style="normal" stroke-linecap="square" stroke-opacity="1" stroke-width="1"/>
  <g fill="none" font-weight="400" transform="matrix(11.811,0,0,11.811,0,0)" stroke-linejoin="bevel" font-size="45.8333" stroke="#000000" font-family="Lato" font-style="normal" stroke-linecap="square" stroke-opacity="1" stroke-width="1"/>
  <g fill="none" font-weight="400" transform="matrix(11.811,0,0,11.811,0,0)" stroke-linejoin="bevel" font-size="45.8333" stroke="#000000" font-family="Lato" font-style="normal" stroke-linecap="square" stroke-opacity="1" stroke-width="1"/>
  <g fill="none" font-weight="400" transform="matrix(1,0,0,1,0,0)" stroke-linejoin="bevel" font-size="45.8333" stroke="#000000" font-family="Lato" font-style="normal" stroke-linecap="square" stroke-opacity="1" stroke-width="1"/>
  <g fill="none" font-weight="400" transform="matrix(11.811,0,0,11.811,0,0)" stroke-linejoin="bevel" font-size="45.8333" stroke="#000000" font-family="Lato" font-style="normal" stroke-linecap="square" stroke-opacity="1" stroke-width="1"/>
  <g fill="none" font-weight="400" transform="matrix(11.811,0,0,11.811,0,0)" stroke-linejoin="bevel" font-size="45.8333" stroke="#000000" font-family="Lato" font-style="normal" stroke-linecap="square" stroke-opacity="1" stroke-width="1"/>
  <g fill="none" font-weight="400" transform="matrix(11.811,0,0,11.811,0,0)" stroke-linejoin="bevel" font-size="45.8333" stroke="#000000" font-family="Lato" font-style="normal" stroke-linecap="square" stroke-opacity="1" stroke-width="1"/>
  <g fill="none" font-weight="400" transform="matrix(11.811,0,0,11.811,0,0)" stroke-linejoin="bevel" font-size="45.8333" stroke="#000000" font-family="Lato" font-style="normal" stroke-linecap="square" stroke-opacity="1" stroke-width="1"/>
  <g fill="none" font-weight="400" transform="matrix(1,0,0,1,0,0)" stroke-linejoin="bevel" font-size="45.8333" stroke="#000000" font-family="Lato" font-style="normal" stroke-linecap="square" stroke-opacity="1" stroke-width="1"/>
 </g>
</svg>
