<?xml version='1.0' encoding='UTF-8' standalone='no'?>
<svg viewBox="0 0 50 50" baseProfile="tiny" xmlns="http://www.w3.org/2000/svg" width="4.23333mm" height="4.23333mm" xmlns:xlink="http://www.w3.org/1999/xlink" version="1.2">
 <title>Qt SVG Document</title>
 <desc>Generated with Qt</desc>
 <defs/>
 <g fill="none" stroke-linejoin="bevel" stroke="black" fill-rule="evenodd" stroke-linecap="square" stroke-width="1">
  <g fill="none" font-weight="400" transform="matrix(1,0,0,1,0,0)" stroke-linejoin="bevel" font-size="45.8333" stroke="#000000" font-family="Lato" font-style="normal" stroke-linecap="square" stroke-opacity="1" stroke-width="1"/>
  <g fill="none" font-weight="400" transform="matrix(1,0,0,1,0,0)" stroke-linejoin="bevel" font-size="45.8333" stroke="#000000" font-family="Lato" font-style="normal" stroke-linecap="square" stroke-opacity="1" stroke-width="1"/>
  <g fill="none" font-weight="400" transform="matrix(11.811,0,0,11.811,0,0)" stroke-linejoin="bevel" font-size="45.8333" stroke="#000000" font-family="Lato" font-style="normal" stroke-linecap="square" stroke-opacity="1" stroke-width="1"/>
  <g fill="none" font-weight="400" transform="matrix(11.811,0,0,11.811,0,0)" stroke-linejoin="bevel" font-size="45.8333" stroke="#000000" font-family="Lato" font-style="normal" stroke-linecap="square" stroke-opacity="1" stroke-width="1"/>
  <g fill="none" font-weight="400" transform="matrix(11.811,0,0,11.811,0,0)" stroke-linejoin="bevel" font-size="45.8333" stroke="#000000" font-family="Lato" font-style="normal" stroke-linecap="square" stroke-opacity="1" stroke-width="1"/>
  <g fill="none" font-weight="400" transform="matrix(1,0,0,1,0,0)" stroke-linejoin="bevel" font-size="45.8333" stroke="#000000" font-family="Lato" font-style="normal" stroke-linecap="square" stroke-opacity="1" stroke-width="1"/>
  <g fill="#ffffff" font-weight="400" transform="matrix(1,0,0,1,0,0)" font-size="45.8333" fill-opacity="0" stroke="none" font-family="Lato" font-style="normal">
   <path d="M-2,-2 L52,-2 L52,52 L-2,52 L-2,-2" fill-rule="evenodd" vector-effect="none"/>
  </g>
  <g fill="none" font-weight="400" transform="matrix(1,0,0,1,0,0)" stroke-linejoin="bevel" font-size="45.8333" stroke="#000000" font-family="Lato" font-style="normal" stroke-linecap="square" stroke-opacity="1" stroke-width="1"/>
  <g fill="none" font-weight="400" transform="matrix(11.811,0,0,11.811,0,0)" stroke-linejoin="bevel" font-size="45.8333" stroke="#000000" font-family="Lato" font-style="normal" stroke-linecap="square" stroke-opacity="1" stroke-width="1"/>
  <g fill="none" font-weight="400" transform="matrix(11.811,0,0,11.811,0,0)" stroke-linejoin="bevel" font-size="45.8333" stroke="#000000" font-family="Lato" font-style="normal" stroke-linecap="square" stroke-opacity="1" stroke-width="1"/>
  <g fill="none" font-weight="400" transform="matrix(11.811,0,0,11.811,0,0)" stroke-linejoin="bevel" font-size="45.8333" stroke="#000000" font-family="Lato" font-style="normal" stroke-linecap="square" stroke-opacity="1" stroke-width="1"/>
  <g fill="none" font-weight="400" transform="matrix(11.811,0,0,11.811,0,0)" stroke-linejoin="bevel" font-size="45.8333" stroke="#000000" font-family="Lato" font-style="normal" stroke-linecap="square" stroke-opacity="1" stroke-width="1"/>
  <g fill="none" font-weight="400" transform="matrix(11.811,0,0,11.811,0,0)" stroke-linejoin="bevel" font-size="45.8333" stroke="#000000" font-family="Lato" font-style="normal" stroke-linecap="square" stroke-opacity="1" stroke-width="1"/>
  <g fill="none" font-weight="400" transform="matrix(11.811,0,0,11.811,0,0)" stroke-linejoin="bevel" font-size="45.8333" stroke="#000000" font-family="Lato" font-style="normal" stroke-linecap="square" stroke-opacity="1" stroke-width="1"/>
  <g fill="#000000" font-weight="400" transform="matrix(1,0,0,1,0,0)" font-size="45.8333" fill-opacity="0" stroke="none" font-family="Lato" font-style="normal">
   <rect x="0" y="0" width="50" height="50"/>
  </g>
  <g fill="none" font-weight="400" transform="matrix(1,0,0,1,0,0)" stroke-linejoin="bevel" font-size="45.8333" stroke="#000000" font-family="Lato" font-style="normal" stroke-linecap="square" stroke-opacity="1" stroke-width="1"/>
  <g fill="none" font-weight="400" transform="matrix(1,0,0,1,0,0)" font-size="45.8333" stroke="none" font-family="Lato" font-style="normal">
   <path d="M-5,25.6567 L-1.84454,22.2889 L-2.62777,21.8356 L-0.212793,17.9788 L2.25321,8.95042 L3.45938,8.48789 L3.84525,6.08833 L7.82818,6.09047 L8.55407,4.06371 L9.12309,4.49211 L11.397,2.74797 L10.8475,4.1508 L12.0981,7.58147 L10.7323,9.68111 L8.66982,10.7639 L8.67415,13.4454 L4.79912,11.8021 L3.27053,12.9283 L2.3986,15.3623 L3.2108,18.4286 L2.56631,19.2164 L4.75115,19.4742 L5.12646,18.7369 L5.55339,20.1034 L2.52625,21.3412 L1.53424,24.1415 L4.52867,24.1474 L7.60208,22.7935 L6.94434,25.2422 L7.39221,26.8535 L4.26796,33.9037 L4.32313,37.115 L1.86904,43.7453 L-5,25.8952 L-5,25.6567" fill-rule="evenodd" vector-effect="none"/>
   <path d="M2.77987,17.6944 L2.36524,15.5206 L3.47608,12.6246 L4.98628,11.7924 L8.67415,13.4454 L8.65792,19.9284 L7.60424,22.7941 L4.52867,24.1474 L1.53424,24.1415 L2.52625,21.3412 L5.55339,20.1034 L5.12646,18.7369 L4.75115,19.4742 L2.56631,19.2164 L3.16178,18.926 L2.77987,17.6944" fill-rule="evenodd" vector-effect="none"/>
   <path d="M-2.22037,22.0953 L-1.84454,22.2889 L-5,25.6567 L-5,24.2162 L-2.22037,22.0953" fill-rule="evenodd" vector-effect="none"/>
   <path d="M3.90402,6.07342 L7.72697,-2.43705 L9.51067,-3.45582 L9.63112,-5 L18.9108,-5 L16.29,-2.90203 L17.1382,-1.75585 L13.7976,-1.54058 L12.4486,0.303089 L13.6385,1.06198 L9.12309,4.49211 L8.55407,4.06371 L7.82818,6.09047 L3.90402,6.07342" fill-rule="evenodd" vector-effect="none"/>
   <path d="M10.7323,9.68111 L12.0981,7.58147 L10.7977,3.50496 L13.6385,1.06198 L12.4486,0.303089 L12.7298,-0.418203 L14.7171,-1.89838 L17.0116,-1.61738 L16.29,-2.90203 L18.9108,-5 L55,-5 L55,-3.24211 L42.3107,3.1147 L21.8462,14.1564 L17.3297,13.5019 L10.7323,9.68111" fill-rule="evenodd" vector-effect="none"/>
   <path d="M55,17.5961 L46.203,16.2356 L47.7273,14.9129 L47.1388,13.7789 L44.9719,14.0355 L44.4429,12.5007 L45.2694,12.2743 L42.3107,3.1147 L55,-3.24211 L55,17.5961" fill-rule="evenodd" vector-effect="none"/>
   <path d="M55,55 L0.0924529,55 L0.74861,53.8231 L2.27273,45.1924 L13.9966,46.7798 L18.2633,43.6964 L20.8975,39.9396 L28.6583,38.4635 L30.5147,34.9433 L34.0089,33.1853 L23.3131,22.8 L44.2882,17.5316 L46.322,16.2021 L55,17.511 L55,55" fill-rule="evenodd" vector-effect="none"/>
  </g>
  <g fill="none" font-weight="400" transform="matrix(1,0,0,1,0,0)" stroke-linejoin="bevel" font-size="45.8333" stroke="#ffffff" font-family="Lato" font-style="normal" stroke-linecap="square" stroke-opacity="1" stroke-width="0.11811">
   <path d="M9.20584,10.3347 L12.1781,10.0063 L13.9631,12.0574 L21.712,14.1956 L42.3107,3.1147 L45.2694,12.2743 L44.4429,12.5007 L44.9719,14.0355 L47.1388,13.7789 L47.7273,14.9129 L44.2882,17.5316 L23.3131,22.8 L34.0089,33.1853 L30.5147,34.9433 L28.6583,38.4635 L20.8975,39.9396 L18.2633,43.6964 L13.4417,46.8853 L2.27273,45.1924 L4.32313,37.115 L4.26796,33.9037 L7.39221,26.8535 L6.94434,25.2422 L8.65792,19.9284 L8.27496,16.8669 L9.20584,10.3347" fill-rule="evenodd" vector-effect="none"/>
  </g>
  <g fill="none" font-weight="400" transform="matrix(1,0,0,1,0,0)" font-size="45.8333" stroke="none" font-family="Lato" font-style="normal">
   <path d="M-3.8142,28.9084 L1.6169,43.7441 L0.0453064,45.6155 L-1.12764,51.637 L-2.86064,55 L-5,55 L-5,26.0296 L-3.8142,28.9084" fill-rule="evenodd" vector-effect="none"/>
  </g>
  <g fill="none" font-weight="400" transform="matrix(1,0,0,1,0,0)" stroke-linejoin="bevel" font-size="45.8333" stroke="#000000" font-family="Lato" font-style="normal" stroke-linecap="square" stroke-opacity="1" stroke-width="1"/>
  <g fill="none" font-weight="400" transform="matrix(11.811,0,0,11.811,0,0)" stroke-linejoin="bevel" font-size="45.8333" stroke="#000000" font-family="Lato" font-style="normal" stroke-linecap="square" stroke-opacity="1" stroke-width="1"/>
  <g fill="none" font-weight="400" transform="matrix(11.811,0,0,11.811,0,0)" stroke-linejoin="bevel" font-size="45.8333" stroke="#000000" font-family="Lato" font-style="normal" stroke-linecap="square" stroke-opacity="1" stroke-width="1"/>
  <g fill="none" font-weight="400" transform="matrix(11.811,0,0,11.811,0,0)" stroke-linejoin="bevel" font-size="45.8333" stroke="#000000" font-family="Lato" font-style="normal" stroke-linecap="square" stroke-opacity="1" stroke-width="1"/>
  <g fill="none" font-weight="400" transform="matrix(1,0,0,1,0,0)" stroke-linejoin="bevel" font-size="45.8333" stroke="#000000" font-family="Lato" font-style="normal" stroke-linecap="square" stroke-opacity="1" stroke-width="1"/>
  <g fill="none" font-weight="400" transform="matrix(11.811,0,0,11.811,0,0)" stroke-linejoin="bevel" font-size="45.8333" stroke="#000000" font-family="Lato" font-style="normal" stroke-linecap="square" stroke-opacity="1" stroke-width="1"/>
  <g fill="none" font-weight="400" transform="matrix(11.811,0,0,11.811,0,0)" stroke-linejoin="bevel" font-size="45.8333" stroke="#000000" font-family="Lato" font-style="normal" stroke-linecap="square" stroke-opacity="1" stroke-width="1"/>
  <g fill="none" font-weight="400" transform="matrix(11.811,0,0,11.811,0,0)" stroke-linejoin="bevel" font-size="45.8333" stroke="#000000" font-family="Lato" font-style="normal" stroke-linecap="square" stroke-opacity="1" stroke-width="1"/>
  <g fill="none" font-weight="400" transform="matrix(11.811,0,0,11.811,0,0)" stroke-linejoin="bevel" font-size="45.8333" stroke="#000000" font-family="Lato" font-style="normal" stroke-linecap="square" stroke-opacity="1" stroke-width="1"/>
  <g fill="none" font-weight="400" transform="matrix(1,0,0,1,0,0)" stroke-linejoin="bevel" font-size="45.8333" stroke="#000000" font-family="Lato" font-style="normal" stroke-linecap="square" stroke-opacity="1" stroke-width="1"/>
 </g>
</svg>
