<?xml version='1.0' encoding='UTF-8' standalone='no'?>
<svg viewBox="0 0 50 50" baseProfile="tiny" xmlns="http://www.w3.org/2000/svg" width="4.23333mm" height="4.23333mm" xmlns:xlink="http://www.w3.org/1999/xlink" version="1.2">
 <title>Qt SVG Document</title>
 <desc>Generated with Qt</desc>
 <defs/>
 <g fill="none" stroke-linejoin="bevel" stroke="black" fill-rule="evenodd" stroke-linecap="square" stroke-width="1">
  <g fill="none" font-weight="400" transform="matrix(1,0,0,1,0,0)" stroke-linejoin="bevel" font-size="45.8333" stroke="#000000" font-family="Lato" font-style="normal" stroke-linecap="square" stroke-opacity="1" stroke-width="1"/>
  <g fill="none" font-weight="400" transform="matrix(1,0,0,1,0,0)" stroke-linejoin="bevel" font-size="45.8333" stroke="#000000" font-family="Lato" font-style="normal" stroke-linecap="square" stroke-opacity="1" stroke-width="1"/>
  <g fill="none" font-weight="400" transform="matrix(11.811,0,0,11.811,0,0)" stroke-linejoin="bevel" font-size="45.8333" stroke="#000000" font-family="Lato" font-style="normal" stroke-linecap="square" stroke-opacity="1" stroke-width="1"/>
  <g fill="none" font-weight="400" transform="matrix(11.811,0,0,11.811,0,0)" stroke-linejoin="bevel" font-size="45.8333" stroke="#000000" font-family="Lato" font-style="normal" stroke-linecap="square" stroke-opacity="1" stroke-width="1"/>
  <g fill="none" font-weight="400" transform="matrix(11.811,0,0,11.811,0,0)" stroke-linejoin="bevel" font-size="45.8333" stroke="#000000" font-family="Lato" font-style="normal" stroke-linecap="square" stroke-opacity="1" stroke-width="1"/>
  <g fill="none" font-weight="400" transform="matrix(1,0,0,1,0,0)" stroke-linejoin="bevel" font-size="45.8333" stroke="#000000" font-family="Lato" font-style="normal" stroke-linecap="square" stroke-opacity="1" stroke-width="1"/>
  <g fill="#ffffff" font-weight="400" transform="matrix(1,0,0,1,0,0)" font-size="45.8333" fill-opacity="0" stroke="none" font-family="Lato" font-style="normal">
   <path d="M-2,-2 L52,-2 L52,52 L-2,52 L-2,-2" fill-rule="evenodd" vector-effect="none"/>
  </g>
  <g fill="none" font-weight="400" transform="matrix(1,0,0,1,0,0)" stroke-linejoin="bevel" font-size="45.8333" stroke="#000000" font-family="Lato" font-style="normal" stroke-linecap="square" stroke-opacity="1" stroke-width="1"/>
  <g fill="none" font-weight="400" transform="matrix(11.811,0,0,11.811,0,0)" stroke-linejoin="bevel" font-size="45.8333" stroke="#000000" font-family="Lato" font-style="normal" stroke-linecap="square" stroke-opacity="1" stroke-width="1"/>
  <g fill="none" font-weight="400" transform="matrix(11.811,0,0,11.811,0,0)" stroke-linejoin="bevel" font-size="45.8333" stroke="#000000" font-family="Lato" font-style="normal" stroke-linecap="square" stroke-opacity="1" stroke-width="1"/>
  <g fill="none" font-weight="400" transform="matrix(11.811,0,0,11.811,0,0)" stroke-linejoin="bevel" font-size="45.8333" stroke="#000000" font-family="Lato" font-style="normal" stroke-linecap="square" stroke-opacity="1" stroke-width="1"/>
  <g fill="none" font-weight="400" transform="matrix(11.811,0,0,11.811,0,0)" stroke-linejoin="bevel" font-size="45.8333" stroke="#000000" font-family="Lato" font-style="normal" stroke-linecap="square" stroke-opacity="1" stroke-width="1"/>
  <g fill="none" font-weight="400" transform="matrix(11.811,0,0,11.811,0,0)" stroke-linejoin="bevel" font-size="45.8333" stroke="#000000" font-family="Lato" font-style="normal" stroke-linecap="square" stroke-opacity="1" stroke-width="1"/>
  <g fill="none" font-weight="400" transform="matrix(11.811,0,0,11.811,0,0)" stroke-linejoin="bevel" font-size="45.8333" stroke="#000000" font-family="Lato" font-style="normal" stroke-linecap="square" stroke-opacity="1" stroke-width="1"/>
  <g fill="#000000" font-weight="400" transform="matrix(1,0,0,1,0,0)" font-size="45.8333" fill-opacity="0" stroke="none" font-family="Lato" font-style="normal">
   <rect x="0" y="0" width="50" height="50"/>
  </g>
  <g fill="none" font-weight="400" transform="matrix(1,0,0,1,0,0)" stroke-linejoin="bevel" font-size="45.8333" stroke="#000000" font-family="Lato" font-style="normal" stroke-linecap="square" stroke-opacity="1" stroke-width="1"/>
  <g fill="none" font-weight="400" transform="matrix(1,0,0,1,0,0)" stroke-linejoin="bevel" font-size="45.8333" stroke="#ffffff" font-family="Lato" font-style="normal" stroke-linecap="square" stroke-opacity="1" stroke-width="0.11811">
   <path d="M15.4855,27.749 L19.0561,23.9382 L18.1877,23.4355 L20.8653,19.1594 L23.5994,9.14951 L24.9367,8.63669 L25.3645,5.97625 L29.7804,5.97862 L30.5852,3.73152 L31.2161,4.20649 L33.7373,2.27273 L33.128,3.82807 L34.5145,7.63172 L33.0003,9.95963 L30.7136,11.1601 L30.7184,14.1332 L26.4221,12.3112 L24.7273,13.5598 L23.7606,16.2585 L24.6611,19.6581 L23.9465,20.5316 L26.3689,20.8174 L26.785,20 L27.2583,21.515 L23.9021,22.8874 L22.8022,25.9921 L26.1222,25.9987 L29.5298,24.4976 L28.8005,27.2125 L29.2971,28.999 L25.8332,36.8156 L25.8943,40.3761 L23.1734,47.7273 L15.4855,27.749" fill-rule="evenodd" vector-effect="none"/>
  </g>
  <g fill="none" font-weight="400" transform="matrix(1,0,0,1,0,0)" font-size="45.8333" stroke="none" font-family="Lato" font-style="normal">
   <path d="M24.1833,18.8441 L23.7236,16.434 L24.9552,13.2231 L26.6296,12.3004 L30.7184,14.1332 L30.7004,21.321 L29.5322,24.4982 L26.1222,25.9987 L22.8022,25.9921 L23.9021,22.8874 L27.2583,21.515 L26.785,20 L26.3689,20.8174 L23.9465,20.5316 L24.6067,20.2096 L24.1833,18.8441" fill-rule="evenodd" vector-effect="none"/>
   <path d="M18.6394,23.7235 L19.0561,23.9382 L15.4855,27.749 L14.9275,26.5558 L18.6394,23.7235" fill-rule="evenodd" vector-effect="none"/>
   <path d="M25.4297,5.95972 L29.6682,-3.476 L31.6458,-4.60553 L31.6766,-5 L40.422,-5 L39.1623,-3.99152 L40.1026,-2.72074 L36.3988,-2.48206 L34.9031,-0.437954 L36.2225,0.403437 L31.2161,4.20649 L30.5852,3.73152 L29.7804,5.97862 L25.4297,5.95972" fill-rule="evenodd" vector-effect="none"/>
   <path d="M33.0003,9.95963 L34.5145,7.63172 L33.0728,3.11202 L36.2225,0.403437 L34.9031,-0.437954 L35.215,-1.23766 L37.4183,-2.87877 L39.9623,-2.56722 L39.1623,-3.99152 L40.422,-5 L55,-5 L55,9.69992 L45.3225,14.9215 L40.3149,14.1958 L33.0003,9.95963" fill-rule="evenodd" vector-effect="none"/>
   <path d="M55,55 L22.62,55 L23.621,49.3317 L36.6195,51.0917 L41.35,47.673 L44.2706,43.5078 L52.8752,41.8712 L54.9334,37.9683 L55,37.9348 L55,32.3222 L46.9489,24.5048 L55,22.4826 L55,55" fill-rule="evenodd" vector-effect="none"/>
   <path d="M31.3079,10.6843 L34.6033,10.3202 L36.5823,12.5943 L45.1737,14.965 L55,9.67897 L55,22.4826 L46.9489,24.5048 L55,32.3222 L55,37.9348 L54.9334,37.9683 L52.8752,41.8712 L44.2706,43.5078 L41.35,47.673 L36.0042,51.2086 L23.621,49.3317 L25.8943,40.3761 L25.8332,36.8156 L29.2971,28.999 L28.8005,27.2125 L30.7004,21.321 L30.2758,17.9266 L31.3079,10.6843" fill-rule="evenodd" vector-effect="none"/>
   <path d="M16.8723,31.2773 L22.8939,47.7259 L21.1514,49.8008 L20.1386,55 L3.24008,55 L3.06291,53.5341 L-2.30897,48.1216 L-3.90127,41.6754 L-5,43.5921 L-5,48.0854 L-3.8616,49.1293 L-3.34783,53.7295 L-2.16346,55 L-5,55 L-5,28.4246 L-3.62549,29.4952 L0.154084,28.3992 L-2.87184,29.5958 L-2.12008,29.753 L0.152196,28.9054 L1.11362,29.5495 L1.74449,28.6372 L1.34972,29.0334 L0.469522,28.9621 L2.2677,27.9232 L2.54536,29.6742 L5.71484,28.3992 L6.79526,28.7165 L8.51789,28.8421 L14.9275,26.5558 L16.8723,31.2773" fill-rule="evenodd" vector-effect="none"/>
   <path d="M3.9705,27.6578 L2.18837,27.5714 L0.240971,28.4861 L2.21387,27.4142 L3.9705,27.6578" fill-rule="evenodd" vector-effect="none"/>
   <path d="M6.52138,28.5579 L4.46443,27.7334 L4.12916,27.6871 L4.49276,27.6975 L5.71012,28.062 L6.52138,28.5579" fill-rule="evenodd" vector-effect="none"/>
   <path d="M0.732071,29.1439 L0.801958,29.1595 L0.873734,29.3507 L0.647073,29.1982 L0.732071,29.1439" fill-rule="evenodd" vector-effect="none"/>
  </g>
  <g fill="none" font-weight="400" transform="matrix(1,0,0,1,0,0)" stroke-linejoin="bevel" font-size="45.8333" stroke="#000000" font-family="Lato" font-style="normal" stroke-linecap="square" stroke-opacity="1" stroke-width="1"/>
  <g fill="none" font-weight="400" transform="matrix(11.811,0,0,11.811,0,0)" stroke-linejoin="bevel" font-size="45.8333" stroke="#000000" font-family="Lato" font-style="normal" stroke-linecap="square" stroke-opacity="1" stroke-width="1"/>
  <g fill="none" font-weight="400" transform="matrix(11.811,0,0,11.811,0,0)" stroke-linejoin="bevel" font-size="45.8333" stroke="#000000" font-family="Lato" font-style="normal" stroke-linecap="square" stroke-opacity="1" stroke-width="1"/>
  <g fill="none" font-weight="400" transform="matrix(11.811,0,0,11.811,0,0)" stroke-linejoin="bevel" font-size="45.8333" stroke="#000000" font-family="Lato" font-style="normal" stroke-linecap="square" stroke-opacity="1" stroke-width="1"/>
  <g fill="none" font-weight="400" transform="matrix(1,0,0,1,0,0)" stroke-linejoin="bevel" font-size="45.8333" stroke="#000000" font-family="Lato" font-style="normal" stroke-linecap="square" stroke-opacity="1" stroke-width="1"/>
  <g fill="none" font-weight="400" transform="matrix(11.811,0,0,11.811,0,0)" stroke-linejoin="bevel" font-size="45.8333" stroke="#000000" font-family="Lato" font-style="normal" stroke-linecap="square" stroke-opacity="1" stroke-width="1"/>
  <g fill="none" font-weight="400" transform="matrix(11.811,0,0,11.811,0,0)" stroke-linejoin="bevel" font-size="45.8333" stroke="#000000" font-family="Lato" font-style="normal" stroke-linecap="square" stroke-opacity="1" stroke-width="1"/>
  <g fill="none" font-weight="400" transform="matrix(11.811,0,0,11.811,0,0)" stroke-linejoin="bevel" font-size="45.8333" stroke="#000000" font-family="Lato" font-style="normal" stroke-linecap="square" stroke-opacity="1" stroke-width="1"/>
  <g fill="none" font-weight="400" transform="matrix(11.811,0,0,11.811,0,0)" stroke-linejoin="bevel" font-size="45.8333" stroke="#000000" font-family="Lato" font-style="normal" stroke-linecap="square" stroke-opacity="1" stroke-width="1"/>
  <g fill="none" font-weight="400" transform="matrix(1,0,0,1,0,0)" stroke-linejoin="bevel" font-size="45.8333" stroke="#000000" font-family="Lato" font-style="normal" stroke-linecap="square" stroke-opacity="1" stroke-width="1"/>
 </g>
</svg>
