<?xml version='1.0' encoding='UTF-8' standalone='no'?>
<svg viewBox="0 0 50 50" baseProfile="tiny" xmlns="http://www.w3.org/2000/svg" width="4.23333mm" height="4.23333mm" xmlns:xlink="http://www.w3.org/1999/xlink" version="1.2">
 <title>Qt SVG Document</title>
 <desc>Generated with Qt</desc>
 <defs/>
 <g fill="none" stroke-linejoin="bevel" stroke="black" fill-rule="evenodd" stroke-linecap="square" stroke-width="1">
  <g fill="none" font-weight="400" transform="matrix(1,0,0,1,0,0)" stroke-linejoin="bevel" font-size="45.8333" stroke="#000000" font-family="Lato" font-style="normal" stroke-linecap="square" stroke-opacity="1" stroke-width="1"/>
  <g fill="none" font-weight="400" transform="matrix(1,0,0,1,0,0)" stroke-linejoin="bevel" font-size="45.8333" stroke="#000000" font-family="Lato" font-style="normal" stroke-linecap="square" stroke-opacity="1" stroke-width="1"/>
  <g fill="none" font-weight="400" transform="matrix(11.811,0,0,11.811,0,0)" stroke-linejoin="bevel" font-size="45.8333" stroke="#000000" font-family="Lato" font-style="normal" stroke-linecap="square" stroke-opacity="1" stroke-width="1"/>
  <g fill="none" font-weight="400" transform="matrix(11.811,0,0,11.811,0,0)" stroke-linejoin="bevel" font-size="45.8333" stroke="#000000" font-family="Lato" font-style="normal" stroke-linecap="square" stroke-opacity="1" stroke-width="1"/>
  <g fill="none" font-weight="400" transform="matrix(11.811,0,0,11.811,0,0)" stroke-linejoin="bevel" font-size="45.8333" stroke="#000000" font-family="Lato" font-style="normal" stroke-linecap="square" stroke-opacity="1" stroke-width="1"/>
  <g fill="none" font-weight="400" transform="matrix(1,0,0,1,0,0)" stroke-linejoin="bevel" font-size="45.8333" stroke="#000000" font-family="Lato" font-style="normal" stroke-linecap="square" stroke-opacity="1" stroke-width="1"/>
  <g fill="#ffffff" font-weight="400" transform="matrix(1,0,0,1,0,0)" font-size="45.8333" fill-opacity="0" stroke="none" font-family="Lato" font-style="normal">
   <path d="M-2,-2 L52,-2 L52,52 L-2,52 L-2,-2" fill-rule="evenodd" vector-effect="none"/>
  </g>
  <g fill="none" font-weight="400" transform="matrix(1,0,0,1,0,0)" stroke-linejoin="bevel" font-size="45.8333" stroke="#000000" font-family="Lato" font-style="normal" stroke-linecap="square" stroke-opacity="1" stroke-width="1"/>
  <g fill="none" font-weight="400" transform="matrix(11.811,0,0,11.811,0,0)" stroke-linejoin="bevel" font-size="45.8333" stroke="#000000" font-family="Lato" font-style="normal" stroke-linecap="square" stroke-opacity="1" stroke-width="1"/>
  <g fill="none" font-weight="400" transform="matrix(11.811,0,0,11.811,0,0)" stroke-linejoin="bevel" font-size="45.8333" stroke="#000000" font-family="Lato" font-style="normal" stroke-linecap="square" stroke-opacity="1" stroke-width="1"/>
  <g fill="none" font-weight="400" transform="matrix(11.811,0,0,11.811,0,0)" stroke-linejoin="bevel" font-size="45.8333" stroke="#000000" font-family="Lato" font-style="normal" stroke-linecap="square" stroke-opacity="1" stroke-width="1"/>
  <g fill="none" font-weight="400" transform="matrix(11.811,0,0,11.811,0,0)" stroke-linejoin="bevel" font-size="45.8333" stroke="#000000" font-family="Lato" font-style="normal" stroke-linecap="square" stroke-opacity="1" stroke-width="1"/>
  <g fill="none" font-weight="400" transform="matrix(11.811,0,0,11.811,0,0)" stroke-linejoin="bevel" font-size="45.8333" stroke="#000000" font-family="Lato" font-style="normal" stroke-linecap="square" stroke-opacity="1" stroke-width="1"/>
  <g fill="none" font-weight="400" transform="matrix(11.811,0,0,11.811,0,0)" stroke-linejoin="bevel" font-size="45.8333" stroke="#000000" font-family="Lato" font-style="normal" stroke-linecap="square" stroke-opacity="1" stroke-width="1"/>
  <g fill="#000000" font-weight="400" transform="matrix(1,0,0,1,0,0)" font-size="45.8333" fill-opacity="0" stroke="none" font-family="Lato" font-style="normal">
   <rect x="0" y="0" width="50" height="50"/>
  </g>
  <g fill="none" font-weight="400" transform="matrix(1,0,0,1,0,0)" stroke-linejoin="bevel" font-size="45.8333" stroke="#000000" font-family="Lato" font-style="normal" stroke-linecap="square" stroke-opacity="1" stroke-width="1"/>
  <g fill="none" font-weight="400" transform="matrix(1,0,0,1,0,0)" stroke-linejoin="bevel" font-size="45.8333" stroke="#ffffff" font-family="Lato" font-style="normal" stroke-linecap="square" stroke-opacity="1" stroke-width="0.11811">
   <path d="M47.3931,13.1666 L47.7273,18.9835 L45.0389,21.3269 L43.7678,20.1599 L44.378,20.0907 L43.8969,19.0445 L42.2005,19.8549 L41.7899,26.0587 L43.4687,26.1496 L44.0807,27.4688 L38.9622,28.5861 L39.7337,30.4131 L36.7779,36.5509 L35.7796,41.2604 L11.5432,38.279 L2.27273,27.2743 L2.41676,24.5963 L2.8017,26.0914 L4.17362,25.7588 L4.45694,28.2313 L5.58558,28.5712 L9.48656,28.1666 L11.9386,26.2554 L12.7054,26.9055 L17.2839,26.6264 L21.2981,27.7924 L24.035,27.6242 L29.2224,25.4739 L29.7744,24.0092 L30.6144,24.0092 L29.1285,23.1754 L30.6844,23.4276 L31.2665,21.1549 L35.4192,18.6181 L37.3123,16.3112 L37.7519,16.8713 L37.514,16.0999 L39.8537,13.3037 L40.5658,13.7036 L43.72,10.9852 L43.5068,11.4298 L43.65,11.4729 L44.8332,8.73956 L45.8368,9.17957 L45.5278,12.5445 L47.3931,13.1666 M46.4177,16.1475 L46.0652,16.6882 L46.487,16.7185 L47.4038,15.9958 L46.5666,15.6453 L46.4177,16.1475" fill-rule="evenodd" vector-effect="none"/>
   <path d="M21.6591,26.611 L23.744,25.6356 L24.848,26.6049 L23.0488,27.0068 L21.6591,26.611" fill-rule="evenodd" vector-effect="none"/>
   <path d="M18.238,25.6473 L17.4664,25.5224 L19.9492,24.6444 L18.7736,25.7525 L18.238,25.6473" fill-rule="evenodd" vector-effect="none"/>
   <path d="M28.7313,23.4734 L28.9291,23.2929 L29.632,24.2167 L28.3479,23.9503 L28.7313,23.4734" fill-rule="evenodd" vector-effect="none"/>
   <path d="M12.2621,24.7695 L12.3975,25.3096 L11.8618,25.8407 L11.541,25.1459 L12.2621,24.7695" fill-rule="evenodd" vector-effect="none"/>
   <path d="M26.4493,25.7742 L26.1414,25.4208 L26.4763,25.1452 L26.9852,26.0879 L26.4493,25.7742" fill-rule="evenodd" vector-effect="none"/>
   <path d="M27.3401,25.5755 L26.8782,25.1968 L27.2431,24.8511 L27.7674,25.3719 L27.3401,25.5755" fill-rule="evenodd" vector-effect="none"/>
   <path d="M9.23258,23.7379 L8.93918,23.5358 L9.19016,23.1339 L9.46919,23.4928 L9.23258,23.7379" fill-rule="evenodd" vector-effect="none"/>
   <path d="M28.2593,25.1983 L27.8444,24.8557 L27.9429,24.6001 L28.3525,24.7941 L28.2593,25.1983" fill-rule="evenodd" vector-effect="none"/>
   <path d="M46.8287,16.2049 L46.7781,16.3605 L46.5893,16.4197 L46.6087,16.1174 L46.8287,16.2049" fill-rule="evenodd" vector-effect="none"/>
  </g>
  <g fill="none" font-weight="400" transform="matrix(1,0,0,1,0,0)" font-size="45.8333" stroke="none" font-family="Lato" font-style="normal">
   <path d="M55,-5 L55,6.66309 L54.3213,5.38776 L53.797,1.26659 L52.857,0.281142 L53.3089,-0.171547 L52.2888,-0.255464 L51.753,-1.46341 L45.2714,-1.6628 L43.5268,-0.395582 L40.94,-0.0999481 L39.5766,1.89481 L37.203,1.81936 L32.6638,4.62635 L28.8644,3.5924 L28.0953,2.55306 L22.4945,2.61388 L20.3704,1.23502 L19.9215,0.0871327 L15.9913,-1.12774 L11.9486,-3.48203 L12.5992,-4.38741 L11.8985,-5 L55,-5" fill-rule="evenodd" vector-effect="none"/>
   <path d="M46.6895,0.0671158 L43.5999,2.73013 L42.934,2.28899 L37.3408,4.01968 L37.3339,3.07119 L41.9647,1.77779 L41.8115,0.291536 L43.1334,0.738451 L46.6895,0.0671158" fill-rule="evenodd" vector-effect="none"/>
   <path d="M17.8282,1.75315 L17.1338,1.29584 L19.3341,1.71928 L18.5496,1.83668 L17.8282,1.75315" fill-rule="evenodd" vector-effect="none"/>
   <path d="M24.2613,4.24448 L25.3584,4.06125 L25.6764,4.53203 L24.7587,4.65714 L24.2613,4.24448" fill-rule="evenodd" vector-effect="none"/>
   <path d="M47.9244,0.868561 L47.688,1.38284 L47.1499,1.42326 L47.3285,0.998286 L47.9244,0.868561" fill-rule="evenodd" vector-effect="none"/>
   <path d="M48.8798,-0.966063 L48.7866,-0.638094 L48.2123,-0.661961 L48.4094,-1.11542 L48.8798,-0.966063" fill-rule="evenodd" vector-effect="none"/>
   <path d="M30.3241,6.50408 L30.1602,6.93368 L29.8368,6.80472 L29.8953,6.31469 L30.3241,6.50408" fill-rule="evenodd" vector-effect="none"/>
   <path d="M42.8647,3.51772 L42.7338,3.22362 L43.1011,2.8895 L43.1927,3.21285 L42.8647,3.51772" fill-rule="evenodd" vector-effect="none"/>
   <path d="M21.6676,3.07966 L21.4082,2.88796 L21.4836,2.78479 L21.8809,2.84792 L21.6676,3.07966" fill-rule="evenodd" vector-effect="none"/>
   <path d="M30.1909,10.3011 L30.0031,10.1329 L30.3511,10.0124 L30.4142,10.2646 L30.1909,10.3011" fill-rule="evenodd" vector-effect="none"/>
   <path d="M35.0805,10.6568 L34.8148,10.6453 L34.7548,10.437 L35.0543,10.3304 L35.0805,10.6568" fill-rule="evenodd" vector-effect="none"/>
   <path d="M-5,21.1571 L-4.52833,20.7111 L-5,17.676 L-5,14.2555 L-4.64612,14.3561 L-5,13.5751 L-5,12.9079 L-4.55143,12.6204 L-4.15879,13.7425 L-3.41277,12.6647 L-4.26426,12.3359 L-3.34964,9.49353 L-0.823668,7.80248 L0.474349,9.62903 L2.26278,10.4443 L2.38211,12.0426 L1.57836,12.2766 L1.99794,12.8063 L1.26425,13.8449 L1.7077,15.9671 L2.54764,16.3639 L2.57997,18.5658 L0.0216597,22.8463 L-0.569608,21.9656 L-3.40016,22.8668 L-5,21.193 L-5,21.1571" fill-rule="evenodd" vector-effect="none"/>
   <path d="M-3.40016,22.8668 L-0.657374,22.3297 L-0.339414,23.3452 L0.539019,22.2651 L1.51369,22.717 L-0.562679,25.3261 L2.18579,25.8142 L2.4145,27.4967 L11.5432,38.279 L35.6369,41.2839 L36.4083,40.5022 L40.6723,47.3572 L38.1324,55 L-5,55 L-5,21.6307 L-3.40016,22.8668" fill-rule="evenodd" vector-effect="none"/>
  </g>
  <g fill="none" font-weight="400" transform="matrix(1,0,0,1,0,0)" stroke-linejoin="bevel" font-size="45.8333" stroke="#000000" font-family="Lato" font-style="normal" stroke-linecap="square" stroke-opacity="1" stroke-width="1"/>
  <g fill="none" font-weight="400" transform="matrix(11.811,0,0,11.811,0,0)" stroke-linejoin="bevel" font-size="45.8333" stroke="#000000" font-family="Lato" font-style="normal" stroke-linecap="square" stroke-opacity="1" stroke-width="1"/>
  <g fill="none" font-weight="400" transform="matrix(11.811,0,0,11.811,0,0)" stroke-linejoin="bevel" font-size="45.8333" stroke="#000000" font-family="Lato" font-style="normal" stroke-linecap="square" stroke-opacity="1" stroke-width="1"/>
  <g fill="none" font-weight="400" transform="matrix(11.811,0,0,11.811,0,0)" stroke-linejoin="bevel" font-size="45.8333" stroke="#000000" font-family="Lato" font-style="normal" stroke-linecap="square" stroke-opacity="1" stroke-width="1"/>
  <g fill="none" font-weight="400" transform="matrix(1,0,0,1,0,0)" stroke-linejoin="bevel" font-size="45.8333" stroke="#000000" font-family="Lato" font-style="normal" stroke-linecap="square" stroke-opacity="1" stroke-width="1"/>
  <g fill="none" font-weight="400" transform="matrix(11.811,0,0,11.811,0,0)" stroke-linejoin="bevel" font-size="45.8333" stroke="#000000" font-family="Lato" font-style="normal" stroke-linecap="square" stroke-opacity="1" stroke-width="1"/>
  <g fill="none" font-weight="400" transform="matrix(11.811,0,0,11.811,0,0)" stroke-linejoin="bevel" font-size="45.8333" stroke="#000000" font-family="Lato" font-style="normal" stroke-linecap="square" stroke-opacity="1" stroke-width="1"/>
  <g fill="none" font-weight="400" transform="matrix(11.811,0,0,11.811,0,0)" stroke-linejoin="bevel" font-size="45.8333" stroke="#000000" font-family="Lato" font-style="normal" stroke-linecap="square" stroke-opacity="1" stroke-width="1"/>
  <g fill="none" font-weight="400" transform="matrix(11.811,0,0,11.811,0,0)" stroke-linejoin="bevel" font-size="45.8333" stroke="#000000" font-family="Lato" font-style="normal" stroke-linecap="square" stroke-opacity="1" stroke-width="1"/>
  <g fill="none" font-weight="400" transform="matrix(1,0,0,1,0,0)" stroke-linejoin="bevel" font-size="45.8333" stroke="#000000" font-family="Lato" font-style="normal" stroke-linecap="square" stroke-opacity="1" stroke-width="1"/>
 </g>
</svg>
