<?xml version='1.0' encoding='UTF-8' standalone='no'?>
<svg viewBox="0 0 50 50" baseProfile="tiny" xmlns="http://www.w3.org/2000/svg" width="4.23333mm" height="4.23333mm" xmlns:xlink="http://www.w3.org/1999/xlink" version="1.2">
 <title>Qt SVG Document</title>
 <desc>Generated with Qt</desc>
 <defs/>
 <g fill="none" stroke-linejoin="bevel" stroke="black" fill-rule="evenodd" stroke-linecap="square" stroke-width="1">
  <g fill="none" font-weight="400" transform="matrix(1,0,0,1,0,0)" stroke-linejoin="bevel" font-size="45.8333" stroke="#000000" font-family="Lato" font-style="normal" stroke-linecap="square" stroke-opacity="1" stroke-width="1"/>
  <g fill="none" font-weight="400" transform="matrix(1,0,0,1,0,0)" stroke-linejoin="bevel" font-size="45.8333" stroke="#000000" font-family="Lato" font-style="normal" stroke-linecap="square" stroke-opacity="1" stroke-width="1"/>
  <g fill="none" font-weight="400" transform="matrix(11.811,0,0,11.811,0,0)" stroke-linejoin="bevel" font-size="45.8333" stroke="#000000" font-family="Lato" font-style="normal" stroke-linecap="square" stroke-opacity="1" stroke-width="1"/>
  <g fill="none" font-weight="400" transform="matrix(11.811,0,0,11.811,0,0)" stroke-linejoin="bevel" font-size="45.8333" stroke="#000000" font-family="Lato" font-style="normal" stroke-linecap="square" stroke-opacity="1" stroke-width="1"/>
  <g fill="none" font-weight="400" transform="matrix(11.811,0,0,11.811,0,0)" stroke-linejoin="bevel" font-size="45.8333" stroke="#000000" font-family="Lato" font-style="normal" stroke-linecap="square" stroke-opacity="1" stroke-width="1"/>
  <g fill="none" font-weight="400" transform="matrix(1,0,0,1,0,0)" stroke-linejoin="bevel" font-size="45.8333" stroke="#000000" font-family="Lato" font-style="normal" stroke-linecap="square" stroke-opacity="1" stroke-width="1"/>
  <g fill="#ffffff" font-weight="400" transform="matrix(1,0,0,1,0,0)" font-size="45.8333" fill-opacity="0" stroke="none" font-family="Lato" font-style="normal">
   <path d="M-2,-2 L52,-2 L52,52 L-2,52 L-2,-2" fill-rule="evenodd" vector-effect="none"/>
  </g>
  <g fill="none" font-weight="400" transform="matrix(1,0,0,1,0,0)" stroke-linejoin="bevel" font-size="45.8333" stroke="#000000" font-family="Lato" font-style="normal" stroke-linecap="square" stroke-opacity="1" stroke-width="1"/>
  <g fill="none" font-weight="400" transform="matrix(11.811,0,0,11.811,0,0)" stroke-linejoin="bevel" font-size="45.8333" stroke="#000000" font-family="Lato" font-style="normal" stroke-linecap="square" stroke-opacity="1" stroke-width="1"/>
  <g fill="none" font-weight="400" transform="matrix(11.811,0,0,11.811,0,0)" stroke-linejoin="bevel" font-size="45.8333" stroke="#000000" font-family="Lato" font-style="normal" stroke-linecap="square" stroke-opacity="1" stroke-width="1"/>
  <g fill="none" font-weight="400" transform="matrix(11.811,0,0,11.811,0,0)" stroke-linejoin="bevel" font-size="45.8333" stroke="#000000" font-family="Lato" font-style="normal" stroke-linecap="square" stroke-opacity="1" stroke-width="1"/>
  <g fill="none" font-weight="400" transform="matrix(11.811,0,0,11.811,0,0)" stroke-linejoin="bevel" font-size="45.8333" stroke="#000000" font-family="Lato" font-style="normal" stroke-linecap="square" stroke-opacity="1" stroke-width="1"/>
  <g fill="none" font-weight="400" transform="matrix(11.811,0,0,11.811,0,0)" stroke-linejoin="bevel" font-size="45.8333" stroke="#000000" font-family="Lato" font-style="normal" stroke-linecap="square" stroke-opacity="1" stroke-width="1"/>
  <g fill="none" font-weight="400" transform="matrix(11.811,0,0,11.811,0,0)" stroke-linejoin="bevel" font-size="45.8333" stroke="#000000" font-family="Lato" font-style="normal" stroke-linecap="square" stroke-opacity="1" stroke-width="1"/>
  <g fill="#000000" font-weight="400" transform="matrix(1,0,0,1,0,0)" font-size="45.8333" fill-opacity="0" stroke="none" font-family="Lato" font-style="normal">
   <rect x="0" y="0" width="50" height="50"/>
  </g>
  <g fill="none" font-weight="400" transform="matrix(1,0,0,1,0,0)" stroke-linejoin="bevel" font-size="45.8333" stroke="#000000" font-family="Lato" font-style="normal" stroke-linecap="square" stroke-opacity="1" stroke-width="1"/>
  <g fill="none" font-weight="400" transform="matrix(1,0,0,1,0,0)" font-size="45.8333" stroke="none" font-family="Lato" font-style="normal">
   <path d="M31.312,41.0572 L31.3952,42.5049 L30.7261,43.0882 L30.4097,42.7978 L30.5616,42.7805 L30.4418,42.5202 L30.0196,42.7218 L29.9174,44.2659 L30.3353,44.2885 L30.4876,44.6169 L29.2136,44.895 L29.4056,45.3497 L28.67,46.8773 L28.4215,48.0495 L22.3893,47.3074 L20.082,44.5684 L20.1178,43.9019 L20.2136,44.274 L20.5551,44.1913 L20.6256,44.8066 L20.9065,44.8912 L21.8774,44.7905 L22.4877,44.3149 L22.6786,44.4767 L23.8181,44.4072 L24.8172,44.6974 L25.4984,44.6555 L26.7895,44.1204 L26.9269,43.7558 L27.1359,43.7558 L26.7661,43.5483 L27.1534,43.611 L27.2982,43.0454 L28.3318,42.414 L28.803,41.8398 L28.9124,41.9792 L28.8532,41.7872 L29.4355,41.0913 L29.6128,41.1908 L30.3978,40.5142 L30.3447,40.6249 L30.3804,40.6356 L30.6749,39.9553 L30.9247,40.0648 L30.8478,40.9023 L31.312,41.0572 M31.0693,41.7991 L30.9815,41.9337 L31.0865,41.9412 L31.3147,41.7614 L31.1063,41.6741 L31.0693,41.7991" fill-rule="evenodd" vector-effect="none"/>
   <path d="M24.9071,44.4034 L25.426,44.1606 L25.7007,44.4018 L25.2529,44.5019 L24.9071,44.4034" fill-rule="evenodd" vector-effect="none"/>
   <path d="M24.0556,44.1635 L23.8635,44.1324 L24.4815,43.9139 L24.1889,44.1897 L24.0556,44.1635" fill-rule="evenodd" vector-effect="none"/>
   <path d="M26.6673,43.6224 L26.7165,43.5775 L26.8914,43.8075 L26.5718,43.7412 L26.6673,43.6224" fill-rule="evenodd" vector-effect="none"/>
   <path d="M22.5682,43.945 L22.6019,44.0795 L22.4686,44.2117 L22.3888,44.0387 L22.5682,43.945" fill-rule="evenodd" vector-effect="none"/>
   <path d="M26.0993,44.1951 L26.0227,44.1071 L26.106,44.0385 L26.2327,44.2732 L26.0993,44.1951" fill-rule="evenodd" vector-effect="none"/>
   <path d="M26.321,44.1457 L26.206,44.0514 L26.2969,43.9653 L26.4273,44.095 L26.321,44.1457" fill-rule="evenodd" vector-effect="none"/>
   <path d="M21.8142,43.6883 L21.7412,43.638 L21.8037,43.5379 L21.8731,43.6273 L21.8142,43.6883" fill-rule="evenodd" vector-effect="none"/>
   <path d="M26.5498,44.0518 L26.4465,43.9665 L26.471,43.9029 L26.573,43.9512 L26.5498,44.0518" fill-rule="evenodd" vector-effect="none"/>
   <path d="M31.1715,41.8134 L31.1589,41.8521 L31.112,41.8668 L31.1168,41.7916 L31.1715,41.8134" fill-rule="evenodd" vector-effect="none"/>
   <path d="M0.936366,4.61807 L1.33637,4.91807 L1.53637,5.31807 L1.53637,5.71807 L1.23637,6.01807 L1.53637,6.71807 L1.43637,6.91807 L2.33637,7.11807 L3.03637,7.01807 L4.13637,8.01807 L3.53637,7.71807 L3.33637,7.81807 L3.13637,8.51807 L2.23637,8.61807 L2.43637,9.01807 L2.63637,9.11807 L2.63637,9.61807 L2.83637,9.81807 L2.93637,10.9181 L3.33637,11.0181 L2.73637,12.1181 L3.63637,12.5181 L3.53637,13.1181 L4.13637,13.5181 L4.03637,13.8181 L3.63637,13.8181 L2.93637,14.3181 L2.63637,14.0181 L2.83637,13.6181 L2.43637,13.4181 L1.83637,13.7181 L0.136366,13.3181 L-0.263634,13.4181 L-0.663634,13.3181 L-1.16363,13.8181 L-1.66363,13.9181 L-1.66363,13.6181 L-1.96363,13.4181 L-2.46363,13.8181 L-3.66363,14.0181 L-5,13.9438 L-5,4.29685 L-3.86363,3.91807 L-3.56363,3.61807 L-2.86363,3.81807 L-2.56363,3.61807 L-1.36363,3.71807 L-0.963634,3.41807 L-0.563634,3.41807 L-0.663634,3.61807 L0.336366,4.11807 L0.136366,4.21807 L0.436366,4.31807 L0.836366,4.31807 L0.936366,4.61807" fill-rule="evenodd" vector-effect="none"/>
   <path d="M4.04165,13.8646 L4.32711,14.1612 L4.19497,14.6887 L4.70041,14.9803 L4.57204,15.2966 L4.78948,15.5813 L5.15475,15.6044 L5.34651,16.5674 L5.86375,16.5675 L6.35593,16.9983 L7.08915,16.8894 L7.717,17.016 L6.9558,17.3203 L6.86211,17.7443 L7.22981,18.1579 L7.30257,18.6451 L6.7425,18.7023 L6.59418,19.1273 L6.16223,19.3625 L6.06951,19.5652 L6.24411,19.9644 L5.77116,19.8693 L5.77773,20.0989 L5.57429,20.2162 L5.90512,20.5279 L5.87446,20.934 L5.4879,21.3247 L5.73612,21.4069 L6.32186,22.244 L6.67838,22.1315 L6.77718,22.32 L6.59977,22.453 L6.88669,22.4614 L7.31255,23.0043 L7.34054,23.2207 L7.01822,23.3682 L7.23042,23.4718 L7.1753,23.7246 L8.07546,23.8718 L9.51477,24.8542 L9.92615,24.8304 L10.2688,25.0409 L10.4584,25.6217 L11.2663,26.4291 L10.9001,27.3659 L10.8859,28.3387 L11.6849,28.3519 L11.688,29.5885 L12.3759,29.9442 L12.723,30.6774 L12.9728,30.8065 L11.9366,30.5748 L11.5831,30.6712 L11.5422,30.4728 L11.5026,30.4286 L11.5336,30.6948 L10.8889,30.4495 L9.76554,30.6002 L8.9564,31.9886 L8.20054,32.8099 L3.86668,32.5601 L-2.2939,28.1382 L-5,26.7605 L-5,20.3399 L-4.90775,20.3163 L-4.34511,19.395 L-4.35193,18.3357 L-3.97011,17.3651 L-4.2687,16.4113 L-4.17379,15.7179 L-3.91852,15.3375 L-2.83925,15.0985 L-1.63028,13.9398 L-1.1499,13.8535 L-0.786332,13.3622 L0.153494,13.3249 L1.78894,13.7285 L2.44502,13.4661 L2.79107,13.6412 L2.6616,13.9925 L2.90836,14.2713 L3.67468,13.7788 L4.04165,13.8646" fill-rule="evenodd" vector-effect="none"/>
  </g>
  <g fill="none" font-weight="400" transform="matrix(1,0,0,1,0,0)" stroke-linejoin="bevel" font-size="45.8333" stroke="#ffffff" font-family="Lato" font-style="normal" stroke-linecap="square" stroke-opacity="1" stroke-width="0.11811">
   <path d="M4.23637,8.01807 L4.93637,9.01807 L5.33637,9.01807 L5.63637,9.51807 L7.23637,9.81807 L8.23637,9.71807 L9.53637,8.71807 L11.6364,7.81807 L12.4364,8.61807 L11.9364,8.81807 L12.3364,9.51807 L11.8364,9.61807 L11.6364,9.81807 L12.4364,10.4181 L12.6364,10.4181 L13.1364,10.9181 L13.7364,10.8181 L13.8364,12.1181 L14.3364,12.7181 L15.0364,13.0181 L16.8364,13.3181 L17.1364,13.8181 L18.7364,14.7181 L20.8364,15.2181 L25.8364,14.3181 L24.8364,14.5181 L25.8364,14.6181 L25.8364,14.1181 L25.5364,13.4181 L26.2364,13.4181 L27.3364,13.1181 L27.6364,12.9181 L27.7364,12.4181 L28.4364,11.9181 L29.8364,11.5181 L31.2364,11.6181 L31.2364,11.4181 L31.5364,11.2181 L32.9364,11.4181 L33.2364,11.2181 L33.6364,11.9181 L35.5364,12.3181 L35.7364,12.6181 L36.0364,12.7181 L37.1364,12.5181 L38.3364,12.9181 L38.6364,13.7181 L39.9364,14.1181 L40.7364,15.0181 L42.6364,15.0181 L42.6364,15.7181 L42.8364,16.2181 L42.5364,16.6181 L42.8364,16.8181 L42.9364,17.6181 L42.7364,18.2181 L42.5364,18.2181 L42.6364,18.6181 L42.4364,19.3181 L42.1364,19.7181 L41.5364,20.0181 L42.0364,20.5181 L41.4364,20.5181 L41.0364,20.9181 L41.1364,22.1181 L42.0364,22.4181 L41.2364,23.2181 L41.2364,23.5181 L41.8364,25.4181 L41.7364,25.9181 L41.8364,27.1181 L43.8364,27.4181 L44.2364,28.3181 L44.1364,28.7181 L41.9364,31.0181 L43.0364,32.1181 L43.6364,33.3181 L44.3364,34.1181 L45.4364,34.4181 L45.9364,34.8181 L46.4364,34.8181 L46.5364,36.6181 L46.3364,37.1181 L46.7364,37.2181 L47.4364,37.1181 L47.7364,37.5181 L47.5364,37.6181 L47.6364,38.0181 L47.4364,38.1181 L47.3364,38.6181 L45.6364,38.8181 L45.3364,38.9181 L45.2364,39.2181 L44.9364,39.2181 L44.2364,39.6181 L44.0364,40.5181 L43.8364,40.6181 L43.7364,41.8181 L43.2364,42.3181 L41.4364,41.8181 L41.2364,41.4181 L40.8364,41.5181 L41.0364,41.8181 L40.6364,41.5181 L39.6364,41.7181 L38.6364,41.3181 L37.6364,41.5181 L37.1364,41.1181 L36.2364,41.0181 L35.3364,41.1181 L35.1364,40.8181 L34.6364,40.9181 L34.6364,40.7181 L33.5364,40.6181 L33.2364,39.9181 L33.3364,39.7181 L33.0364,39.1181 L32.9364,38.1181 L32.6364,37.8181 L32.7364,37.7181 L32.5364,37.7181 L32.4364,37.4181 L30.7364,37.3181 L30.3364,37.7181 L29.7364,37.7181 L29.3364,38.2181 L28.7364,38.2181 L27.6364,38.9181 L26.7364,38.7181 L26.5364,38.4181 L25.1364,38.4181 L24.5364,38.1181 L24.4364,37.8181 L23.5364,37.5181 L22.5364,36.9181 L22.6364,36.7181 L22.1364,36.2181 L21.1364,35.8181 L20.3364,35.8181 L19.6364,35.5181 L18.9364,34.1181 L18.8364,33.6181 L18.2364,33.2181 L18.3364,33.0181 L18.4364,33.1181 L18.5364,32.9181 L18.3364,32.7181 L17.8364,32.7181 L17.9364,32.0181 L16.7364,30.8181 L16.5364,30.2181 L16.1364,30.2181 L15.2364,30.6181 L15.1364,30.3181 L14.6364,30.3181 L14.5364,30.0181 L14.4364,30.1181 L13.8364,29.8181 L14.5364,29.8181 L14.6364,29.6181 L14.5364,29.5181 L13.9364,29.4181 L14.1364,29.6181 L13.8364,29.7181 L13.7364,29.8181 L13.8364,30.6181 L12.7364,30.7181 L12.6364,30.1181 L11.7364,29.6181 L11.6364,28.3181 L10.8364,28.3181 L10.9364,27.3181 L11.2364,26.4181 L10.4364,25.6181 L10.2364,25.0181 L9.93637,24.8181 L9.53637,24.8181 L8.03637,23.9181 L7.13637,23.7181 L7.23637,23.5181 L7.03637,23.4181 L7.33637,23.2181 L7.33637,23.0181 L6.93637,22.4181 L6.63637,22.4181 L6.73637,22.3181 L6.63637,22.1181 L6.33637,22.2181 L5.73637,21.4181 L5.53637,21.3181 L5.83637,20.9181 L5.93637,20.5181 L5.53637,20.2181 L5.73637,20.1181 L5.73637,19.9181 L6.23637,19.9181 L6.03637,19.5181 L6.13637,19.3181 L6.63637,19.1181 L6.73637,18.7181 L7.33637,18.6181 L7.23637,18.1181 L6.83637,17.7181 L6.93637,17.3181 L7.73637,17.0181 L7.13637,16.9181 L6.33637,17.0181 L5.83637,16.5181 L5.33637,16.5181 L5.13637,15.6181 L4.73637,15.5181 L4.53637,15.3181 L4.63637,14.9181 L4.13637,14.6181 L4.33637,14.1181 L4.03637,13.9181 L4.13637,13.5181 L3.53637,13.2181 L3.63637,12.5181 L2.73637,12.1181 L3.33637,11.0181 L2.93637,10.9181 L2.83637,9.81807 L2.63637,9.61807 L2.63637,9.11807 L2.43637,9.01807 L2.23637,8.61807 L3.13637,8.51807 L3.33637,7.81807 L3.53637,7.71807 L4.23637,8.01807 L4.23637,8.01807" fill-rule="evenodd" vector-effect="none"/>
   <path d="M31.1369,37.7968 L30.3679,38.4596 L30.2022,38.3498 L28.8101,38.7806 L28.8084,38.5445 L29.9609,38.2226 L29.9228,37.8527 L30.2518,37.9639 L31.1369,37.7968" fill-rule="evenodd" vector-effect="none"/>
   <path d="M23.9536,38.2165 L23.7808,38.1027 L24.3284,38.2081 L24.1331,38.2373 L23.9536,38.2165" fill-rule="evenodd" vector-effect="none"/>
   <path d="M25.5547,38.8366 L25.8278,38.7909 L25.9069,38.9081 L25.6785,38.9393 L25.5547,38.8366" fill-rule="evenodd" vector-effect="none"/>
   <path d="M31.4442,37.9963 L31.3854,38.1243 L31.2515,38.1344 L31.2959,38.0286 L31.4442,37.9963" fill-rule="evenodd" vector-effect="none"/>
   <path d="M31.682,37.5397 L31.6588,37.6213 L31.5159,37.6154 L31.565,37.5025 L31.682,37.5397" fill-rule="evenodd" vector-effect="none"/>
   <path d="M27.0637,39.3989 L27.0229,39.5059 L26.9424,39.4738 L26.957,39.3518 L27.0637,39.3989" fill-rule="evenodd" vector-effect="none"/>
   <path d="M30.1849,38.6557 L30.1524,38.5825 L30.2438,38.4993 L30.2666,38.5798 L30.1849,38.6557" fill-rule="evenodd" vector-effect="none"/>
   <path d="M17.1493,32.5079 L17.0872,32.5281 L17.0322,32.4021 L17.1531,32.4263 L17.1493,32.5079" fill-rule="evenodd" vector-effect="none"/>
   <path d="M24.9092,38.5466 L24.8446,38.4989 L24.8634,38.4732 L24.9623,38.489 L24.9092,38.5466" fill-rule="evenodd" vector-effect="none"/>
   <path d="M27.0306,40.344 L26.9838,40.3021 L27.0704,40.2721 L27.0861,40.3349 L27.0306,40.344" fill-rule="evenodd" vector-effect="none"/>
   <path d="M28.2475,40.4325 L28.1814,40.4296 L28.1665,40.3778 L28.241,40.3513 L28.2475,40.4325" fill-rule="evenodd" vector-effect="none"/>
  </g>
  <g fill="none" font-weight="400" transform="matrix(1,0,0,1,0,0)" font-size="45.8333" stroke="none" font-family="Lato" font-style="normal">
   <path d="M18.2364,43.0181 L18.4364,42.9181 L18.1364,41.3181 L18.3364,41.3181 L18.2364,41.0181 L18.3364,40.9181 L18.4364,41.2181 L18.6364,40.9181 L18.4364,40.8181 L18.6364,40.1181 L19.3364,39.7181 L19.6364,40.2181 L20.0364,40.4181 L20.1364,40.8181 L19.9364,40.8181 L20.0364,40.9181 L19.8364,41.2181 L19.9364,41.7181 L20.1364,41.8181 L20.1364,42.4181 L19.5364,43.4181 L19.3364,43.2181 L18.6364,43.5181 L18.2364,43.0181" fill-rule="evenodd" vector-effect="none"/>
   <path d="M18.67,43.4715 L19.3527,43.3378 L19.4318,43.5905 L19.6505,43.3217 L19.8931,43.4342 L19.3763,44.0836 L20.0603,44.2051 L20.1173,44.6238 L22.3893,47.3074 L28.386,48.0553 L28.578,47.8608 L29.6393,49.5669 L28.0872,54.2373 L25.7988,55 L-5,55 L-5,26.7755 L-2.2939,28.1382 L3.86668,32.5601 L10.3221,33.0478 L10.8746,34.1337 L12.8207,34.2123 L12.7598,34.4784 L12.9169,34.4302 L13.1915,35.2814 L13.5209,35.3734 L13.407,35.481 L13.7343,35.7979 L13.7152,35.9317 L13.632,36.029 L13.5692,35.7935 L13.4898,36.0503 L13.7284,36.1256 L13.6146,36.3023 L14.5751,36.461 L14.747,36.6882 L14.2927,36.7058 L14.6319,36.77 L14.5366,36.9645 L14.747,36.9323 L14.7702,37.2601 L14.9816,37.2642 L14.8932,37.3935 L15.3577,37.2873 L15.6576,37.8428 L16.7383,38.5336 L16.338,38.3933 L16.4373,38.9345 L16.8751,39.3364 L16.6981,40.0144 L16.4415,39.6256 L16.3416,40.0949 L16.6277,40.1555 L16.9715,40.9658 L16.7059,40.7269 L16.7153,40.8058 L17.4754,41.4242 L17.6889,42.3245 L18.1561,43.0743 L18.67,43.4715" fill-rule="evenodd" vector-effect="none"/>
   <path d="M15.5892,37.0112 L15.2615,36.9294 L15.0787,36.9995 L15.2615,36.884 L15.5892,37.0112" fill-rule="evenodd" vector-effect="none"/>
   <path d="M11.5748,30.7701 L11.6457,31.0865 L12.0722,31.7594 L11.5749,31.6784 L10.9608,32.1791 L11.8921,32.2114 L12.0291,32.9947 L12.5827,33.6395 L12.4844,33.8817 L12.6751,34.1173 L10.8746,34.1337 L10.3235,33.0481 L8.20054,32.8099 L8.9564,31.9886 L9.64216,30.6729 L10.8889,30.4495 L11.5748,30.7701" fill-rule="evenodd" vector-effect="none"/>
   <path d="M12.3364,31.5181 L12.1364,31.6181 L11.7364,31.1181 L12.1364,30.9181 L11.9364,30.7181 L12.4364,31.2181 L12.3364,31.5181" fill-rule="evenodd" vector-effect="none"/>
   <path d="M12.5076,31.972 L12.5916,32.123 L12.29,32.0236 L12.3179,31.9261 L12.5076,31.972" fill-rule="evenodd" vector-effect="none"/>
   <path d="M11.8038,30.7103 L11.6779,30.7117 L11.9132,30.6149 L11.9059,30.6392 L11.8038,30.7103" fill-rule="evenodd" vector-effect="none"/>
   <path d="M17.8248,39.6624 L17.8854,39.7559 L17.6962,40.5946 L17.4237,39.68 L17.4988,39.5279 L17.8248,39.6624" fill-rule="evenodd" vector-effect="none"/>
   <path d="M18.2509,40.7321 L18.1601,40.8811 L18.1466,41.0883 L18.1198,40.8349 L18.2509,40.7321" fill-rule="evenodd" vector-effect="none"/>
   <path d="M17.9107,39.4829 L17.9764,39.5765 L17.9512,39.6219 L17.7818,39.4425 L17.9107,39.4829" fill-rule="evenodd" vector-effect="none"/>
   <path d="M17.3522,39.7483 L17.3623,39.8166 L17.2738,39.809 L17.3016,39.6877 L17.3522,39.7483" fill-rule="evenodd" vector-effect="none"/>
   <path d="M18.2763,40.9243 L18.2763,40.9661 L18.2271,40.9691 L18.2182,40.9169 L18.2763,40.9243" fill-rule="evenodd" vector-effect="none"/>
   <path d="M18.2688,40.8901 L18.2599,40.8543 L18.2956,40.8558 L18.2882,40.8782 L18.2688,40.8901" fill-rule="evenodd" vector-effect="none"/>
   <path d="M18.2286,40.6904 L18.2033,40.6993 L18.1913,40.6815 L18.2256,40.6755 L18.2286,40.6904" fill-rule="evenodd" vector-effect="none"/>
  </g>
  <g fill="none" font-weight="400" transform="matrix(1,0,0,1,0,0)" stroke-linejoin="bevel" font-size="45.8333" stroke="#000000" font-family="Lato" font-style="normal" stroke-linecap="square" stroke-opacity="1" stroke-width="1"/>
  <g fill="none" font-weight="400" transform="matrix(11.811,0,0,11.811,0,0)" stroke-linejoin="bevel" font-size="45.8333" stroke="#000000" font-family="Lato" font-style="normal" stroke-linecap="square" stroke-opacity="1" stroke-width="1"/>
  <g fill="none" font-weight="400" transform="matrix(11.811,0,0,11.811,0,0)" stroke-linejoin="bevel" font-size="45.8333" stroke="#000000" font-family="Lato" font-style="normal" stroke-linecap="square" stroke-opacity="1" stroke-width="1"/>
  <g fill="none" font-weight="400" transform="matrix(11.811,0,0,11.811,0,0)" stroke-linejoin="bevel" font-size="45.8333" stroke="#000000" font-family="Lato" font-style="normal" stroke-linecap="square" stroke-opacity="1" stroke-width="1"/>
  <g fill="none" font-weight="400" transform="matrix(1,0,0,1,0,0)" stroke-linejoin="bevel" font-size="45.8333" stroke="#000000" font-family="Lato" font-style="normal" stroke-linecap="square" stroke-opacity="1" stroke-width="1"/>
  <g fill="none" font-weight="400" transform="matrix(11.811,0,0,11.811,0,0)" stroke-linejoin="bevel" font-size="45.8333" stroke="#000000" font-family="Lato" font-style="normal" stroke-linecap="square" stroke-opacity="1" stroke-width="1"/>
  <g fill="none" font-weight="400" transform="matrix(11.811,0,0,11.811,0,0)" stroke-linejoin="bevel" font-size="45.8333" stroke="#000000" font-family="Lato" font-style="normal" stroke-linecap="square" stroke-opacity="1" stroke-width="1"/>
  <g fill="none" font-weight="400" transform="matrix(11.811,0,0,11.811,0,0)" stroke-linejoin="bevel" font-size="45.8333" stroke="#000000" font-family="Lato" font-style="normal" stroke-linecap="square" stroke-opacity="1" stroke-width="1"/>
  <g fill="none" font-weight="400" transform="matrix(11.811,0,0,11.811,0,0)" stroke-linejoin="bevel" font-size="45.8333" stroke="#000000" font-family="Lato" font-style="normal" stroke-linecap="square" stroke-opacity="1" stroke-width="1"/>
  <g fill="none" font-weight="400" transform="matrix(1,0,0,1,0,0)" stroke-linejoin="bevel" font-size="45.8333" stroke="#000000" font-family="Lato" font-style="normal" stroke-linecap="square" stroke-opacity="1" stroke-width="1"/>
 </g>
</svg>
