<?xml version='1.0' encoding='UTF-8' standalone='no'?>
<svg viewBox="0 0 50 50" baseProfile="tiny" xmlns="http://www.w3.org/2000/svg" width="4.23333mm" height="4.23333mm" xmlns:xlink="http://www.w3.org/1999/xlink" version="1.2">
 <title>Qt SVG Document</title>
 <desc>Generated with Qt</desc>
 <defs/>
 <g fill="none" stroke-linejoin="bevel" stroke="black" fill-rule="evenodd" stroke-linecap="square" stroke-width="1">
  <g fill="none" font-weight="400" transform="matrix(1,0,0,1,0,0)" stroke-linejoin="bevel" font-size="45.8333" stroke="#000000" font-family="Lato" font-style="normal" stroke-linecap="square" stroke-opacity="1" stroke-width="1"/>
  <g fill="none" font-weight="400" transform="matrix(1,0,0,1,0,0)" stroke-linejoin="bevel" font-size="45.8333" stroke="#000000" font-family="Lato" font-style="normal" stroke-linecap="square" stroke-opacity="1" stroke-width="1"/>
  <g fill="none" font-weight="400" transform="matrix(11.811,0,0,11.811,0,0)" stroke-linejoin="bevel" font-size="45.8333" stroke="#000000" font-family="Lato" font-style="normal" stroke-linecap="square" stroke-opacity="1" stroke-width="1"/>
  <g fill="none" font-weight="400" transform="matrix(11.811,0,0,11.811,0,0)" stroke-linejoin="bevel" font-size="45.8333" stroke="#000000" font-family="Lato" font-style="normal" stroke-linecap="square" stroke-opacity="1" stroke-width="1"/>
  <g fill="none" font-weight="400" transform="matrix(11.811,0,0,11.811,0,0)" stroke-linejoin="bevel" font-size="45.8333" stroke="#000000" font-family="Lato" font-style="normal" stroke-linecap="square" stroke-opacity="1" stroke-width="1"/>
  <g fill="none" font-weight="400" transform="matrix(1,0,0,1,0,0)" stroke-linejoin="bevel" font-size="45.8333" stroke="#000000" font-family="Lato" font-style="normal" stroke-linecap="square" stroke-opacity="1" stroke-width="1"/>
  <g fill="#ffffff" font-weight="400" transform="matrix(1,0,0,1,0,0)" font-size="45.8333" fill-opacity="0" stroke="none" font-family="Lato" font-style="normal">
   <path d="M-2,-2 L52,-2 L52,52 L-2,52 L-2,-2" fill-rule="evenodd" vector-effect="none"/>
  </g>
  <g fill="none" font-weight="400" transform="matrix(1,0,0,1,0,0)" stroke-linejoin="bevel" font-size="45.8333" stroke="#000000" font-family="Lato" font-style="normal" stroke-linecap="square" stroke-opacity="1" stroke-width="1"/>
  <g fill="none" font-weight="400" transform="matrix(11.811,0,0,11.811,0,0)" stroke-linejoin="bevel" font-size="45.8333" stroke="#000000" font-family="Lato" font-style="normal" stroke-linecap="square" stroke-opacity="1" stroke-width="1"/>
  <g fill="none" font-weight="400" transform="matrix(11.811,0,0,11.811,0,0)" stroke-linejoin="bevel" font-size="45.8333" stroke="#000000" font-family="Lato" font-style="normal" stroke-linecap="square" stroke-opacity="1" stroke-width="1"/>
  <g fill="none" font-weight="400" transform="matrix(11.811,0,0,11.811,0,0)" stroke-linejoin="bevel" font-size="45.8333" stroke="#000000" font-family="Lato" font-style="normal" stroke-linecap="square" stroke-opacity="1" stroke-width="1"/>
  <g fill="none" font-weight="400" transform="matrix(11.811,0,0,11.811,0,0)" stroke-linejoin="bevel" font-size="45.8333" stroke="#000000" font-family="Lato" font-style="normal" stroke-linecap="square" stroke-opacity="1" stroke-width="1"/>
  <g fill="none" font-weight="400" transform="matrix(11.811,0,0,11.811,0,0)" stroke-linejoin="bevel" font-size="45.8333" stroke="#000000" font-family="Lato" font-style="normal" stroke-linecap="square" stroke-opacity="1" stroke-width="1"/>
  <g fill="none" font-weight="400" transform="matrix(11.811,0,0,11.811,0,0)" stroke-linejoin="bevel" font-size="45.8333" stroke="#000000" font-family="Lato" font-style="normal" stroke-linecap="square" stroke-opacity="1" stroke-width="1"/>
  <g fill="#000000" font-weight="400" transform="matrix(1,0,0,1,0,0)" font-size="45.8333" fill-opacity="0" stroke="none" font-family="Lato" font-style="normal">
   <rect x="0" y="0" width="50" height="50"/>
  </g>
  <g fill="none" font-weight="400" transform="matrix(1,0,0,1,0,0)" stroke-linejoin="bevel" font-size="45.8333" stroke="#000000" font-family="Lato" font-style="normal" stroke-linecap="square" stroke-opacity="1" stroke-width="1"/>
  <g fill="none" font-weight="400" transform="matrix(1,0,0,1,0,0)" font-size="45.8333" stroke="none" font-family="Lato" font-style="normal">
   <path d="M-5,55 L-5,45.1805 L-4.63704,44.6009 L-3.0276,38.7085 L-2.24039,38.4066 L-1.98855,36.8405 L0.610922,36.8419 L1.08468,35.5192 L1.45606,35.7987 L2.94016,34.6604 L2.58149,35.576 L3.39767,37.815 L2.5063,39.1854 L1.16022,39.892 L1.16305,41.6421 L-1.366,40.5697 L-2.36364,41.3046 L-2.93271,42.8932 L-2.40262,44.8944 L-2.82325,45.4086 L-1.39731,45.5769 L-1.15236,45.0957 L-0.873726,45.9875 L-2.84939,46.7954 L-3.49683,48.623 L-1.54251,48.6268 L0.463359,47.7432 L0.0340854,49.3414 L0.326387,50.393 L-1.71266,54.9943 L-1.71257,55 L-5,55" fill-rule="evenodd" vector-effect="none"/>
   <path d="M-2.68387,44.4152 L-2.95448,42.9965 L-2.22949,41.1064 L-1.24385,40.5633 L1.16305,41.6421 L1.15246,45.8733 L0.464771,47.7436 L-1.54251,48.6268 L-3.49683,48.623 L-2.84939,46.7954 L-0.873726,45.9875 L-1.15236,45.0957 L-1.39731,45.5769 L-2.82325,45.4086 L-2.43461,45.2191 L-2.68387,44.4152" fill-rule="evenodd" vector-effect="none"/>
   <path d="M-1.95019,36.8308 L0.544868,31.2764 L1.709,30.6115 L1.87523,28.4806 L4.04729,26.9279 L3.95667,26.1682 L5.94931,26.3226 L6.27268,25.9106 L7.16935,26.3081 L6.34752,27.0954 L7.74972,27.7183 L8.28914,29.2474 L6.13359,30.9729 L6.68713,31.721 L4.50687,31.8615 L3.62643,33.0648 L4.40308,33.5601 L1.45606,35.7987 L1.08468,35.5192 L0.610922,36.8419 L-1.95019,36.8308" fill-rule="evenodd" vector-effect="none"/>
  </g>
  <g fill="none" font-weight="400" transform="matrix(1,0,0,1,0,0)" stroke-linejoin="bevel" font-size="45.8333" stroke="#ffffff" font-family="Lato" font-style="normal" stroke-linecap="square" stroke-opacity="1" stroke-width="0.11811">
   <path d="M2.5063,39.1854 L3.39767,37.815 L2.54901,35.1545 L4.40308,33.5601 L3.62643,33.0648 L3.81,32.594 L5.107,31.628 L6.60452,31.8114 L6.13359,30.9729 L8.28914,29.2474 L7.74972,27.7183 L6.34752,27.0954 L7.16935,26.3081 L6.27268,25.9106 L5.94931,26.3226 L3.95667,26.1682 L3.25285,24.2938 L3.90552,22.4239 L3.60865,20.9229 L2.27273,19.7996 L3.07161,18.6699 L2.78642,17.9717 L4.02746,17.4445 L5.23903,18.1569 L5.50733,17.2747 L6.60805,16.9859 L6.71043,15.3899 L8.70005,15.3803 L7.79138,13.6724 L8.53343,11.2878 L10.7525,11.7951 L11.3562,12.7097 L14.0413,12.6123 L19.3571,10.7392 L21.1038,11.0989 L22.7778,12.2042 L26.2932,12.4273 L29.8842,11.8748 L36.331,9.42699 L41.5967,9.59715 L45.2138,8.9137 L46.5934,7.89382 L47.519,8.47542 L47.7273,9.68823 L44.0834,12.7239 L40.9521,13.4172 L40.2114,14.5211 L39.9361,16.5326 L40.8024,19.2999 L39.6946,22.116 L39.7144,25.1894 L38.082,27.8623 L36.2047,28.3429 L23.116,34.8998 L9.75982,42.1062 L6.8121,41.679 L2.5063,39.1854" fill-rule="evenodd" vector-effect="none"/>
  </g>
  <g fill="none" font-weight="400" transform="matrix(1,0,0,1,0,0)" font-size="45.8333" stroke="none" font-family="Lato" font-style="normal">
   <path d="M-5,-5 L55,-5 L55,8.12936 L52.7663,7.57804 L51.5519,7.9263 L50.4823,7.54821 L48.8753,9.15093 L47.591,9.36204 L47.519,8.47542 L46.5934,7.89382 L45.2138,8.9137 L41.5967,9.59715 L36.331,9.42699 L29.8842,11.8748 L26.2932,12.4273 L22.7778,12.2042 L21.1038,11.0989 L19.3571,10.7392 L14.0413,12.6123 L11.3562,12.7097 L10.7525,11.7951 L8.53343,11.2878 L7.79138,13.6724 L8.73959,15.3235 L6.71043,15.3899 L6.60805,16.9859 L5.50733,17.2747 L5.10841,18.1759 L3.55639,17.5066 L3.99447,16.8184 L2.7097,14.8662 L5.60503,12.5563 L5.45326,11.4677 L4.30079,10.6166 L1.47551,11.8869 L1.28927,12.2644 L2.17544,12.027 L1.59059,12.8287 L-0.305163,13.2484 L-4.76713,11.3849 L-5,11.5117 L-5,-5" fill-rule="evenodd" vector-effect="none"/>
   <path d="M55,55 L51.8568,55 L45.6656,50.5561 L34.3852,44.8131 L25.6564,43.4632 L26.6512,42.5999 L26.2671,41.8598 L24.8529,42.0273 L24.5076,41.0256 L25.0471,40.8778 L23.116,34.8998 L36.2047,28.3429 L38.082,27.8623 L39.7144,25.1894 L39.6946,22.116 L40.8024,19.2999 L39.9361,16.5326 L40.2114,14.5211 L40.9521,13.4172 L44.0834,12.7239 L47.591,9.36204 L48.9847,9.11174 L50.0396,7.68624 L52.7663,7.57804 L55,8.12936 L55,55" fill-rule="evenodd" vector-effect="none"/>
   <path d="M16.7546,55 L17.6979,54.5255 L10.7172,47.7475 L24.4067,44.309 L25.734,43.4413 L34.0173,44.6906 L45.6656,50.5561 L51.8568,55 L16.7546,55" fill-rule="evenodd" vector-effect="none"/>
   <path d="M1.51006,39.612 L3.44992,39.3976 L4.61489,40.7363 L9.67227,42.1318 L23.116,34.8998 L25.0471,40.8778 L24.5076,41.0256 L24.8529,42.0273 L26.2671,41.8598 L26.6512,42.5999 L24.4067,44.309 L10.7172,47.7475 L17.6979,54.5255 L16.7546,55 L-1.71257,55 L-1.71266,54.9943 L0.326387,50.393 L0.0340854,49.3414 L1.15246,45.8733 L0.902518,43.8752 L1.51006,39.612" fill-rule="evenodd" vector-effect="none"/>
  </g>
  <g fill="none" font-weight="400" transform="matrix(1,0,0,1,0,0)" stroke-linejoin="bevel" font-size="45.8333" stroke="#000000" font-family="Lato" font-style="normal" stroke-linecap="square" stroke-opacity="1" stroke-width="1"/>
  <g fill="none" font-weight="400" transform="matrix(11.811,0,0,11.811,0,0)" stroke-linejoin="bevel" font-size="45.8333" stroke="#000000" font-family="Lato" font-style="normal" stroke-linecap="square" stroke-opacity="1" stroke-width="1"/>
  <g fill="none" font-weight="400" transform="matrix(11.811,0,0,11.811,0,0)" stroke-linejoin="bevel" font-size="45.8333" stroke="#000000" font-family="Lato" font-style="normal" stroke-linecap="square" stroke-opacity="1" stroke-width="1"/>
  <g fill="none" font-weight="400" transform="matrix(11.811,0,0,11.811,0,0)" stroke-linejoin="bevel" font-size="45.8333" stroke="#000000" font-family="Lato" font-style="normal" stroke-linecap="square" stroke-opacity="1" stroke-width="1"/>
  <g fill="none" font-weight="400" transform="matrix(1,0,0,1,0,0)" stroke-linejoin="bevel" font-size="45.8333" stroke="#000000" font-family="Lato" font-style="normal" stroke-linecap="square" stroke-opacity="1" stroke-width="1"/>
  <g fill="none" font-weight="400" transform="matrix(11.811,0,0,11.811,0,0)" stroke-linejoin="bevel" font-size="45.8333" stroke="#000000" font-family="Lato" font-style="normal" stroke-linecap="square" stroke-opacity="1" stroke-width="1"/>
  <g fill="none" font-weight="400" transform="matrix(11.811,0,0,11.811,0,0)" stroke-linejoin="bevel" font-size="45.8333" stroke="#000000" font-family="Lato" font-style="normal" stroke-linecap="square" stroke-opacity="1" stroke-width="1"/>
  <g fill="none" font-weight="400" transform="matrix(11.811,0,0,11.811,0,0)" stroke-linejoin="bevel" font-size="45.8333" stroke="#000000" font-family="Lato" font-style="normal" stroke-linecap="square" stroke-opacity="1" stroke-width="1"/>
  <g fill="none" font-weight="400" transform="matrix(11.811,0,0,11.811,0,0)" stroke-linejoin="bevel" font-size="45.8333" stroke="#000000" font-family="Lato" font-style="normal" stroke-linecap="square" stroke-opacity="1" stroke-width="1"/>
  <g fill="none" font-weight="400" transform="matrix(1,0,0,1,0,0)" stroke-linejoin="bevel" font-size="45.8333" stroke="#000000" font-family="Lato" font-style="normal" stroke-linecap="square" stroke-opacity="1" stroke-width="1"/>
 </g>
</svg>
