<?xml version='1.0' encoding='UTF-8' standalone='no'?>
<svg viewBox="0 0 50 50" baseProfile="tiny" xmlns="http://www.w3.org/2000/svg" width="4.23333mm" height="4.23333mm" xmlns:xlink="http://www.w3.org/1999/xlink" version="1.2">
 <title>Qt SVG Document</title>
 <desc>Generated with Qt</desc>
 <defs/>
 <g fill="none" stroke-linejoin="bevel" stroke="black" fill-rule="evenodd" stroke-linecap="square" stroke-width="1">
  <g fill="none" font-weight="400" transform="matrix(1,0,0,1,0,0)" stroke-linejoin="bevel" font-size="45.8333" stroke="#000000" font-family="Lato" font-style="normal" stroke-linecap="square" stroke-opacity="1" stroke-width="1"/>
  <g fill="none" font-weight="400" transform="matrix(1,0,0,1,0,0)" stroke-linejoin="bevel" font-size="45.8333" stroke="#000000" font-family="Lato" font-style="normal" stroke-linecap="square" stroke-opacity="1" stroke-width="1"/>
  <g fill="none" font-weight="400" transform="matrix(11.811,0,0,11.811,0,0)" stroke-linejoin="bevel" font-size="45.8333" stroke="#000000" font-family="Lato" font-style="normal" stroke-linecap="square" stroke-opacity="1" stroke-width="1"/>
  <g fill="none" font-weight="400" transform="matrix(11.811,0,0,11.811,0,0)" stroke-linejoin="bevel" font-size="45.8333" stroke="#000000" font-family="Lato" font-style="normal" stroke-linecap="square" stroke-opacity="1" stroke-width="1"/>
  <g fill="none" font-weight="400" transform="matrix(11.811,0,0,11.811,0,0)" stroke-linejoin="bevel" font-size="45.8333" stroke="#000000" font-family="Lato" font-style="normal" stroke-linecap="square" stroke-opacity="1" stroke-width="1"/>
  <g fill="none" font-weight="400" transform="matrix(1,0,0,1,0,0)" stroke-linejoin="bevel" font-size="45.8333" stroke="#000000" font-family="Lato" font-style="normal" stroke-linecap="square" stroke-opacity="1" stroke-width="1"/>
  <g fill="#ffffff" font-weight="400" transform="matrix(1,0,0,1,0,0)" font-size="45.8333" fill-opacity="0" stroke="none" font-family="Lato" font-style="normal">
   <path d="M-2,-2 L52,-2 L52,52 L-2,52 L-2,-2" fill-rule="evenodd" vector-effect="none"/>
  </g>
  <g fill="none" font-weight="400" transform="matrix(1,0,0,1,0,0)" stroke-linejoin="bevel" font-size="45.8333" stroke="#000000" font-family="Lato" font-style="normal" stroke-linecap="square" stroke-opacity="1" stroke-width="1"/>
  <g fill="none" font-weight="400" transform="matrix(11.811,0,0,11.811,0,0)" stroke-linejoin="bevel" font-size="45.8333" stroke="#000000" font-family="Lato" font-style="normal" stroke-linecap="square" stroke-opacity="1" stroke-width="1"/>
  <g fill="none" font-weight="400" transform="matrix(11.811,0,0,11.811,0,0)" stroke-linejoin="bevel" font-size="45.8333" stroke="#000000" font-family="Lato" font-style="normal" stroke-linecap="square" stroke-opacity="1" stroke-width="1"/>
  <g fill="none" font-weight="400" transform="matrix(11.811,0,0,11.811,0,0)" stroke-linejoin="bevel" font-size="45.8333" stroke="#000000" font-family="Lato" font-style="normal" stroke-linecap="square" stroke-opacity="1" stroke-width="1"/>
  <g fill="none" font-weight="400" transform="matrix(11.811,0,0,11.811,0,0)" stroke-linejoin="bevel" font-size="45.8333" stroke="#000000" font-family="Lato" font-style="normal" stroke-linecap="square" stroke-opacity="1" stroke-width="1"/>
  <g fill="none" font-weight="400" transform="matrix(11.811,0,0,11.811,0,0)" stroke-linejoin="bevel" font-size="45.8333" stroke="#000000" font-family="Lato" font-style="normal" stroke-linecap="square" stroke-opacity="1" stroke-width="1"/>
  <g fill="none" font-weight="400" transform="matrix(11.811,0,0,11.811,0,0)" stroke-linejoin="bevel" font-size="45.8333" stroke="#000000" font-family="Lato" font-style="normal" stroke-linecap="square" stroke-opacity="1" stroke-width="1"/>
  <g fill="#000000" font-weight="400" transform="matrix(1,0,0,1,0,0)" font-size="45.8333" fill-opacity="0" stroke="none" font-family="Lato" font-style="normal">
   <rect x="0" y="0" width="50" height="50"/>
  </g>
  <g fill="none" font-weight="400" transform="matrix(1,0,0,1,0,0)" stroke-linejoin="bevel" font-size="45.8333" stroke="#000000" font-family="Lato" font-style="normal" stroke-linecap="square" stroke-opacity="1" stroke-width="1"/>
  <g fill="none" font-weight="400" transform="matrix(1,0,0,1,0,0)" font-size="45.8333" stroke="none" font-family="Lato" font-style="normal">
   <path d="M3.87891,47.2345 L14.1571,36.265 L11.6575,34.818 L19.3648,22.5093 L26.8787,-5 L54.964,-5 L54.2958,-3.97265 L47.7135,-0.517053 L47.7273,8.04096 L35.3602,2.79653 L30.4818,6.39064 L27.699,14.1589 L30.2911,23.9446 L28.2342,26.4591 L35.2071,27.2818 L36.4049,24.9287 L37.7674,29.2899 L28.1064,33.2403 L24.9404,42.1772 L34.4971,42.1962 L44.3058,37.8753 L42.2066,45.6902 L43.636,50.8328 L41.7893,55 L6.86719,55 L3.87891,47.2345" fill-rule="evenodd" vector-effect="none"/>
  </g>
  <g fill="none" font-weight="400" transform="matrix(1,0,0,1,0,0)" stroke-linejoin="bevel" font-size="45.8333" stroke="#ffffff" font-family="Lato" font-style="normal" stroke-linecap="square" stroke-opacity="1" stroke-width="0.11811">
   <path d="M28.9158,21.6015 L27.5925,14.664 L31.1378,5.42134 L35.9575,2.76546 L47.7273,8.04096 L47.6755,28.7312 L44.3127,37.8771 L34.4971,42.1962 L24.9404,42.1772 L28.1064,33.2403 L37.7674,29.2899 L36.4049,24.9287 L35.2071,27.2818 L28.2342,26.4591 L30.1347,25.5322 L28.9158,21.6015" fill-rule="evenodd" vector-effect="none"/>
   <path d="M12.9577,35.6469 L14.1571,36.265 L3.87891,47.2345 L2.27273,43.7999 L12.9577,35.6469" fill-rule="evenodd" vector-effect="none"/>
  </g>
  <g fill="none" font-weight="400" transform="matrix(1,0,0,1,0,0)" font-size="45.8333" stroke="none" font-family="Lato" font-style="normal">
   <path d="M49.4242,-1.8866 L55,-2.50267 L55,55 L41.7893,55 L43.636,50.8328 L42.2066,45.6902 L47.6755,28.7312 L46.4533,18.9605 L49.4242,-1.8866" fill-rule="evenodd" vector-effect="none"/>
   <path d="M-5,55 L-5,46.3941 L2.27273,43.7999 L6.88618,55 L-5,55" fill-rule="evenodd" vector-effect="none"/>
  </g>
  <g fill="none" font-weight="400" transform="matrix(1,0,0,1,0,0)" stroke-linejoin="bevel" font-size="45.8333" stroke="#000000" font-family="Lato" font-style="normal" stroke-linecap="square" stroke-opacity="1" stroke-width="1"/>
  <g fill="none" font-weight="400" transform="matrix(11.811,0,0,11.811,0,0)" stroke-linejoin="bevel" font-size="45.8333" stroke="#000000" font-family="Lato" font-style="normal" stroke-linecap="square" stroke-opacity="1" stroke-width="1"/>
  <g fill="none" font-weight="400" transform="matrix(11.811,0,0,11.811,0,0)" stroke-linejoin="bevel" font-size="45.8333" stroke="#000000" font-family="Lato" font-style="normal" stroke-linecap="square" stroke-opacity="1" stroke-width="1"/>
  <g fill="none" font-weight="400" transform="matrix(11.811,0,0,11.811,0,0)" stroke-linejoin="bevel" font-size="45.8333" stroke="#000000" font-family="Lato" font-style="normal" stroke-linecap="square" stroke-opacity="1" stroke-width="1"/>
  <g fill="none" font-weight="400" transform="matrix(1,0,0,1,0,0)" stroke-linejoin="bevel" font-size="45.8333" stroke="#000000" font-family="Lato" font-style="normal" stroke-linecap="square" stroke-opacity="1" stroke-width="1"/>
  <g fill="none" font-weight="400" transform="matrix(11.811,0,0,11.811,0,0)" stroke-linejoin="bevel" font-size="45.8333" stroke="#000000" font-family="Lato" font-style="normal" stroke-linecap="square" stroke-opacity="1" stroke-width="1"/>
  <g fill="none" font-weight="400" transform="matrix(11.811,0,0,11.811,0,0)" stroke-linejoin="bevel" font-size="45.8333" stroke="#000000" font-family="Lato" font-style="normal" stroke-linecap="square" stroke-opacity="1" stroke-width="1"/>
  <g fill="none" font-weight="400" transform="matrix(11.811,0,0,11.811,0,0)" stroke-linejoin="bevel" font-size="45.8333" stroke="#000000" font-family="Lato" font-style="normal" stroke-linecap="square" stroke-opacity="1" stroke-width="1"/>
  <g fill="none" font-weight="400" transform="matrix(11.811,0,0,11.811,0,0)" stroke-linejoin="bevel" font-size="45.8333" stroke="#000000" font-family="Lato" font-style="normal" stroke-linecap="square" stroke-opacity="1" stroke-width="1"/>
  <g fill="none" font-weight="400" transform="matrix(1,0,0,1,0,0)" stroke-linejoin="bevel" font-size="45.8333" stroke="#000000" font-family="Lato" font-style="normal" stroke-linecap="square" stroke-opacity="1" stroke-width="1"/>
 </g>
</svg>
