<?xml version='1.0' encoding='UTF-8' standalone='no'?>
<svg viewBox="0 0 50 50" baseProfile="tiny" xmlns="http://www.w3.org/2000/svg" width="4.23333mm" height="4.23333mm" xmlns:xlink="http://www.w3.org/1999/xlink" version="1.2">
 <title>Qt SVG Document</title>
 <desc>Generated with Qt</desc>
 <defs/>
 <g fill="none" stroke-linejoin="bevel" stroke="black" fill-rule="evenodd" stroke-linecap="square" stroke-width="1">
  <g fill="none" font-weight="400" transform="matrix(1,0,0,1,0,0)" stroke-linejoin="bevel" font-size="45.8333" stroke="#000000" font-family="Lato" font-style="normal" stroke-linecap="square" stroke-opacity="1" stroke-width="1"/>
  <g fill="none" font-weight="400" transform="matrix(1,0,0,1,0,0)" stroke-linejoin="bevel" font-size="45.8333" stroke="#000000" font-family="Lato" font-style="normal" stroke-linecap="square" stroke-opacity="1" stroke-width="1"/>
  <g fill="none" font-weight="400" transform="matrix(11.811,0,0,11.811,0,0)" stroke-linejoin="bevel" font-size="45.8333" stroke="#000000" font-family="Lato" font-style="normal" stroke-linecap="square" stroke-opacity="1" stroke-width="1"/>
  <g fill="none" font-weight="400" transform="matrix(11.811,0,0,11.811,0,0)" stroke-linejoin="bevel" font-size="45.8333" stroke="#000000" font-family="Lato" font-style="normal" stroke-linecap="square" stroke-opacity="1" stroke-width="1"/>
  <g fill="none" font-weight="400" transform="matrix(11.811,0,0,11.811,0,0)" stroke-linejoin="bevel" font-size="45.8333" stroke="#000000" font-family="Lato" font-style="normal" stroke-linecap="square" stroke-opacity="1" stroke-width="1"/>
  <g fill="none" font-weight="400" transform="matrix(1,0,0,1,0,0)" stroke-linejoin="bevel" font-size="45.8333" stroke="#000000" font-family="Lato" font-style="normal" stroke-linecap="square" stroke-opacity="1" stroke-width="1"/>
  <g fill="#ffffff" font-weight="400" transform="matrix(1,0,0,1,0,0)" font-size="45.8333" fill-opacity="0" stroke="none" font-family="Lato" font-style="normal">
   <path d="M-2,-2 L52,-2 L52,52 L-2,52 L-2,-2" fill-rule="evenodd" vector-effect="none"/>
  </g>
  <g fill="none" font-weight="400" transform="matrix(1,0,0,1,0,0)" stroke-linejoin="bevel" font-size="45.8333" stroke="#000000" font-family="Lato" font-style="normal" stroke-linecap="square" stroke-opacity="1" stroke-width="1"/>
  <g fill="none" font-weight="400" transform="matrix(11.811,0,0,11.811,0,0)" stroke-linejoin="bevel" font-size="45.8333" stroke="#000000" font-family="Lato" font-style="normal" stroke-linecap="square" stroke-opacity="1" stroke-width="1"/>
  <g fill="none" font-weight="400" transform="matrix(11.811,0,0,11.811,0,0)" stroke-linejoin="bevel" font-size="45.8333" stroke="#000000" font-family="Lato" font-style="normal" stroke-linecap="square" stroke-opacity="1" stroke-width="1"/>
  <g fill="none" font-weight="400" transform="matrix(11.811,0,0,11.811,0,0)" stroke-linejoin="bevel" font-size="45.8333" stroke="#000000" font-family="Lato" font-style="normal" stroke-linecap="square" stroke-opacity="1" stroke-width="1"/>
  <g fill="none" font-weight="400" transform="matrix(11.811,0,0,11.811,0,0)" stroke-linejoin="bevel" font-size="45.8333" stroke="#000000" font-family="Lato" font-style="normal" stroke-linecap="square" stroke-opacity="1" stroke-width="1"/>
  <g fill="none" font-weight="400" transform="matrix(11.811,0,0,11.811,0,0)" stroke-linejoin="bevel" font-size="45.8333" stroke="#000000" font-family="Lato" font-style="normal" stroke-linecap="square" stroke-opacity="1" stroke-width="1"/>
  <g fill="none" font-weight="400" transform="matrix(11.811,0,0,11.811,0,0)" stroke-linejoin="bevel" font-size="45.8333" stroke="#000000" font-family="Lato" font-style="normal" stroke-linecap="square" stroke-opacity="1" stroke-width="1"/>
  <g fill="#000000" font-weight="400" transform="matrix(1,0,0,1,0,0)" font-size="45.8333" fill-opacity="0" stroke="none" font-family="Lato" font-style="normal">
   <rect x="0" y="0" width="50" height="50"/>
  </g>
  <g fill="none" font-weight="400" transform="matrix(1,0,0,1,0,0)" stroke-linejoin="bevel" font-size="45.8333" stroke="#000000" font-family="Lato" font-style="normal" stroke-linecap="square" stroke-opacity="1" stroke-width="1"/>
  <g fill="none" font-weight="400" transform="matrix(1,0,0,1,0,0)" font-size="45.8333" stroke="none" font-family="Lato" font-style="normal">
   <path d="M22.657,43.3953 L23.3876,42.6156 L23.2099,42.5128 L23.7577,41.6379 L24.3171,39.5899 L24.5907,39.4849 L24.6783,38.9406 L25.5818,38.9411 L25.7464,38.4813 L25.8755,38.5785 L26.3913,38.1829 L26.2667,38.5011 L26.5503,39.2793 L26.2405,39.7556 L25.7727,40.0012 L25.7737,40.6095 L24.8946,40.2367 L24.5479,40.4922 L24.3501,41.0444 L24.5343,41.7399 L24.3881,41.9186 L24.8838,41.9771 L24.9689,41.8099 L25.0657,42.1198 L24.3791,42.4006 L24.154,43.0358 L24.8333,43.0372 L25.5305,42.7301 L25.3813,43.2855 L25.4829,43.651 L24.7741,45.2503 L24.7867,45.9788 L24.23,47.4828 L22.657,43.3953" fill-rule="evenodd" vector-effect="none"/>
   <path d="M24.4383,41.6032 L24.3383,41.1032 L24.6383,40.4032 L24.9383,40.2032 L25.7383,40.6032 L25.7383,42.1032 L25.5383,42.7032 L24.8383,43.0032 L24.1383,43.0032 L24.3383,42.4032 L25.0383,42.1032 L24.9383,41.8032 L24.8383,42.0032 L24.3383,41.9032 L24.5383,41.8032 L24.4383,41.6032" fill-rule="evenodd" vector-effect="none"/>
   <path d="M23.3023,42.5717 L23.3876,42.6156 L22.657,43.3953 L22.5429,43.1512 L23.3023,42.5717" fill-rule="evenodd" vector-effect="none"/>
   <path d="M24.7383,38.9032 L25.5383,37.0032 L25.9383,36.8032 L26.0383,36.0032 L26.7383,35.5032 L26.7383,35.2032 L27.4383,35.3032 L27.5383,35.1032 L27.8383,35.3032 L27.5383,35.6032 L28.0383,35.8032 L28.2383,36.3032 L27.5383,36.9032 L27.7383,37.2032 L26.9383,37.2032 L26.6383,37.6032 L26.9383,37.8032 L25.8383,38.6032 L25.7383,38.5032 L25.5383,38.9032 L24.7383,38.9032" fill-rule="evenodd" vector-effect="none"/>
   <path d="M26.2405,39.7556 L26.5503,39.2793 L26.2554,38.3546 L26.8998,37.8004 L26.6299,37.6283 L26.6937,37.4647 L27.1445,37.1289 L27.6649,37.1926 L27.5013,36.9012 L28.2505,36.3015 L28.063,35.77 L27.5756,35.5535 L27.8613,35.2799 L27.5496,35.1417 L27.4372,35.2849 L26.7446,35.2312 L26.5,34.5798 L26.7269,33.9298 L26.6237,33.4081 L26.1593,33.0177 L26.437,32.6251 L26.3379,32.3824 L26.7692,32.1991 L27.1903,32.4467 L27.2836,32.1401 L27.6662,32.0397 L27.7018,31.485 L28.3933,31.4817 L28.0775,30.8881 L28.3354,30.0592 L29.1067,30.2356 L29.3165,30.5535 L30.2497,30.5196 L32.0973,29.8686 L32.7045,29.9936 L33.2863,30.3778 L34.5082,30.4553 L35.7563,30.2633 L37.997,29.4125 L39.8272,29.4716 L41.0844,29.2341 L41.5639,28.8796 L41.8856,29.0818 L41.958,29.5033 L40.6915,30.5584 L39.6031,30.7994 L39.3457,31.183 L39.25,31.8822 L39.5511,32.844 L39.1661,33.8228 L39.1729,34.891 L38.6056,35.8201 L37.9531,35.9871 L33.4039,38.2661 L28.7616,40.7708 L27.7371,40.6223 L26.2405,39.7556" fill-rule="evenodd" vector-effect="none"/>
  </g>
  <g fill="none" font-weight="400" transform="matrix(1,0,0,1,0,0)" stroke-linejoin="bevel" font-size="45.8333" stroke="#ffffff" font-family="Lato" font-style="normal" stroke-linecap="square" stroke-opacity="1" stroke-width="0.11811">
   <path d="M44.4923,20.0314 L44.9473,20.3114 L45.1478,20.7165 L45.1159,21.0749 L44.7652,21.3932 L45.1496,22.1257 L45.0168,22.2663 L45.8882,22.5074 L46.5844,22.4456 L47.7273,23.3829 L47.1544,23.0838 L46.9022,23.2439 L46.7323,23.9181 L45.8465,24.0141 L45.9957,24.4273 L46.2543,24.5577 L46.172,24.9863 L46.4641,25.2737 L46.4986,26.3691 L46.9004,26.4733 L46.291,27.5208 L47.2266,27.9501 L47.1549,28.5893 L47.7144,28.9561 L47.6303,29.3141 L47.2602,29.2276 L46.4874,29.7243 L46.2386,29.443 L46.3692,29.0889 L46.0202,28.9122 L45.3586,29.1769 L43.7094,28.7699 L43.2873,28.8909 L42.9155,28.7595 L42.357,29.3165 L41.9106,29.3899 L41.8856,29.0818 L41.5639,28.8796 L41.0844,29.2341 L39.8272,29.4716 L37.997,29.4125 L35.7563,30.2633 L34.5082,30.4553 L33.2863,30.3778 L32.7045,29.9936 L32.0973,29.8686 L30.2497,30.5196 L29.3165,30.5535 L29.1067,30.2356 L28.3354,30.0592 L28.0775,30.8881 L28.407,31.4619 L27.7018,31.485 L27.6662,32.0397 L27.2836,32.1401 L27.1449,32.4534 L26.6055,32.2207 L26.7578,31.9815 L26.3112,31.303 L27.3176,30.5001 L27.2648,30.1218 L26.8642,29.826 L25.8823,30.2675 L25.8175,30.3987 L26.1255,30.3162 L25.9223,30.5948 L25.2634,30.7407 L23.7125,30.093 L22.7232,30.6317 L21.97,31.5183 L21.7613,31.2778 L21.3271,31.7001 L21.2297,31.5682 L21.0042,31.7227 L20.0655,31.7001 L19.2269,31.9609 L18.1864,31.6029 L17.3632,30.7278 L15.7535,30.1056 L14.1999,29.9094 L13.9228,30.1703 L13.9228,30.7717 L13.5847,31.4879 L12.9462,31.3163 L11.7919,31.7325 L10.4242,31.0972 L10.4683,30.7132 L10.2297,30.7245 L10.4242,30.4459 L10.0505,30.2416 L9.78909,30.5948 L8.89426,29.9274 L8.76131,30.1509 L8.43167,30.0163 L8.52171,30.3162 L7.90628,30.6845 L7.72426,30.5948 L8.03381,30.4961 L7.74049,30.39 L8.09738,30.3187 L8.10221,30.1245 L7.62552,30.2675 L7.15482,30.2298 L7.04024,30.4636 L6.40664,30.4459 L6.29148,30.334 L6.97898,30.1106 L7.88638,30.1703 L7.92039,29.7961 L8.21351,29.8609 L8.60306,29.5638 L6.78112,29.715 L6.34056,29.5852 L6.07158,29.738 L6.04724,29.3567 L6.78846,29.3527 L6.69996,29.1932 L6.89473,29.177 L6.90923,28.9988 L6.5475,29.0527 L6.6134,28.8738 L6.38886,28.8838 L6.4136,28.671 L5.89961,28.8026 L5.94174,28.2339 L5.47393,28.0704 L6.03912,27.8837 L6.01439,27.3053 L5.14525,27.1933 L4.87744,26.762 L4.58219,26.7933 L4.48499,27.0299 L3.99864,26.6554 L3.62571,26.6112 L4.29041,26.2487 L3.99323,26.1981 L3.90086,25.7678 L4.05545,25.6635 L4.56905,26.0438 L4.46876,26.2826 L4.67049,26.5473 L4.74005,26.2553 L4.96014,26.4252 L5.83662,26.2163 L5.29326,26.2441 L5.00671,25.9879 L5.18506,26.0704 L5.08786,25.8582 L4.77966,25.727 L4.77966,25.5649 L5.21752,25.5325 L5.20264,25.3379 L5.59547,25.1709 L4.98719,25.0207 L5.15047,24.6865 L4.77889,24.2781 L4.51881,24.2488 L5.28012,23.7442 L5.29867,23.5376 L3.23848,23.7239 L3.44446,23.3608 L3.47035,22.5906 L4.81889,21.5697 L6.12801,21.4162 L6.52065,21.7633 L7.25762,21.7791 L7.54456,21.6107 L7.07134,21.3498 L7.25124,21.2527 L7.9028,21.4014 L7.59306,21.5784 L7.68967,21.6588 L10.318,21.6557 L10.5552,21.4973 L9.70311,21.2142 L11.3602,20.8012 L12.4257,20.7826 L10.7999,20.6028 L10.8221,20.4627 L10.2134,20.0811 L10.5983,19.6001 L12.8948,19.8121 L13.2405,19.6418 L14.5483,19.9638 L15.4932,19.9351 L15.8767,19.7061 L15.9024,19.4021 L17.7029,18.7004 L17.9439,18.4436 L20.4634,17.734 L23.7156,17.9075 L24.4986,17.5595 L24.9553,17.723 L24.6605,17.95 L25.1497,18.4555 L25.811,18.6584 L26.9228,18.4879 L27.1353,19.0568 L27.7541,19.5447 L28.616,19.2838 L29.1546,19.4543 L29.5122,19.8054 L30.4364,20.0653 L31.0517,19.8624 L31.3174,20.196 L32.3506,20.3485 L34.9607,19.8864 L36.6526,20.3368 L39.615,19.2528 L39.9245,18.9326 L40.6183,19.152 L40.9388,18.9531 L42.1619,19.1282 L42.6318,18.7568 L43.0093,18.7946 L42.8824,18.956 L43.8737,19.4436 L43.6817,19.5628 L43.9501,19.7249 L44.4116,19.7376 L44.4923,20.0314" fill-rule="evenodd" vector-effect="none"/>
   <path d="M7.90628,17.99 L7.7546,18.2012 L8.3737,18.9213 L10.4548,19.5948 L10.1773,20.134 L9.30564,20.2285 L9.13154,19.9624 L9.10642,20.1783 L8.21351,19.9514 L7.68156,20.2222 L6.69127,20.1792 L6.13033,20.8574 L4.69484,21.4465 L3.89275,22.0536 L3.96463,22.1634 L3.4462,22.3966 L3.71807,21.9808 L3.59247,21.7409 L5.04052,21.0985 L4.94893,20.9594 L4.27283,21.1067 L3.19983,20.9594 L3.15114,20.7826 L3.9249,20.2374 L3.83337,19.5689 L4.57227,19.3046 L4.48613,18.6993 L3.8638,18.4605 L3.86576,18.2789 L4.32147,18.1965 L4.51043,17.8565 L6.01227,17.5466 L6.74405,18.0138 L7.44835,17.7892 L7.90628,17.99" fill-rule="evenodd" vector-effect="none"/>
   <path d="M2.99579,22.2174 L2.51658,22.2972 L2.27273,22.2283 L2.89647,21.9514 L3.10129,22.1324 L2.99579,22.2174" fill-rule="evenodd" vector-effect="none"/>
   <path d="M7.17472,21.002 L6.88256,21.1583 L6.69648,21.0104 L6.88372,20.953 L7.17472,21.002" fill-rule="evenodd" vector-effect="none"/>
   <path d="M3.2663,23.0028 L3.21259,23.0358 L3.02013,22.9216 L3.25548,22.8967 L3.2663,23.0028" fill-rule="evenodd" vector-effect="none"/>
   <path d="M7.00661,21.4416 L6.86266,21.4405 L6.82363,21.3964 L6.88855,21.3278 L7.00661,21.4416" fill-rule="evenodd" vector-effect="none"/>
  </g>
  <g fill="none" font-weight="400" transform="matrix(1,0,0,1,0,0)" font-size="45.8333" stroke="none" font-family="Lato" font-style="normal">
   <path d="M47.6303,29.3141 L47.9181,29.6132 L47.7849,30.1451 L48.2946,30.4392 L48.1651,30.7581 L48.3844,31.0453 L48.7527,31.0686 L48.9461,32.0396 L49.4677,32.0397 L49.964,32.4742 L50.7034,32.3644 L51.3365,32.492 L50.5689,32.7989 L50.4744,33.2265 L50.8452,33.6435 L50.9186,34.1348 L50.3538,34.1925 L50.2043,34.6211 L49.7687,34.8583 L49.6752,35.0627 L49.8512,35.4653 L49.3743,35.3693 L49.3809,35.6008 L49.1758,35.7191 L49.5094,36.0335 L49.4785,36.443 L49.0887,36.837 L49.339,36.9199 L49.9297,37.764 L50.2892,37.6505 L50.3888,37.8406 L50.2099,37.9748 L50.4992,37.9832 L50.9287,38.5307 L50.9569,38.7489 L50.6319,38.8977 L50.8459,39.0021 L50.7903,39.2571 L51.698,39.4055 L53.1494,40.3962 L53.5643,40.3721 L53.9098,40.5844 L54.1009,41.1701 L54.9157,41.9843 L54.5463,42.929 L54.5321,43.9099 L55,43.9177 L55,46.2154 L54.5351,46.0385 L53.4023,46.1904 L52.5863,47.5906 L51.8241,48.4188 L47.4538,48.1669 L41.2414,43.7077 L37.3207,41.7117 L34.2868,41.2425 L34.6326,40.9424 L34.4991,40.6852 L34.0075,40.7434 L33.8875,40.3952 L34.075,40.3439 L33.4039,38.2661 L37.9531,35.9871 L38.6056,35.8201 L39.1729,34.891 L39.1661,33.8228 L39.5511,32.844 L39.25,31.8822 L39.3457,31.183 L39.6031,30.7994 L40.6915,30.5584 L41.9106,29.3899 L42.395,29.3029 L42.7617,28.8075 L43.7094,28.7699 L45.3586,29.1769 L46.0202,28.9122 L46.3692,29.0889 L46.2386,29.443 L46.4874,29.7243 L47.2602,29.2276 L47.6303,29.3141" fill-rule="evenodd" vector-effect="none"/>
   <path d="M47.8383,23.4032 L48.5383,24.4032 L48.9383,24.4032 L49.2383,24.9032 L50.8383,25.2032 L51.8383,25.2032 L53.1383,24.2032 L55,23.3167 L55,43.9032 L54.5383,43.9032 L54.5383,42.9032 L54.9383,42.0032 L54.1383,41.2032 L53.9383,40.6032 L53.5383,40.4032 L53.1383,40.4032 L51.7383,39.4032 L50.8383,39.3032 L50.8383,39.0032 L50.6383,38.9032 L50.9383,38.7032 L50.9383,38.5032 L50.5383,38.0032 L50.2383,38.0032 L50.4383,37.8032 L50.3383,37.6032 L49.9383,37.8032 L49.3383,36.9032 L49.1383,36.8032 L49.4383,36.4032 L49.5383,36.0032 L49.1383,35.7032 L49.3383,35.6032 L49.3383,35.4032 L49.8383,35.5032 L49.6383,35.1032 L49.7383,34.9032 L50.2383,34.6032 L50.3383,34.2032 L50.9383,34.1032 L50.8383,33.6032 L50.4383,33.2032 L50.5383,32.8032 L51.3383,32.5032 L50.7383,32.4032 L49.9383,32.5032 L49.4383,32.0032 L48.9383,32.0032 L48.7383,31.1032 L48.3383,31.0032 L48.1383,30.8032 L48.2383,30.4032 L47.7383,30.1032 L47.9383,29.6032 L47.6383,29.4032 L47.7383,29.0032 L47.1383,28.6032 L47.2383,27.9032 L46.3383,27.5032 L46.9383,26.5032 L46.5383,26.4032 L46.4383,25.3032 L46.1383,25.0032 L46.2383,24.6032 L46.0383,24.4032 L45.8383,24.0032 L46.7383,23.9032 L46.9383,23.2032 L47.1383,23.1032 L47.8383,23.4032" fill-rule="evenodd" vector-effect="none"/>
   <path d="M55,55 L27.728,55 L26.8921,53.6162 L24.8301,50.9983 L24.9553,50.8914 L24.565,50.7366 L23.9784,50.8515 L23.7513,50.6879 L23.6039,50.7852 L23.6541,50.8515 L23.5229,50.9488 L23.4273,50.7527 L23.9758,49.7689 L24.3215,47.8111 L26.981,48.1712 L27.9489,47.4717 L28.5464,46.6195 L30.3069,46.2847 L30.728,45.4861 L31.5207,45.0874 L29.0944,42.7315 L33.8524,41.5364 L34.3138,41.2348 L37.1928,41.6691 L41.2414,43.7077 L47.4538,48.1669 L53.9635,48.6587 L54.5207,49.7538 L55,49.7731 L55,55" fill-rule="evenodd" vector-effect="none"/>
   <path d="M25.8943,39.9039 L26.5685,39.8294 L26.9734,40.2947 L28.7312,40.7797 L33.4039,38.2661 L34.075,40.3439 L33.8875,40.3952 L34.0075,40.7434 L34.4991,40.6852 L34.6326,40.9424 L33.8524,41.5364 L29.0944,42.7315 L31.5207,45.0874 L30.728,45.4861 L30.3069,46.2847 L28.5464,46.6195 L27.9489,47.4717 L26.8551,48.1951 L24.3215,47.8111 L24.7867,45.9788 L24.7741,45.2503 L25.4829,43.651 L25.3813,43.2855 L25.77,42.0801 L25.6831,41.3856 L25.8943,39.9039" fill-rule="evenodd" vector-effect="none"/>
   <path d="M22.9408,44.1172 L24.1728,47.4825 L23.8163,47.9071 L23.5502,49.273 L23.0412,50.2607 L23.1,51.0785 L22.5757,51.5156 L22.6783,51.665 L21.5055,50.9635 L20.236,49.6685 L20.1154,48.6709 L19.0163,47.5635 L18.6905,46.2446 L18.1203,47.2394 L18.6986,47.7697 L18.8037,48.7109 L19.2345,49.1729 L19.3817,49.6459 L21.0092,51.2663 L21.0987,51.5162 L20.8172,51.4403 L21.0987,51.8595 L20.8715,51.8595 L21.6836,52.8189 L21.6797,53.1082 L22.0581,53.6405 L21.9445,53.7962 L21.9282,54.2176 L22.4382,55 L0.653364,55 L0.653364,48.2155 L-0.0413614,45.8378 L0.47864,45.0877 L0.685757,44.4076 L0.339253,43.0696 L0.907843,42.4406 L1.05617,42.3386 L1.15123,42.6354 L1.65208,42.7027 L2.99347,42.4333 L6.208,42.9927 L6.50635,43.3674 L7.01454,43.4694 L7.47171,43.3268 L7.64755,43.6622 L8.82856,43.6992 L10.2621,44.308 L11.3904,44.0002 L12.735,43.1055 L12.9621,43.3826 L13.2554,43.3324 L12.9959,43.2366 L13.3126,43.065 L13.3864,42.7149 L13.4355,42.8049 L13.5163,42.8447 L13.4297,42.6894 L13.842,42.796 L14.8822,42.5042 L13.8583,42.9419 L14.3135,42.9758 L15.2271,42.7265 L14.892,42.51 L15.1755,42.454 L16.2663,42.8447 L17.0203,42.6257 L17.1118,42.6273 L17.1876,42.6604 L17.7924,43.1967 L17.0562,42.6341 L16.9824,43.0568 L16.7652,43.2215 L17.1439,43.4534 L17.4067,43.3826 L17.3569,43.5932 L17.5713,43.7706 L17.9916,43.5732 L17.9905,43.2675 L17.8102,43.1967 L18.1054,43.2529 L18.7469,43.7526 L19.5202,43.5283 L18.9011,43.7731 L19.0549,43.8053 L19.5198,43.6319 L19.7166,43.7637 L19.8456,43.577 L19.7649,43.6581 L19.5848,43.6435 L19.9527,43.4309 L20.0095,43.7892 L20.658,43.5283 L20.879,43.5932 L21.2315,43.6189 L22.5429,43.1512 L22.9408,44.1172" fill-rule="evenodd" vector-effect="none"/>
   <path d="M20.3011,43.3766 L19.9364,43.359 L19.538,43.5461 L19.9417,43.3268 L20.3011,43.3766" fill-rule="evenodd" vector-effect="none"/>
   <path d="M20.823,43.5608 L20.4021,43.3921 L20.3335,43.3826 L20.4079,43.3848 L20.657,43.4593 L20.823,43.5608" fill-rule="evenodd" vector-effect="none"/>
   <path d="M22.1586,52.287 L22.1891,52.3297 L21.8622,52.1513 L21.9822,52.1267 L22.1586,52.287" fill-rule="evenodd" vector-effect="none"/>
   <path d="M23.5405,51.1919 L23.2975,51.1857 L23.2296,51.0299 L23.3373,51.0009 L23.5405,51.1919" fill-rule="evenodd" vector-effect="none"/>
   <path d="M22.0094,53.8934 L22.0743,54.0321 L22.0759,54.0877 L21.9607,53.8934 L22.0094,53.8934" fill-rule="evenodd" vector-effect="none"/>
   <path d="M23.6844,51.2219 L23.6861,51.1186 L23.8051,51.1223 L23.8058,51.213 L23.6844,51.2219" fill-rule="evenodd" vector-effect="none"/>
   <path d="M19.6385,43.6807 L19.6528,43.6839 L19.6675,43.723 L19.6211,43.6918 L19.6385,43.6807" fill-rule="evenodd" vector-effect="none"/>
  </g>
  <g fill="none" font-weight="400" transform="matrix(1,0,0,1,0,0)" stroke-linejoin="bevel" font-size="45.8333" stroke="#000000" font-family="Lato" font-style="normal" stroke-linecap="square" stroke-opacity="1" stroke-width="1"/>
  <g fill="none" font-weight="400" transform="matrix(11.811,0,0,11.811,0,0)" stroke-linejoin="bevel" font-size="45.8333" stroke="#000000" font-family="Lato" font-style="normal" stroke-linecap="square" stroke-opacity="1" stroke-width="1"/>
  <g fill="none" font-weight="400" transform="matrix(11.811,0,0,11.811,0,0)" stroke-linejoin="bevel" font-size="45.8333" stroke="#000000" font-family="Lato" font-style="normal" stroke-linecap="square" stroke-opacity="1" stroke-width="1"/>
  <g fill="none" font-weight="400" transform="matrix(11.811,0,0,11.811,0,0)" stroke-linejoin="bevel" font-size="45.8333" stroke="#000000" font-family="Lato" font-style="normal" stroke-linecap="square" stroke-opacity="1" stroke-width="1"/>
  <g fill="none" font-weight="400" transform="matrix(1,0,0,1,0,0)" stroke-linejoin="bevel" font-size="45.8333" stroke="#000000" font-family="Lato" font-style="normal" stroke-linecap="square" stroke-opacity="1" stroke-width="1"/>
  <g fill="none" font-weight="400" transform="matrix(11.811,0,0,11.811,0,0)" stroke-linejoin="bevel" font-size="45.8333" stroke="#000000" font-family="Lato" font-style="normal" stroke-linecap="square" stroke-opacity="1" stroke-width="1"/>
  <g fill="none" font-weight="400" transform="matrix(11.811,0,0,11.811,0,0)" stroke-linejoin="bevel" font-size="45.8333" stroke="#000000" font-family="Lato" font-style="normal" stroke-linecap="square" stroke-opacity="1" stroke-width="1"/>
  <g fill="none" font-weight="400" transform="matrix(11.811,0,0,11.811,0,0)" stroke-linejoin="bevel" font-size="45.8333" stroke="#000000" font-family="Lato" font-style="normal" stroke-linecap="square" stroke-opacity="1" stroke-width="1"/>
  <g fill="none" font-weight="400" transform="matrix(11.811,0,0,11.811,0,0)" stroke-linejoin="bevel" font-size="45.8333" stroke="#000000" font-family="Lato" font-style="normal" stroke-linecap="square" stroke-opacity="1" stroke-width="1"/>
  <g fill="none" font-weight="400" transform="matrix(1,0,0,1,0,0)" stroke-linejoin="bevel" font-size="45.8333" stroke="#000000" font-family="Lato" font-style="normal" stroke-linecap="square" stroke-opacity="1" stroke-width="1"/>
 </g>
</svg>
