<?xml version='1.0' encoding='UTF-8' standalone='no'?>
<svg viewBox="0 0 50 50" baseProfile="tiny" xmlns="http://www.w3.org/2000/svg" width="4.23333mm" height="4.23333mm" xmlns:xlink="http://www.w3.org/1999/xlink" version="1.2">
 <title>Qt SVG Document</title>
 <desc>Generated with Qt</desc>
 <defs/>
 <g fill="none" stroke-linejoin="bevel" stroke="black" fill-rule="evenodd" stroke-linecap="square" stroke-width="1">
  <g fill="none" font-weight="400" transform="matrix(1,0,0,1,0,0)" stroke-linejoin="bevel" font-size="45.8333" stroke="#000000" font-family="Lato" font-style="normal" stroke-linecap="square" stroke-opacity="1" stroke-width="1"/>
  <g fill="none" font-weight="400" transform="matrix(1,0,0,1,0,0)" stroke-linejoin="bevel" font-size="45.8333" stroke="#000000" font-family="Lato" font-style="normal" stroke-linecap="square" stroke-opacity="1" stroke-width="1"/>
  <g fill="none" font-weight="400" transform="matrix(11.811,0,0,11.811,0,0)" stroke-linejoin="bevel" font-size="45.8333" stroke="#000000" font-family="Lato" font-style="normal" stroke-linecap="square" stroke-opacity="1" stroke-width="1"/>
  <g fill="none" font-weight="400" transform="matrix(11.811,0,0,11.811,0,0)" stroke-linejoin="bevel" font-size="45.8333" stroke="#000000" font-family="Lato" font-style="normal" stroke-linecap="square" stroke-opacity="1" stroke-width="1"/>
  <g fill="none" font-weight="400" transform="matrix(11.811,0,0,11.811,0,0)" stroke-linejoin="bevel" font-size="45.8333" stroke="#000000" font-family="Lato" font-style="normal" stroke-linecap="square" stroke-opacity="1" stroke-width="1"/>
  <g fill="none" font-weight="400" transform="matrix(1,0,0,1,0,0)" stroke-linejoin="bevel" font-size="45.8333" stroke="#000000" font-family="Lato" font-style="normal" stroke-linecap="square" stroke-opacity="1" stroke-width="1"/>
  <g fill="#ffffff" font-weight="400" transform="matrix(1,0,0,1,0,0)" font-size="45.8333" fill-opacity="0" stroke="none" font-family="Lato" font-style="normal">
   <path d="M-2,-2 L52,-2 L52,52 L-2,52 L-2,-2" fill-rule="evenodd" vector-effect="none"/>
  </g>
  <g fill="none" font-weight="400" transform="matrix(1,0,0,1,0,0)" stroke-linejoin="bevel" font-size="45.8333" stroke="#000000" font-family="Lato" font-style="normal" stroke-linecap="square" stroke-opacity="1" stroke-width="1"/>
  <g fill="none" font-weight="400" transform="matrix(11.811,0,0,11.811,0,0)" stroke-linejoin="bevel" font-size="45.8333" stroke="#000000" font-family="Lato" font-style="normal" stroke-linecap="square" stroke-opacity="1" stroke-width="1"/>
  <g fill="none" font-weight="400" transform="matrix(11.811,0,0,11.811,0,0)" stroke-linejoin="bevel" font-size="45.8333" stroke="#000000" font-family="Lato" font-style="normal" stroke-linecap="square" stroke-opacity="1" stroke-width="1"/>
  <g fill="none" font-weight="400" transform="matrix(11.811,0,0,11.811,0,0)" stroke-linejoin="bevel" font-size="45.8333" stroke="#000000" font-family="Lato" font-style="normal" stroke-linecap="square" stroke-opacity="1" stroke-width="1"/>
  <g fill="none" font-weight="400" transform="matrix(11.811,0,0,11.811,0,0)" stroke-linejoin="bevel" font-size="45.8333" stroke="#000000" font-family="Lato" font-style="normal" stroke-linecap="square" stroke-opacity="1" stroke-width="1"/>
  <g fill="none" font-weight="400" transform="matrix(11.811,0,0,11.811,0,0)" stroke-linejoin="bevel" font-size="45.8333" stroke="#000000" font-family="Lato" font-style="normal" stroke-linecap="square" stroke-opacity="1" stroke-width="1"/>
  <g fill="none" font-weight="400" transform="matrix(11.811,0,0,11.811,0,0)" stroke-linejoin="bevel" font-size="45.8333" stroke="#000000" font-family="Lato" font-style="normal" stroke-linecap="square" stroke-opacity="1" stroke-width="1"/>
  <g fill="#000000" font-weight="400" transform="matrix(1,0,0,1,0,0)" font-size="45.8333" fill-opacity="0" stroke="none" font-family="Lato" font-style="normal">
   <rect x="0" y="0" width="50" height="50"/>
  </g>
  <g fill="none" font-weight="400" transform="matrix(1,0,0,1,0,0)" stroke-linejoin="bevel" font-size="45.8333" stroke="#000000" font-family="Lato" font-style="normal" stroke-linecap="square" stroke-opacity="1" stroke-width="1"/>
  <g fill="none" font-weight="400" transform="matrix(1,0,0,1,0,0)" font-size="45.8333" stroke="none" font-family="Lato" font-style="normal">
   <path d="M-5,-5 L38.5993,-5 L40.2514,-3.04864 L49.9243,-1.84227 L50.234,-2.1561 L51.9459,0.59598 L49.4423,8.12957 L38.049,11.9268 L26.8723,13.5065 L23.5532,15.1427 L21.3772,17.7468 L20.764,19.1575 L19.7528,19.7059 L19.0274,19.6702 L18.039,18.4604 L16.5674,18.6553 L13.1786,18.3212 L12.1722,17.8792 L8.31193,17.9687 L7.42362,18.3599 L5.51608,17.5314 L4.57477,18.2684 L4.90568,18.4733 L4.39774,19.1787 L4.37576,19.848 L4.75122,20.2778 L4.63149,20.7801 L4.27056,20.7499 L4.08567,21.2674 L3.14837,21.8954 L2.85566,20.5294 L1.50465,18.8134 L1.52845,19.4121 L1.29509,17.7835 L-0.656781,16.3404 L-1.77443,14.8577 L-1.99296,13.9233 L-2.84974,13.0574 L-2.70231,12.54 L-3.12977,12.1514 L-2.9777,11.6543 L-3.38755,11.434 L-3.85828,9.98962 L-4.55805,9.59831 L-4.61709,8.95913 L-4.95245,9.02558 L-5,8.94677 L-5,-5" fill-rule="evenodd" vector-effect="none"/>
   <path d="M0.830062,20.8929 L0.741762,21.0826 L0.475585,20.6703 L-0.0192835,20.7592 L-0.772711,19.8999 L-0.0273996,20.52 L0.545174,20.2952 L0.830062,20.8929" fill-rule="evenodd" vector-effect="none"/>
   <path d="M-0.446288,19.9607 L-0.121755,19.6776 L-0.443512,19.4991 L-0.149573,19.5366 L0.156897,20.4141 L-0.446288,19.9607" fill-rule="evenodd" vector-effect="none"/>
  </g>
  <g fill="none" font-weight="400" transform="matrix(1,0,0,1,0,0)" stroke-linejoin="bevel" font-size="45.8333" stroke="#ffffff" font-family="Lato" font-style="normal" stroke-linecap="square" stroke-opacity="1" stroke-width="0.11811">
   <path d="M38.5083,12.9621 L40.8704,18.3738 L41.1746,18.4906 L42.2714,20.8645 L40.153,21.6057 L39.2421,22.3023 L38.721,23.3656 L38.9976,24.7623 L35.7293,26.2299 L32.6385,26.9179 L31.2161,27.6974 L30.3145,27.7147 L28.1506,28.4324 L27.0886,28.927 L26.7501,29.6669 L25.5808,30.7348 L23.6549,31.0176 L23.0021,30.6829 L20.6525,32.2113 L18.0033,33.0641 L14.0727,33.3996 L13.0746,34.4321 L11.9928,34.8438 L11.7666,35.6023 L11.4655,35.5253 L11.6015,35.2351 L11.0563,35.4446 L11.0934,35.7243 L10.0651,35.3837 L9.32419,35.9512 L7.54201,36.2251 L6.22902,35.6241 L5.72552,35.899 L5.74499,35.281 L4.80753,33.6203 L5.01493,31.9558 L3.79343,28.9501 L4.02957,29.2214 L3.50598,27.5441 L3.7415,27.8186 L3.70966,27.2981 L3.43149,26.5842 L2.46714,26.1772 L2.74254,26.1662 L2.85566,25.7112 L3.16907,26.3075 L2.77777,24.4358 L3.32053,23.6258 L3.14837,21.8954 L4.08567,21.2674 L4.27056,20.7499 L4.63149,20.7801 L4.75122,20.2778 L4.37576,19.848 L4.39774,19.1787 L4.89214,18.5495 L4.57477,18.2684 L5.09901,17.7628 L5.85975,17.5562 L7.42362,18.3599 L8.31193,17.9687 L12.1722,17.8792 L13.1786,18.3212 L16.5674,18.6553 L18.039,18.4604 L19.0274,19.6702 L19.7528,19.7059 L20.764,19.1575 L21.3772,17.7468 L23.5532,15.1427 L26.8723,13.5065 L38.049,11.9268 L38.5083,12.9621" fill-rule="evenodd" vector-effect="none"/>
   <path d="M47.7273,36.3802 L46.26,37.1621 L44.7053,37.3555 L43.0939,36.4326 L43.8993,35.7833 L45.1418,36.223 L46.1798,35.8336 L47.7273,36.3802" fill-rule="evenodd" vector-effect="none"/>
   <path d="M39.6096,37.7473 L39.3858,37.9413 L38.3738,37.6021 L39.3433,37.7814 L39.6096,37.7473" fill-rule="evenodd" vector-effect="none"/>
   <path d="M3.19504,30.8125 L3.14497,31.1788 L3.01391,31.2015 L2.77777,30.8504 L3.06522,30.6288 L3.19504,30.8125" fill-rule="evenodd" vector-effect="none"/>
   <path d="M3.16907,31.7742 L3.01391,32.0478 L2.76479,32.1774 L2.88162,31.8779 L3.16907,31.7742" fill-rule="evenodd" vector-effect="none"/>
   <path d="M2.47425,25.5202 L2.48229,25.9324 L2.30858,26.0812 L2.27273,25.6098 L2.47425,25.5202" fill-rule="evenodd" vector-effect="none"/>
   <path d="M42.259,37.9323 L42.1432,38.0094 L41.8723,37.8784 L42.0747,37.8116 L42.259,37.9323" fill-rule="evenodd" vector-effect="none"/>
   <path d="M5.65319,36.0164 L5.60312,36.0956 L5.42972,35.9657 L5.57716,35.9375 L5.65319,36.0164" fill-rule="evenodd" vector-effect="none"/>
   <path d="M43.0604,38.0336 L43.1067,38.0732 L42.8715,38.0358 L42.9464,38.0072 L43.0604,38.0336" fill-rule="evenodd" vector-effect="none"/>
  </g>
  <g fill="none" font-weight="400" transform="matrix(1,0,0,1,0,0)" stroke-linejoin="bevel" font-size="45.8333" stroke="#000000" font-family="Lato" font-style="normal" stroke-linecap="square" stroke-opacity="1" stroke-width="1"/>
  <g fill="none" font-weight="400" transform="matrix(11.811,0,0,11.811,0,0)" stroke-linejoin="bevel" font-size="45.8333" stroke="#000000" font-family="Lato" font-style="normal" stroke-linecap="square" stroke-opacity="1" stroke-width="1"/>
  <g fill="none" font-weight="400" transform="matrix(11.811,0,0,11.811,0,0)" stroke-linejoin="bevel" font-size="45.8333" stroke="#000000" font-family="Lato" font-style="normal" stroke-linecap="square" stroke-opacity="1" stroke-width="1"/>
  <g fill="none" font-weight="400" transform="matrix(11.811,0,0,11.811,0,0)" stroke-linejoin="bevel" font-size="45.8333" stroke="#000000" font-family="Lato" font-style="normal" stroke-linecap="square" stroke-opacity="1" stroke-width="1"/>
  <g fill="none" font-weight="400" transform="matrix(1,0,0,1,0,0)" stroke-linejoin="bevel" font-size="45.8333" stroke="#000000" font-family="Lato" font-style="normal" stroke-linecap="square" stroke-opacity="1" stroke-width="1"/>
  <g fill="none" font-weight="400" transform="matrix(11.811,0,0,11.811,0,0)" stroke-linejoin="bevel" font-size="45.8333" stroke="#000000" font-family="Lato" font-style="normal" stroke-linecap="square" stroke-opacity="1" stroke-width="1"/>
  <g fill="none" font-weight="400" transform="matrix(11.811,0,0,11.811,0,0)" stroke-linejoin="bevel" font-size="45.8333" stroke="#000000" font-family="Lato" font-style="normal" stroke-linecap="square" stroke-opacity="1" stroke-width="1"/>
  <g fill="none" font-weight="400" transform="matrix(11.811,0,0,11.811,0,0)" stroke-linejoin="bevel" font-size="45.8333" stroke="#000000" font-family="Lato" font-style="normal" stroke-linecap="square" stroke-opacity="1" stroke-width="1"/>
  <g fill="none" font-weight="400" transform="matrix(11.811,0,0,11.811,0,0)" stroke-linejoin="bevel" font-size="45.8333" stroke="#000000" font-family="Lato" font-style="normal" stroke-linecap="square" stroke-opacity="1" stroke-width="1"/>
  <g fill="none" font-weight="400" transform="matrix(1,0,0,1,0,0)" stroke-linejoin="bevel" font-size="45.8333" stroke="#000000" font-family="Lato" font-style="normal" stroke-linecap="square" stroke-opacity="1" stroke-width="1"/>
 </g>
</svg>
